<svg width="155" height="48" viewBox="0 0 155 48" fill="none" xmlns="http://www.w3.org/2000/svg">
<path d="M16.952 29V19.2H19.08L22.202 25.416L25.282 19.2H27.41V29H25.618V22.238L22.888 27.6H21.474L18.744 22.238V29H16.952ZM31.8734 29.168C31.0054 29.168 30.3334 28.8973 29.8574 28.356C29.3907 27.8147 29.1574 27.0213 29.1574 25.976V22.056H30.9354V25.808C30.9354 26.4053 31.0567 26.8627 31.2994 27.18C31.542 27.4973 31.9247 27.656 32.4474 27.656C32.942 27.656 33.348 27.4787 33.6654 27.124C33.992 26.7693 34.1554 26.2747 34.1554 25.64V22.056H35.9474V29H34.3654L34.2254 27.824C34.0107 28.2347 33.698 28.5613 33.2874 28.804C32.886 29.0467 32.4147 29.168 31.8734 29.168ZM37.787 29V18.92H39.579V29H37.787ZM43.804 29.168C43.2067 29.168 42.7167 29.0747 42.334 28.888C41.9513 28.692 41.6667 28.4353 41.48 28.118C41.2933 27.8007 41.2 27.4507 41.2 27.068C41.2 26.424 41.452 25.9013 41.956 25.5C42.46 25.0987 43.216 24.898 44.224 24.898H45.988V24.73C45.988 24.254 45.8527 23.904 45.582 23.68C45.3113 23.456 44.9753 23.344 44.574 23.344C44.21 23.344 43.8927 23.4327 43.622 23.61C43.3513 23.778 43.1833 24.03 43.118 24.366H41.368C41.4147 23.862 41.5827 23.4233 41.872 23.05C42.1707 22.6767 42.5533 22.392 43.02 22.196C43.4867 21.9907 44.0093 21.888 44.588 21.888C45.5773 21.888 46.3567 22.1353 46.926 22.63C47.4953 23.1247 47.78 23.8247 47.78 24.73V29H46.254L46.086 27.88C45.8807 28.2533 45.5913 28.5613 45.218 28.804C44.854 29.0467 44.3827 29.168 43.804 29.168ZM44.21 27.768C44.7233 27.768 45.12 27.6 45.4 27.264C45.6893 26.928 45.8713 26.5127 45.946 26.018H44.42C43.944 26.018 43.6033 26.1067 43.398 26.284C43.1927 26.452 43.09 26.662 43.09 26.914C43.09 27.1847 43.1927 27.3947 43.398 27.544C43.6033 27.6933 43.874 27.768 44.21 27.768ZM50.4561 20.978C50.1294 20.978 49.8587 20.88 49.6441 20.684C49.4387 20.488 49.3361 20.2407 49.3361 19.942C49.3361 19.6433 49.4387 19.4007 49.6441 19.214C49.8587 19.018 50.1294 18.92 50.4561 18.92C50.7827 18.92 51.0487 19.018 51.2541 19.214C51.4687 19.4007 51.5761 19.6433 51.5761 19.942C51.5761 20.2407 51.4687 20.488 51.2541 20.684C51.0487 20.88 50.7827 20.978 50.4561 20.978ZM49.5601 29V22.056H51.3521V29H49.5601ZM59.9464 29.168C59.2278 29.168 58.5931 29.0467 58.0424 28.804C57.4918 28.552 57.0578 28.1973 56.7404 27.74C56.4231 27.2733 56.2598 26.7087 56.2504 26.046H58.1404C58.1591 26.5033 58.3224 26.8907 58.6304 27.208C58.9478 27.516 59.3818 27.67 59.9324 27.67C60.4084 27.67 60.7864 27.558 61.0664 27.334C61.3464 27.1007 61.4864 26.7927 61.4864 26.41C61.4864 26.0087 61.3604 25.696 61.1084 25.472C60.8658 25.248 60.5391 25.066 60.1284 24.926C59.7178 24.786 59.2791 24.6367 58.8124 24.478C58.0564 24.2167 57.4778 23.8807 57.0764 23.47C56.6844 23.0593 56.4884 22.5133 56.4884 21.832C56.4791 21.2533 56.6144 20.7587 56.8944 20.348C57.1838 19.928 57.5758 19.606 58.0704 19.382C58.5651 19.1487 59.1344 19.032 59.7784 19.032C60.4318 19.032 61.0058 19.1487 61.5004 19.382C62.0044 19.6153 62.3964 19.942 62.6764 20.362C62.9658 20.782 63.1198 21.2813 63.1384 21.86H61.2204C61.2111 21.5147 61.0758 21.2113 60.8144 20.95C60.5624 20.6793 60.2078 20.544 59.7504 20.544C59.3584 20.5347 59.0271 20.6327 58.7564 20.838C58.4951 21.034 58.3644 21.3233 58.3644 21.706C58.3644 22.0327 58.4671 22.294 58.6724 22.49C58.8778 22.6767 59.1578 22.8353 59.5124 22.966C59.8671 23.0967 60.2731 23.2367 60.7304 23.386C61.2158 23.554 61.6591 23.75 62.0604 23.974C62.4618 24.198 62.7838 24.4967 63.0264 24.87C63.2691 25.234 63.3904 25.7053 63.3904 26.284C63.3904 26.7973 63.2598 27.2733 62.9984 27.712C62.7371 28.1507 62.3498 28.5053 61.8364 28.776C61.3231 29.0373 60.6931 29.168 59.9464 29.168ZM68.286 29.168C67.586 29.168 66.9653 29.0187 66.424 28.72C65.8826 28.4213 65.458 28.0013 65.15 27.46C64.842 26.9187 64.688 26.2933 64.688 25.584C64.688 24.8653 64.8373 24.226 65.136 23.666C65.444 23.106 65.864 22.672 66.396 22.364C66.9373 22.0467 67.572 21.888 68.3 21.888C68.9813 21.888 69.5833 22.0373 70.106 22.336C70.6286 22.6347 71.0346 23.0453 71.324 23.568C71.6226 24.0813 71.772 24.6553 71.772 25.29C71.772 25.3927 71.7673 25.5 71.758 25.612C71.758 25.724 71.7533 25.8407 71.744 25.962H66.466C66.5033 26.5033 66.69 26.928 67.026 27.236C67.3713 27.544 67.7866 27.698 68.272 27.698C68.636 27.698 68.9393 27.6187 69.182 27.46C69.434 27.292 69.6206 27.0773 69.742 26.816H71.562C71.4313 27.2547 71.212 27.656 70.904 28.02C70.6053 28.3747 70.232 28.6547 69.784 28.86C69.3453 29.0653 68.846 29.168 68.286 29.168ZM68.3 23.344C67.8613 23.344 67.474 23.47 67.138 23.722C66.802 23.9647 66.5873 24.338 66.494 24.842H69.952C69.924 24.3847 69.756 24.0207 69.448 23.75C69.14 23.4793 68.7573 23.344 68.3 23.344ZM73.2791 29V18.92H75.0711V24.87L77.5351 22.056H79.6631L76.8211 25.22L80.1251 29H77.8851L75.0711 25.514V29H73.2791ZM83.3978 29.168C82.8004 29.168 82.3104 29.0747 81.9278 28.888C81.5451 28.692 81.2604 28.4353 81.0738 28.118C80.8871 27.8007 80.7938 27.4507 80.7938 27.068C80.7938 26.424 81.0458 25.9013 81.5498 25.5C82.0538 25.0987 82.8098 24.898 83.8178 24.898H85.5818V24.73C85.5818 24.254 85.4464 23.904 85.1758 23.68C84.9051 23.456 84.5691 23.344 84.1678 23.344C83.8038 23.344 83.4864 23.4327 83.2158 23.61C82.9451 23.778 82.7771 24.03 82.7118 24.366H80.9618C81.0084 23.862 81.1764 23.4233 81.4658 23.05C81.7644 22.6767 82.1471 22.392 82.6138 22.196C83.0804 21.9907 83.6031 21.888 84.1818 21.888C85.1711 21.888 85.9504 22.1353 86.5198 22.63C87.0891 23.1247 87.3738 23.8247 87.3738 24.73V29H85.8478L85.6798 27.88C85.4744 28.2533 85.1851 28.5613 84.8118 28.804C84.4478 29.0467 83.9764 29.168 83.3978 29.168ZM83.8038 27.768C84.3171 27.768 84.7138 27.6 84.9938 27.264C85.2831 26.928 85.4651 26.5127 85.5398 26.018H84.0138C83.5378 26.018 83.1971 26.1067 82.9918 26.284C82.7864 26.452 82.6838 26.662 82.6838 26.914C82.6838 27.1847 82.7864 27.3947 82.9918 27.544C83.1971 27.6933 83.4678 27.768 83.8038 27.768ZM89.0838 29V22.056H90.6798L90.8478 23.358C91.0998 22.91 91.4405 22.5553 91.8698 22.294C92.3085 22.0233 92.8218 21.888 93.4098 21.888V23.778H92.9058C92.5138 23.778 92.1638 23.8387 91.8558 23.96C91.5478 24.0813 91.3052 24.2913 91.1278 24.59C90.9598 24.8887 90.8758 25.304 90.8758 25.836V29H89.0838ZM97.0286 29.168C96.4313 29.168 95.9413 29.0747 95.5586 28.888C95.1759 28.692 94.8913 28.4353 94.7046 28.118C94.5179 27.8007 94.4246 27.4507 94.4246 27.068C94.4246 26.424 94.6766 25.9013 95.1806 25.5C95.6846 25.0987 96.4406 24.898 97.4486 24.898H99.2126V24.73C99.2126 24.254 99.0773 23.904 98.8066 23.68C98.5359 23.456 98.1999 23.344 97.7986 23.344C97.4346 23.344 97.1173 23.4327 96.8466 23.61C96.5759 23.778 96.4079 24.03 96.3426 24.366H94.5926C94.6393 23.862 94.8073 23.4233 95.0966 23.05C95.3953 22.6767 95.7779 22.392 96.2446 22.196C96.7113 21.9907 97.2339 21.888 97.8126 21.888C98.8019 21.888 99.5813 22.1353 100.151 22.63C100.72 23.1247 101.005 23.8247 101.005 24.73V29H99.4786L99.3106 27.88C99.1053 28.2533 98.8159 28.5613 98.4426 28.804C98.0786 29.0467 97.6073 29.168 97.0286 29.168ZM97.4346 27.768C97.9479 27.768 98.3446 27.6 98.6246 27.264C98.9139 26.928 99.0959 26.5127 99.1706 26.018H97.6446C97.1686 26.018 96.8279 26.1067 96.6226 26.284C96.4173 26.452 96.3146 26.662 96.3146 26.914C96.3146 27.1847 96.4173 27.3947 96.6226 27.544C96.8279 27.6933 97.0986 27.768 97.4346 27.768ZM102.715 29V22.056H104.297L104.437 23.232C104.651 22.8213 104.959 22.4947 105.361 22.252C105.771 22.0093 106.252 21.888 106.803 21.888C107.661 21.888 108.329 22.1587 108.805 22.7C109.281 23.2413 109.519 24.0347 109.519 25.08V29H107.727V25.248C107.727 24.6507 107.605 24.1933 107.363 23.876C107.12 23.5587 106.742 23.4 106.229 23.4C105.725 23.4 105.309 23.5773 104.983 23.932C104.665 24.2867 104.507 24.7813 104.507 25.416V29H102.715ZM114.172 26.928C113.836 26.928 113.524 26.8907 113.234 26.816L112.716 27.334C112.875 27.418 113.09 27.488 113.36 27.544C113.631 27.6 114.07 27.656 114.676 27.712C115.6 27.796 116.272 28.0153 116.692 28.37C117.112 28.7247 117.322 29.2147 117.322 29.84C117.322 30.2507 117.21 30.638 116.986 31.002C116.762 31.3753 116.417 31.674 115.95 31.898C115.484 32.1313 114.886 32.248 114.158 32.248C113.169 32.248 112.371 32.0613 111.764 31.688C111.158 31.324 110.854 30.7733 110.854 30.036C110.854 29.4107 111.158 28.8693 111.764 28.412C111.578 28.328 111.414 28.2393 111.274 28.146C111.144 28.0527 111.027 27.9547 110.924 27.852V27.53L112.142 26.242C111.601 25.766 111.33 25.1547 111.33 24.408C111.33 23.9413 111.442 23.5167 111.666 23.134C111.9 22.7513 112.226 22.448 112.646 22.224C113.066 22 113.575 21.888 114.172 21.888C114.564 21.888 114.928 21.944 115.264 22.056H117.896V23.148L116.706 23.232C116.893 23.5867 116.986 23.9787 116.986 24.408C116.986 24.8747 116.874 25.2993 116.65 25.682C116.426 26.0647 116.1 26.368 115.67 26.592C115.25 26.816 114.751 26.928 114.172 26.928ZM114.172 25.556C114.536 25.556 114.835 25.458 115.068 25.262C115.311 25.066 115.432 24.786 115.432 24.422C115.432 24.058 115.311 23.778 115.068 23.582C114.835 23.386 114.536 23.288 114.172 23.288C113.79 23.288 113.482 23.386 113.248 23.582C113.015 23.778 112.898 24.058 112.898 24.422C112.898 24.786 113.015 25.066 113.248 25.262C113.482 25.458 113.79 25.556 114.172 25.556ZM112.492 29.854C112.492 30.1993 112.651 30.456 112.968 30.624C113.295 30.8013 113.692 30.89 114.158 30.89C114.606 30.89 114.97 30.7967 115.25 30.61C115.53 30.4327 115.67 30.19 115.67 29.882C115.67 29.63 115.577 29.42 115.39 29.252C115.213 29.084 114.854 28.9813 114.312 28.944C113.93 28.916 113.575 28.874 113.248 28.818C112.978 28.9673 112.782 29.1307 112.66 29.308C112.548 29.4853 112.492 29.6673 112.492 29.854Z" fill="white"/>
<path d="M125.773 23.3333V24.6667H133.773L130.107 28.3333L131.053 29.28L136.333 24L131.053 18.72L130.107 19.6667L133.773 23.3333H125.773Z" fill="white"/>
<rect x="0.5" y="0.5" width="154" height="47" rx="23.5" stroke="white"/>
</svg>
