<svg width="35" height="35" viewBox="0 0 35 35" fill="none" xmlns="http://www.w3.org/2000/svg">
<path d="M17.5 33.6444C26.4163 33.6444 33.6445 26.4163 33.6445 17.5C33.6445 8.58367 26.4163 1.35556 17.5 1.35556C8.5837 1.35556 1.35559 8.58367 1.35559 17.5C1.35559 26.4163 8.5837 33.6444 17.5 33.6444Z" fill="#1138F7"/>
<path d="M17.5 35C7.85128 35 0 27.1501 0 17.5C0 7.85128 7.85128 0 17.5 0C27.1501 0 35 7.85128 35 17.5C35 27.1501 27.1501 35 17.5 35ZM17.5 2.71106C9.34507 2.71106 2.71106 9.34507 2.71106 17.5C2.71106 25.6549 9.34507 32.2889 17.5 32.2889C25.6549 32.2889 32.2889 25.6536 32.2889 17.5C32.2889 9.34507 25.6549 2.71106 17.5 2.71106Z" fill="#1138F7"/>
<path d="M17.5 25.5112C16.7517 25.5112 16.1444 24.9053 16.1444 24.1556V10.6003C16.1444 9.85199 16.7517 9.24469 17.5 9.24469C18.2483 9.24469 18.8556 9.85199 18.8556 10.6003V24.1556C18.8556 24.9053 18.2483 25.5112 17.5 25.5112Z" fill="white"/>
<path d="M24.2777 18.7335H10.7223C9.97403 18.7335 9.36673 18.1262 9.36673 17.378C9.36673 16.6297 9.97403 16.0224 10.7223 16.0224H24.2777C25.0273 16.0224 25.6333 16.6297 25.6333 17.378C25.6333 18.1262 25.0273 18.7335 24.2777 18.7335Z" fill="white"/>
</svg>
