<svg width="35" height="35" viewBox="0 0 35 35" fill="none" xmlns="http://www.w3.org/2000/svg">
<path d="M17.4999 33.6444C26.4162 33.6444 33.6443 26.4163 33.6443 17.5C33.6443 8.58367 26.4162 1.35556 17.4999 1.35556C8.58358 1.35556 1.35547 8.58367 1.35547 17.5C1.35547 26.4163 8.58358 33.6444 17.4999 33.6444Z" fill="#1138F7"/>
<path d="M17.5 35C7.85128 35 0 27.1501 0 17.5C0 7.85128 7.85128 0 17.5 0C27.1501 0 35 7.85128 35 17.5C35 27.1501 27.1501 35 17.5 35ZM17.5 2.71106C9.34507 2.71106 2.71106 9.34507 2.71106 17.5C2.71106 25.6549 9.34507 32.2889 17.5 32.2889C25.6549 32.2889 32.2889 25.6536 32.2889 17.5C32.2889 9.34507 25.6549 2.71106 17.5 2.71106Z" fill="#1138F7"/>
<path d="M11.9983 23.3679C11.4472 22.8617 11.4099 22.0047 11.9169 21.4526L21.0867 11.4694C21.5928 10.9183 22.4509 10.8818 23.002 11.388C23.5531 11.8942 23.5895 12.7523 23.0834 13.3033L13.9136 23.2866C13.4065 23.8386 12.5494 23.8741 11.9983 23.3679Z" fill="white"/>
<path d="M21.5746 22.9611L11.5914 13.7914C11.0403 13.2853 11.0038 12.4272 11.51 11.8761C12.0162 11.325 12.8743 11.2886 13.4253 11.7947L23.4086 20.9645C23.9607 21.4716 23.9961 22.3287 23.4899 22.8798C22.9838 23.4309 22.1267 23.4682 21.5746 22.9611Z" fill="white"/>
</svg>
