<svg width="22" height="22" viewBox="0 0 22 22" fill="none" xmlns="http://www.w3.org/2000/svg">
<path d="M16 12.5732C16.5523 12.5732 17 12.1255 17 11.5732L17 11.4268C17 10.8745 16.5523 10.4268 16 10.4268L4.12121 10.4268L9.31688 5.2311C9.70741 4.84057 9.70741 4.20741 9.31688 3.81688L9.20711 3.70711C8.81658 3.31658 8.18342 3.31658 7.79289 3.70711L0.707106 10.7929C0.316582 11.1834 0.316582 11.8166 0.707106 12.2071L7.79289 19.2929C8.18342 19.6834 8.81658 19.6834 9.20711 19.2929L9.31688 19.1831C9.70741 18.7926 9.70741 18.1594 9.31688 17.7689L4.12121 12.5732L16 12.5732Z" fill="black"/>
</svg>
