<svg width="24" height="24" viewBox="0 0 24 24" fill="none" xmlns="http://www.w3.org/2000/svg">
<path d="M5.00006 10.0001C4.9996 9.7664 5.08098 9.53996 5.23006 9.36005C5.31401 9.25879 5.41711 9.17509 5.53346 9.11374C5.6498 9.05239 5.77711 9.01459 5.90809 9.00251C6.03906 8.99044 6.17114 9.00432 6.29674 9.04336C6.42234 9.08241 6.53901 9.14585 6.64006 9.23005L12.0001 13.7101L17.3701 9.39005C17.4723 9.30699 17.59 9.24495 17.7164 9.20752C17.8427 9.17009 17.9752 9.158 18.1062 9.17194C18.2373 9.18587 18.3643 9.22557 18.4799 9.28875C18.5955 9.35192 18.6975 9.43732 18.7801 9.54005C18.8711 9.64352 18.9398 9.76468 18.9818 9.89595C19.0237 10.0272 19.0381 10.1657 19.0241 10.3028C19.01 10.4399 18.9677 10.5726 18.8999 10.6926C18.8321 10.8126 18.7402 10.9173 18.6301 11.0001L12.6301 15.8301C12.4511 15.9771 12.2267 16.0575 11.9951 16.0575C11.7634 16.0575 11.539 15.9771 11.3601 15.8301L5.36006 10.8301C5.23904 10.7297 5.14338 10.6023 5.08083 10.4581C5.01828 10.3139 4.99061 10.157 5.00006 10.0001Z" fill="#838790"/>
</svg>
