<svg width="24" height="24" viewBox="0 0 24 24" fill="none" xmlns="http://www.w3.org/2000/svg">
<path d="M9.99999 18.9999C9.76634 19.0004 9.5399 18.919 9.35999 18.7699C9.25873 18.686 9.17503 18.5829 9.11368 18.4665C9.05233 18.3502 9.01453 18.2229 9.00245 18.0919C8.99038 17.9609 9.00426 17.8289 9.0433 17.7033C9.08235 17.5777 9.14579 17.461 9.22999 17.3599L13.71 11.9999L9.38999 6.62994C9.30692 6.52765 9.24489 6.40996 9.20746 6.28362C9.17003 6.15728 9.15794 6.02479 9.17187 5.89376C9.18581 5.76273 9.22551 5.63575 9.28868 5.52011C9.35186 5.40447 9.43726 5.30246 9.53999 5.21994C9.64346 5.1289 9.76462 5.06024 9.89588 5.01825C10.0271 4.97626 10.1657 4.96185 10.3028 4.97594C10.4399 4.99002 10.5726 5.03229 10.6925 5.1001C10.8125 5.1679 10.9172 5.25977 11 5.36994L15.83 11.3699C15.9771 11.5489 16.0575 11.7733 16.0575 12.0049C16.0575 12.2366 15.9771 12.461 15.83 12.6399L10.83 18.6399C10.7297 18.761 10.6022 18.8566 10.458 18.9192C10.3138 18.9817 10.1569 19.0094 9.99999 18.9999Z" fill="#838790"/>
</svg>
