<svg width="44" height="23" viewBox="0 0 44 23" fill="none" xmlns="http://www.w3.org/2000/svg">
<path d="M9.63179 8V0.299999H12.7228C13.5221 0.299999 14.1308 0.486999 14.5488 0.860999C14.9741 1.22767 15.1868 1.70067 15.1868 2.28C15.1868 2.764 15.0548 3.15267 14.7908 3.446C14.5341 3.732 14.2188 3.92633 13.8448 4.029C14.2848 4.117 14.6478 4.337 14.9338 4.689C15.2198 5.03367 15.3628 5.437 15.3628 5.899C15.3628 6.50767 15.1428 7.01 14.7028 7.406C14.2628 7.802 13.6395 8 12.8328 8H9.63179ZM11.0398 3.534H12.5138C12.9098 3.534 13.2141 3.44233 13.4268 3.259C13.6395 3.07567 13.7458 2.81533 13.7458 2.478C13.7458 2.15533 13.6395 1.90233 13.4268 1.719C13.2215 1.52833 12.9098 1.433 12.4918 1.433H11.0398V3.534ZM11.0398 6.856H12.6128C13.0308 6.856 13.3535 6.76067 13.5808 6.57C13.8155 6.372 13.9328 6.097 13.9328 5.745C13.9328 5.38567 13.8118 5.10333 13.5698 4.898C13.3278 4.69267 13.0015 4.59 12.5908 4.59H11.0398V6.856ZM18.4192 8.132C17.9499 8.132 17.5649 8.05867 17.2642 7.912C16.9636 7.758 16.7399 7.55633 16.5932 7.307C16.4466 7.05767 16.3732 6.78267 16.3732 6.482C16.3732 5.976 16.5712 5.56533 16.9672 5.25C17.3632 4.93467 17.9572 4.777 18.7492 4.777H20.1352V4.645C20.1352 4.271 20.0289 3.996 19.8162 3.82C19.6036 3.644 19.3396 3.556 19.0242 3.556C18.7382 3.556 18.4889 3.62567 18.2762 3.765C18.0636 3.897 17.9316 4.095 17.8802 4.359H16.5052C16.5419 3.963 16.6739 3.61833 16.9012 3.325C17.1359 3.03167 17.4366 2.808 17.8032 2.654C18.1699 2.49267 18.5806 2.412 19.0352 2.412C19.8126 2.412 20.4249 2.60633 20.8722 2.995C21.3196 3.38367 21.5432 3.93367 21.5432 4.645V8H20.3442L20.2122 7.12C20.0509 7.41333 19.8236 7.65533 19.5302 7.846C19.2442 8.03667 18.8739 8.132 18.4192 8.132ZM18.7382 7.032C19.1416 7.032 19.4532 6.9 19.6732 6.636C19.9006 6.372 20.0436 6.04567 20.1022 5.657H18.9032C18.5292 5.657 18.2616 5.72667 18.1002 5.866C17.9389 5.998 17.8582 6.163 17.8582 6.361C17.8582 6.57367 17.9389 6.73867 18.1002 6.856C18.2616 6.97333 18.4742 7.032 18.7382 7.032ZM22.8869 8V2.544H24.1299L24.2399 3.468C24.4085 3.14533 24.6505 2.88867 24.9659 2.698C25.2885 2.50733 25.6662 2.412 26.0989 2.412C26.7735 2.412 27.2979 2.62467 27.6719 3.05C28.0459 3.47533 28.2329 4.09867 28.2329 4.92V8H26.8249V5.052C26.8249 4.58267 26.7295 4.22333 26.5389 3.974C26.3482 3.72467 26.0512 3.6 25.6479 3.6C25.2519 3.6 24.9255 3.73933 24.6689 4.018C24.4195 4.29667 24.2949 4.68533 24.2949 5.184V8H22.8869ZM29.5793 8V0.0799997H30.9873V4.755L32.9233 2.544H34.5953L32.3623 5.03L34.9583 8H33.1983L30.9873 5.261V8H29.5793ZM2.63231 22V15.433H0.388309V14.3H6.29531V15.433H4.04031V22H2.63231ZM6.76822 22V16.544H8.02222L8.15422 17.567C8.35222 17.215 8.61989 16.9363 8.95722 16.731C9.30189 16.5183 9.70522 16.412 10.1672 16.412V17.897H9.77122C9.46322 17.897 9.18822 17.9447 8.94622 18.04C8.70422 18.1353 8.51356 18.3003 8.37422 18.535C8.24222 18.7697 8.17622 19.096 8.17622 19.514V22H6.76822ZM13.0106 22.132C12.5412 22.132 12.1562 22.0587 11.8556 21.912C11.5549 21.758 11.3312 21.5563 11.1846 21.307C11.0379 21.0577 10.9646 20.7827 10.9646 20.482C10.9646 19.976 11.1626 19.5653 11.5586 19.25C11.9546 18.9347 12.5486 18.777 13.3406 18.777H14.7266V18.645C14.7266 18.271 14.6202 17.996 14.4076 17.82C14.1949 17.644 13.9309 17.556 13.6156 17.556C13.3296 17.556 13.0802 17.6257 12.8676 17.765C12.6549 17.897 12.5229 18.095 12.4716 18.359H11.0966C11.1332 17.963 11.2652 17.6183 11.4926 17.325C11.7272 17.0317 12.0279 16.808 12.3946 16.654C12.7612 16.4927 13.1719 16.412 13.6266 16.412C14.4039 16.412 15.0162 16.6063 15.4636 16.995C15.9109 17.3837 16.1346 17.9337 16.1346 18.645V22H14.9356L14.8036 21.12C14.6422 21.4133 14.4149 21.6553 14.1216 21.846C13.8356 22.0367 13.4652 22.132 13.0106 22.132ZM13.3296 21.032C13.7329 21.032 14.0446 20.9 14.2646 20.636C14.4919 20.372 14.6349 20.0457 14.6936 19.657H13.4946C13.1206 19.657 12.8529 19.7267 12.6916 19.866C12.5302 19.998 12.4496 20.163 12.4496 20.361C12.4496 20.5737 12.5302 20.7387 12.6916 20.856C12.8529 20.9733 13.0656 21.032 13.3296 21.032ZM17.4782 22V16.544H18.7212L18.8312 17.468C18.9999 17.1453 19.2419 16.8887 19.5572 16.698C19.8799 16.5073 20.2575 16.412 20.6902 16.412C21.3649 16.412 21.8892 16.6247 22.2632 17.05C22.6372 17.4753 22.8242 18.0987 22.8242 18.92V22H21.4162V19.052C21.4162 18.5827 21.3209 18.2233 21.1302 17.974C20.9395 17.7247 20.6425 17.6 20.2392 17.6C19.8432 17.6 19.5169 17.7393 19.2602 18.018C19.0109 18.2967 18.8862 18.6853 18.8862 19.184V22H17.4782ZM26.4256 22.132C25.9416 22.132 25.5162 22.055 25.1496 21.901C24.7829 21.7397 24.4896 21.5197 24.2696 21.241C24.0496 20.9623 23.9176 20.6397 23.8736 20.273H25.2926C25.3366 20.4857 25.4539 20.669 25.6446 20.823C25.8426 20.9697 26.0956 21.043 26.4036 21.043C26.7116 21.043 26.9352 20.9807 27.0746 20.856C27.2212 20.7313 27.2946 20.5883 27.2946 20.427C27.2946 20.1923 27.1919 20.0347 26.9866 19.954C26.7812 19.866 26.4952 19.7817 26.1286 19.701C25.8939 19.6497 25.6556 19.5873 25.4136 19.514C25.1716 19.4407 24.9479 19.349 24.7426 19.239C24.5446 19.1217 24.3832 18.975 24.2586 18.799C24.1339 18.6157 24.0716 18.392 24.0716 18.128C24.0716 17.644 24.2622 17.237 24.6436 16.907C25.0322 16.577 25.5749 16.412 26.2716 16.412C26.9169 16.412 27.4302 16.5623 27.8116 16.863C28.2002 17.1637 28.4312 17.578 28.5046 18.106H27.1736C27.0929 17.7027 26.7886 17.501 26.2606 17.501C25.9966 17.501 25.7912 17.5523 25.6446 17.655C25.5052 17.7577 25.4356 17.886 25.4356 18.04C25.4356 18.2013 25.5419 18.3297 25.7546 18.425C25.9672 18.5203 26.2496 18.6083 26.6016 18.689C26.9829 18.777 27.3312 18.876 27.6466 18.986C27.9692 19.0887 28.2259 19.2463 28.4166 19.459C28.6072 19.6643 28.7026 19.9613 28.7026 20.35C28.7099 20.6873 28.6219 20.9917 28.4386 21.263C28.2552 21.5343 27.9912 21.747 27.6466 21.901C27.3019 22.055 26.8949 22.132 26.4256 22.132ZM30.2029 22V17.721H29.4549V16.544H30.2029V15.906C30.2029 15.246 30.3679 14.7767 30.6979 14.498C31.0352 14.2193 31.4899 14.08 32.0619 14.08H32.6669V15.279H32.2819C32.0399 15.279 31.8675 15.3267 31.7649 15.422C31.6622 15.5173 31.6109 15.6787 31.6109 15.906V16.544H32.7879V17.721H31.6109V22H30.2029ZM36.3391 22.132C35.7891 22.132 35.3015 22.0147 34.8761 21.78C34.4508 21.5453 34.1171 21.2153 33.8751 20.79C33.6331 20.3647 33.5121 19.8733 33.5121 19.316C33.5121 18.7513 33.6295 18.249 33.8641 17.809C34.1061 17.369 34.4361 17.028 34.8541 16.786C35.2795 16.5367 35.7781 16.412 36.3501 16.412C36.8855 16.412 37.3585 16.5293 37.7691 16.764C38.1798 16.9987 38.4988 17.3213 38.7261 17.732C38.9608 18.1353 39.0781 18.5863 39.0781 19.085C39.0781 19.1657 39.0745 19.25 39.0671 19.338C39.0671 19.426 39.0635 19.5177 39.0561 19.613H34.9091C34.9385 20.0383 35.0851 20.372 35.3491 20.614C35.6205 20.856 35.9468 20.977 36.3281 20.977C36.6141 20.977 36.8525 20.9147 37.0431 20.79C37.2411 20.658 37.3878 20.4893 37.4831 20.284H38.9131C38.8105 20.6287 38.6381 20.944 38.3961 21.23C38.1615 21.5087 37.8681 21.7287 37.5161 21.89C37.1715 22.0513 36.7791 22.132 36.3391 22.132ZM36.3501 17.556C36.0055 17.556 35.7011 17.655 35.4371 17.853C35.1731 18.0437 35.0045 18.337 34.9311 18.733H37.6481C37.6261 18.3737 37.4941 18.0877 37.2521 17.875C37.0101 17.6623 36.7095 17.556 36.3501 17.556ZM40.2624 22V16.544H41.5164L41.6484 17.567C41.8464 17.215 42.114 16.9363 42.4514 16.731C42.796 16.5183 43.1994 16.412 43.6614 16.412V17.897H43.2654C42.9574 17.897 42.6824 17.9447 42.4404 18.04C42.1984 18.1353 42.0077 18.3003 41.8684 18.535C41.7364 18.7697 41.6704 19.096 41.6704 19.514V22H40.2624Z" fill="#838790"/>
</svg>
