<svg width="118" height="31" viewBox="0 0 118 31" fill="none" xmlns="http://www.w3.org/2000/svg">
<rect width="118" height="31" rx="15.5" fill="#EFF0F2"/>
<path d="M25.036 20.5V10.7H28.48C29.1707 10.7 29.74 10.812 30.188 11.036C30.6453 11.2507 30.986 11.5493 31.21 11.932C31.434 12.3053 31.546 12.7253 31.546 13.192C31.546 13.8267 31.3733 14.326 31.028 14.69C30.692 15.054 30.286 15.306 29.81 15.446C30.174 15.5113 30.5053 15.656 30.804 15.88C31.1027 16.104 31.336 16.384 31.504 16.72C31.6813 17.056 31.77 17.4247 31.77 17.826C31.77 18.3207 31.6487 18.7733 31.406 19.184C31.1633 19.5853 30.804 19.9073 30.328 20.15C29.852 20.3833 29.2733 20.5 28.592 20.5H25.036ZM26.212 14.984H28.396C29.0213 14.984 29.502 14.8393 29.838 14.55C30.174 14.2513 30.342 13.8407 30.342 13.318C30.342 12.8233 30.174 12.4267 29.838 12.128C29.5113 11.8293 29.0167 11.68 28.354 11.68H26.212V14.984ZM26.212 19.52H28.466C29.138 19.52 29.656 19.366 30.02 19.058C30.384 18.7407 30.566 18.302 30.566 17.742C30.566 17.1913 30.3747 16.7527 29.992 16.426C29.6093 16.09 29.0913 15.922 28.438 15.922H26.212V19.52ZM34.1019 12.016C33.8685 12.016 33.6725 11.9413 33.5139 11.792C33.3645 11.6333 33.2899 11.4373 33.2899 11.204C33.2899 10.98 33.3645 10.7933 33.5139 10.644C33.6725 10.4947 33.8685 10.42 34.1019 10.42C34.3259 10.42 34.5172 10.4947 34.6759 10.644C34.8345 10.7933 34.9139 10.98 34.9139 11.204C34.9139 11.4373 34.8345 11.6333 34.6759 11.792C34.5172 11.9413 34.3259 12.016 34.1019 12.016ZM33.5139 20.5V13.556H34.6899V20.5H33.5139ZM39.3975 20.668C38.5668 20.668 37.8762 20.458 37.3255 20.038C36.7748 19.618 36.4528 19.0487 36.3595 18.33H37.5635C37.6382 18.694 37.8295 19.0113 38.1375 19.282C38.4548 19.5433 38.8795 19.674 39.4115 19.674C39.9062 19.674 40.2702 19.5713 40.5035 19.366C40.7368 19.1513 40.8535 18.8993 40.8535 18.61C40.8535 18.19 40.6995 17.91 40.3915 17.77C40.0928 17.63 39.6682 17.504 39.1175 17.392C38.7442 17.3173 38.3708 17.21 37.9975 17.07C37.6242 16.93 37.3115 16.734 37.0595 16.482C36.8075 16.2207 36.6815 15.88 36.6815 15.46C36.6815 14.8533 36.9055 14.3587 37.3535 13.976C37.8108 13.584 38.4268 13.388 39.2015 13.388C39.9388 13.388 40.5408 13.5747 41.0075 13.948C41.4835 14.312 41.7588 14.8347 41.8335 15.516H40.6715C40.6248 15.1613 40.4708 14.886 40.2095 14.69C39.9575 14.4847 39.6168 14.382 39.1875 14.382C38.7675 14.382 38.4408 14.4707 38.2075 14.648C37.9835 14.8253 37.8715 15.0587 37.8715 15.348C37.8715 15.628 38.0162 15.8473 38.3055 16.006C38.6042 16.1647 39.0055 16.3 39.5095 16.412C39.9388 16.5053 40.3448 16.622 40.7275 16.762C41.1195 16.8927 41.4368 17.0933 41.6795 17.364C41.9315 17.6253 42.0575 18.008 42.0575 18.512C42.0668 19.1373 41.8288 19.6553 41.3435 20.066C40.8675 20.4673 40.2188 20.668 39.3975 20.668ZM43.7375 20.5V13.556H44.8015L44.8715 14.802C45.0955 14.3633 45.4175 14.018 45.8375 13.766C46.2575 13.514 46.7335 13.388 47.2655 13.388C48.0868 13.388 48.7402 13.64 49.2255 14.144C49.7202 14.6387 49.9675 15.404 49.9675 16.44V20.5H48.7915V16.566C48.7915 15.1193 48.1942 14.396 46.9995 14.396C46.4022 14.396 45.9028 14.6153 45.5015 15.054C45.1095 15.4833 44.9135 16.0993 44.9135 16.902V20.5H43.7375ZM52.4632 12.016C52.2299 12.016 52.0339 11.9413 51.8752 11.792C51.7259 11.6333 51.6512 11.4373 51.6512 11.204C51.6512 10.98 51.7259 10.7933 51.8752 10.644C52.0339 10.4947 52.2299 10.42 52.4632 10.42C52.6872 10.42 52.8785 10.4947 53.0372 10.644C53.1959 10.7933 53.2752 10.98 53.2752 11.204C53.2752 11.4373 53.1959 11.6333 53.0372 11.792C52.8785 11.9413 52.6872 12.016 52.4632 12.016ZM51.8752 20.5V13.556H53.0512V20.5H51.8752ZM57.7588 20.668C56.9281 20.668 56.2375 20.458 55.6868 20.038C55.1361 19.618 54.8141 19.0487 54.7208 18.33H55.9248C55.9995 18.694 56.1908 19.0113 56.4988 19.282C56.8161 19.5433 57.2408 19.674 57.7728 19.674C58.2675 19.674 58.6315 19.5713 58.8648 19.366C59.0981 19.1513 59.2148 18.8993 59.2148 18.61C59.2148 18.19 59.0608 17.91 58.7528 17.77C58.4541 17.63 58.0295 17.504 57.4788 17.392C57.1055 17.3173 56.7321 17.21 56.3588 17.07C55.9855 16.93 55.6728 16.734 55.4208 16.482C55.1688 16.2207 55.0428 15.88 55.0428 15.46C55.0428 14.8533 55.2668 14.3587 55.7148 13.976C56.1721 13.584 56.7881 13.388 57.5628 13.388C58.3001 13.388 58.9021 13.5747 59.3688 13.948C59.8448 14.312 60.1201 14.8347 60.1948 15.516H59.0328C58.9861 15.1613 58.8321 14.886 58.5708 14.69C58.3188 14.4847 57.9781 14.382 57.5488 14.382C57.1288 14.382 56.8021 14.4707 56.5688 14.648C56.3448 14.8253 56.2328 15.0587 56.2328 15.348C56.2328 15.628 56.3775 15.8473 56.6668 16.006C56.9655 16.1647 57.3668 16.3 57.8708 16.412C58.3001 16.5053 58.7061 16.622 59.0888 16.762C59.4808 16.8927 59.7981 17.0933 60.0408 17.364C60.2928 17.6253 60.4188 18.008 60.4188 18.512C60.4281 19.1373 60.1901 19.6553 59.7048 20.066C59.2288 20.4673 58.5801 20.668 57.7588 20.668ZM68.0579 20.668C67.1712 20.668 66.4759 20.4207 65.9719 19.926C65.4679 19.4313 65.2159 18.7453 65.2159 17.868H66.4059C66.4059 18.3627 66.5272 18.778 66.7699 19.114C67.0126 19.45 67.4372 19.618 68.0439 19.618C68.6319 19.618 69.0379 19.4547 69.2619 19.128C69.4952 18.8013 69.6119 18.3953 69.6119 17.91V10.7H70.7879V17.91C70.7879 18.778 70.5452 19.4547 70.0599 19.94C69.5839 20.4253 68.9166 20.668 68.0579 20.668ZM75.1002 20.668C74.5216 20.668 74.0409 20.57 73.6582 20.374C73.2756 20.178 72.9909 19.9167 72.8042 19.59C72.6176 19.2633 72.5242 18.9087 72.5242 18.526C72.5242 17.8167 72.7949 17.2707 73.3362 16.888C73.8776 16.5053 74.6149 16.314 75.5482 16.314H77.4242V16.23C77.4242 15.6233 77.2656 15.166 76.9482 14.858C76.6309 14.5407 76.2062 14.382 75.6742 14.382C75.2169 14.382 74.8202 14.4987 74.4842 14.732C74.1576 14.956 73.9522 15.2873 73.8682 15.726H72.6642C72.7109 15.222 72.8789 14.7973 73.1682 14.452C73.4669 14.1067 73.8356 13.8453 74.2742 13.668C74.7129 13.4813 75.1796 13.388 75.6742 13.388C76.6449 13.388 77.3729 13.6493 77.8582 14.172C78.3529 14.6853 78.6002 15.3713 78.6002 16.23V20.5H77.5502L77.4802 19.254C77.2842 19.646 76.9949 19.982 76.6122 20.262C76.2389 20.5327 75.7349 20.668 75.1002 20.668ZM75.2822 19.674C75.7302 19.674 76.1129 19.5573 76.4302 19.324C76.7569 19.0907 77.0042 18.7873 77.1722 18.414C77.3402 18.0407 77.4242 17.6487 77.4242 17.238V17.224H75.6462C74.9556 17.224 74.4656 17.3453 74.1762 17.588C73.8962 17.8213 73.7562 18.1153 73.7562 18.47C73.7562 18.834 73.8869 19.128 74.1482 19.352C74.4189 19.5667 74.7969 19.674 75.2822 19.674ZM83.0244 20.668C82.1938 20.668 81.5031 20.458 80.9524 20.038C80.4018 19.618 80.0798 19.0487 79.9864 18.33H81.1904C81.2651 18.694 81.4564 19.0113 81.7644 19.282C82.0818 19.5433 82.5064 19.674 83.0384 19.674C83.5331 19.674 83.8971 19.5713 84.1304 19.366C84.3638 19.1513 84.4804 18.8993 84.4804 18.61C84.4804 18.19 84.3264 17.91 84.0184 17.77C83.7198 17.63 83.2951 17.504 82.7444 17.392C82.3711 17.3173 81.9978 17.21 81.6244 17.07C81.2511 16.93 80.9384 16.734 80.6864 16.482C80.4344 16.2207 80.3084 15.88 80.3084 15.46C80.3084 14.8533 80.5324 14.3587 80.9804 13.976C81.4378 13.584 82.0538 13.388 82.8284 13.388C83.5658 13.388 84.1678 13.5747 84.6344 13.948C85.1104 14.312 85.3858 14.8347 85.4604 15.516H84.2984C84.2518 15.1613 84.0978 14.886 83.8364 14.69C83.5844 14.4847 83.2438 14.382 82.8144 14.382C82.3944 14.382 82.0678 14.4707 81.8344 14.648C81.6104 14.8253 81.4984 15.0587 81.4984 15.348C81.4984 15.628 81.6431 15.8473 81.9324 16.006C82.2311 16.1647 82.6324 16.3 83.1364 16.412C83.5658 16.5053 83.9718 16.622 84.3544 16.762C84.7464 16.8927 85.0638 17.0933 85.3064 17.364C85.5584 17.6253 85.6844 18.008 85.6844 18.512C85.6938 19.1373 85.4558 19.6553 84.9704 20.066C84.4944 20.4673 83.8458 20.668 83.0244 20.668ZM89.6744 20.668C89.0958 20.668 88.6151 20.57 88.2324 20.374C87.8498 20.178 87.5651 19.9167 87.3784 19.59C87.1918 19.2633 87.0984 18.9087 87.0984 18.526C87.0984 17.8167 87.3691 17.2707 87.9104 16.888C88.4518 16.5053 89.1891 16.314 90.1224 16.314H91.9984V16.23C91.9984 15.6233 91.8398 15.166 91.5224 14.858C91.2051 14.5407 90.7804 14.382 90.2484 14.382C89.7911 14.382 89.3944 14.4987 89.0584 14.732C88.7318 14.956 88.5264 15.2873 88.4424 15.726H87.2384C87.2851 15.222 87.4531 14.7973 87.7424 14.452C88.0411 14.1067 88.4098 13.8453 88.8484 13.668C89.2871 13.4813 89.7538 13.388 90.2484 13.388C91.2191 13.388 91.9471 13.6493 92.4324 14.172C92.9271 14.6853 93.1744 15.3713 93.1744 16.23V20.5H92.1244L92.0544 19.254C91.8584 19.646 91.5691 19.982 91.1864 20.262C90.8131 20.5327 90.3091 20.668 89.6744 20.668ZM89.8564 19.674C90.3044 19.674 90.6871 19.5573 91.0044 19.324C91.3311 19.0907 91.5784 18.7873 91.7464 18.414C91.9144 18.0407 91.9984 17.6487 91.9984 17.238V17.224H90.2204C89.5298 17.224 89.0398 17.3453 88.7504 17.588C88.4704 17.8213 88.3304 18.1153 88.3304 18.47C88.3304 18.834 88.4611 19.128 88.7224 19.352C88.9931 19.5667 89.3711 19.674 89.8564 19.674Z" fill="#838790"/>
</svg>
