<svg width="24" height="25" viewBox="0 0 24 25" fill="none" xmlns="http://www.w3.org/2000/svg">
<path d="M12 2.12012C10.0222 2.12012 8.08879 2.70661 6.4443 3.80542C4.79981 4.90424 3.51809 6.46602 2.76121 8.29328C2.00433 10.1205 1.8063 12.1312 2.19215 14.071C2.578 16.0108 3.53041 17.7927 4.92894 19.1912C6.32746 20.5897 8.10929 21.5421 10.0491 21.928C11.9889 22.3138 13.9996 22.1158 15.8268 21.3589C17.6541 20.602 19.2159 19.3203 20.3147 17.6758C21.4135 16.0313 22 14.0979 22 12.1201C22 10.8069 21.7413 9.50654 21.2388 8.29328C20.7363 7.08003 19.9997 5.97764 19.0711 5.04905C18.1425 4.12046 17.0401 3.38387 15.8268 2.88132C14.6136 2.37877 13.3132 2.12012 12 2.12012ZM12 20.1201C10.4178 20.1201 8.87104 19.6509 7.55544 18.7719C6.23985 17.8928 5.21447 16.6434 4.60897 15.1816C4.00347 13.7198 3.84504 12.1112 4.15372 10.5594C4.4624 9.00755 5.22433 7.58208 6.34315 6.46326C7.46197 5.34444 8.88743 4.58252 10.4393 4.27384C11.9911 3.96515 13.5997 4.12358 15.0615 4.72908C16.5233 5.33458 17.7727 6.35996 18.6518 7.67556C19.5308 8.99115 20 10.5379 20 12.1201C20 14.2418 19.1572 16.2767 17.6569 17.777C16.1566 19.2773 14.1217 20.1201 12 20.1201Z" fill="#838790"/>
</svg>
