<svg width="20" height="20" viewBox="0 0 20 20" fill="none" xmlns="http://www.w3.org/2000/svg">
<g clip-path="url(#clip0)">
<path d="M16.8562 1.78877C17.1987 1.44309 17.6641 1.24704 18.1506 1.24346C18.6372 1.23987 19.1054 1.42905 19.453 1.76964C19.8005 2.11023 19.9991 2.57454 20.0053 3.0611C20.0115 3.54765 19.8249 4.01689 19.4862 4.36627L9.68621 16.6175C9.51785 16.7988 9.31469 16.9443 9.08887 17.0453C8.86304 17.1463 8.61917 17.2007 8.37183 17.2054C8.12448 17.2101 7.87874 17.1648 7.64926 17.0724C7.41978 16.98 7.21128 16.8423 7.03621 16.6675L0.538705 10.1725C0.193426 9.82707 -0.000483368 9.35861 -0.000366158 8.8702C-0.000248948 8.38178 0.193886 7.91342 0.53933 7.56814C0.884775 7.22286 1.35323 7.02895 1.84165 7.02907C2.33006 7.02919 2.79843 7.22332 3.14371 7.56877L8.28246 12.7088L16.8075 1.84627C16.8229 1.8265 16.8396 1.80771 16.8575 1.79002L16.8562 1.78877Z" fill="black"/>
</g>
<defs>
<clipPath id="clip0">
<rect width="20" height="20" fill="white"/>
</clipPath>
</defs>
</svg>
