<svg width="16" height="16" viewBox="0 0 16 16" fill="none" xmlns="http://www.w3.org/2000/svg">
<path fill-rule="evenodd" clip-rule="evenodd" d="M5.477 2.46034C5.78262 2.16564 6.19712 2.00008 6.62932 2.00008H9.40562C9.83142 2.00014 10.2403 2.16089 10.5448 2.44794L12.5092 4.30046C12.5092 4.30049 12.5091 4.30043 12.5092 4.30046C12.6644 4.44678 12.7878 4.6216 12.872 4.81451C12.9563 5.00745 12.9997 5.21469 12.9997 5.42403L12.9997 10.4287C12.9997 10.8454 12.828 11.2451 12.5224 11.5398C12.2168 11.8345 11.8023 12.0001 11.3701 12.0001H6.62932C6.19712 12.0001 5.78262 11.8345 5.477 11.5398C5.17139 11.2451 4.99969 10.8454 4.99969 10.4287V3.57151C4.99969 3.15474 5.17139 2.75504 5.477 2.46034ZM6.62932 2.85723C6.43287 2.85723 6.24446 2.93248 6.10554 3.06644C5.96663 3.20039 5.88858 3.38207 5.88858 3.57151V10.4287C5.88858 10.6181 5.96663 10.7998 6.10554 10.9337C6.24446 11.0677 6.43287 11.1429 6.62932 11.1429H11.3701C11.5665 11.1429 11.7549 11.0677 11.8938 10.9337C12.0328 10.7998 12.1108 10.6181 12.1108 10.4287V5.42414C12.1108 5.42412 12.1108 5.42415 12.1108 5.42414C12.1108 5.329 12.0911 5.23477 12.0528 5.14708C12.0145 5.05938 11.9584 4.97994 11.8878 4.91342L9.92334 3.0608C9.78497 2.93033 9.59915 2.85726 9.40562 2.85723C9.4056 2.85723 9.40564 2.85723 9.40562 2.85723H6.62932Z" fill="white"/>
<path fill-rule="evenodd" clip-rule="evenodd" d="M4.62932 5.81827C4.43287 5.81827 4.24446 5.89011 4.10554 6.01797C3.96663 6.14584 3.88858 6.31926 3.88858 6.50009V12.5001C3.88858 12.6809 3.96663 12.8543 4.10554 12.9822C4.24446 13.1101 4.43287 13.1819 4.62932 13.1819H9.37007C9.56652 13.1819 9.75493 13.1101 9.89385 12.9822C10.0328 12.8543 10.1108 12.6809 10.1108 12.5001V12.4092C10.1108 12.1832 10.3098 12.0001 10.5553 12.0001C10.8007 12.0001 10.9997 12.1832 10.9997 12.4092V12.5001C10.9997 12.8979 10.828 13.2794 10.5224 13.5608C10.2168 13.8421 9.80227 14.0001 9.37007 14.0001H4.62932C4.19712 14.0001 3.78262 13.8421 3.477 13.5608C3.17139 13.2794 2.99969 12.8979 2.99969 12.5001V6.50009C2.99969 6.10227 3.17139 5.72074 3.477 5.43943C3.78262 5.15813 4.19712 5.00009 4.62932 5.00009H4.81451C5.05997 5.00009 5.25895 5.18325 5.25895 5.40918C5.25895 5.63512 5.05997 5.81827 4.81451 5.81827H4.62932Z" fill="white"/>
</svg>
