<svg width="10" height="12" viewBox="0 0 10 12" fill="none" xmlns="http://www.w3.org/2000/svg">
<path fill-rule="evenodd" clip-rule="evenodd" d="M2.47731 0.460261C2.78292 0.165561 3.19742 0 3.62963 0H6.40593C6.83172 5.11152e-05 7.24065 0.160802 7.54509 0.447857L9.50948 2.30038C9.50951 2.3004 9.50945 2.30035 9.50948 2.30038C9.66469 2.44669 9.78812 2.62152 9.87233 2.81443C9.95657 3.00737 9.99997 3.2146 10 3.42395L10 8.42857C10 8.84534 9.82831 9.24504 9.52269 9.53974C9.21708 9.83444 8.80258 10 8.37037 10H3.62963C3.19742 10 2.78292 9.83444 2.47731 9.53974C2.17169 9.24504 2 8.84534 2 8.42857V1.57143C2 1.15466 2.17169 0.754961 2.47731 0.460261ZM3.62963 0.857143C3.43317 0.857143 3.24476 0.932398 3.10585 1.06635C2.96693 1.20031 2.88889 1.38199 2.88889 1.57143V8.42857C2.88889 8.61801 2.96693 8.79969 3.10585 8.93365C3.24476 9.0676 3.43317 9.14286 3.62963 9.14286H8.37037C8.56683 9.14286 8.75524 9.0676 8.89415 8.93365C9.03307 8.79969 9.11111 8.61801 9.11111 8.42857V3.42405C9.11111 3.42403 9.11111 3.42407 9.11111 3.42405C9.11109 3.32891 9.09136 3.23468 9.05308 3.147C9.01479 3.05929 8.95872 2.97985 8.88815 2.91334L6.92365 1.06071C6.78528 0.930247 6.59945 0.85718 6.40593 0.857143C6.40591 0.857143 6.40594 0.857143 6.40593 0.857143H3.62963Z" fill="black"/>
<path fill-rule="evenodd" clip-rule="evenodd" d="M1.62963 3.81818C1.43317 3.81818 1.24476 3.89002 1.10585 4.01788C0.966931 4.14575 0.888889 4.31917 0.888889 4.5V10.5C0.888889 10.6808 0.966931 10.8543 1.10585 10.9821C1.24476 11.11 1.43317 11.1818 1.62963 11.1818H6.37037C6.56683 11.1818 6.75524 11.11 6.89415 10.9821C7.03307 10.8543 7.11111 10.6808 7.11111 10.5V10.4091C7.11111 10.1832 7.3101 10 7.55556 10C7.80102 10 8 10.1832 8 10.4091V10.5C8 10.8978 7.82831 11.2794 7.52269 11.5607C7.21708 11.842 6.80258 12 6.37037 12H1.62963C1.19742 12 0.782922 11.842 0.477307 11.5607C0.171693 11.2794 0 10.8978 0 10.5V4.5C0 4.10218 0.171693 3.72064 0.477307 3.43934C0.782922 3.15804 1.19743 3 1.62963 3H1.81481C2.06027 3 2.25926 3.18316 2.25926 3.40909C2.25926 3.63503 2.06027 3.81818 1.81481 3.81818H1.62963Z" fill="black"/>
</svg>
