<svg width="92" height="31" viewBox="0 0 92 31" fill="none" xmlns="http://www.w3.org/2000/svg">
<rect width="92" height="31" rx="15.5" fill="#EFF0F2"/>
<path d="M25.036 20.5V10.7H28.046C29.7727 10.7 31.042 11.1387 31.854 12.016C32.6753 12.8933 33.086 14.0973 33.086 15.628C33.086 17.1307 32.6753 18.3207 31.854 19.198C31.042 20.066 29.7727 20.5 28.046 20.5H25.036ZM26.212 19.52H28.018C28.97 19.52 29.726 19.366 30.286 19.058C30.8553 18.7407 31.2613 18.2927 31.504 17.714C31.7467 17.126 31.868 16.4307 31.868 15.628C31.868 14.8067 31.7467 14.102 31.504 13.514C31.2613 12.926 30.8553 12.4733 30.286 12.156C29.726 11.8387 28.97 11.68 28.018 11.68H26.212V19.52ZM37.878 20.668C37.2247 20.668 36.6367 20.5187 36.114 20.22C35.5914 19.9213 35.176 19.5013 34.868 18.96C34.5694 18.4093 34.42 17.7653 34.42 17.028C34.42 16.2907 34.574 15.6513 34.882 15.11C35.19 14.5593 35.6054 14.1347 36.128 13.836C36.66 13.5373 37.2527 13.388 37.906 13.388C38.5594 13.388 39.1474 13.5373 39.67 13.836C40.1927 14.1347 40.6034 14.5593 40.902 15.11C41.21 15.6513 41.364 16.2907 41.364 17.028C41.364 17.7653 41.21 18.4093 40.902 18.96C40.594 19.5013 40.174 19.9213 39.642 20.22C39.1194 20.5187 38.5314 20.668 37.878 20.668ZM37.878 19.66C38.2794 19.66 38.6527 19.562 38.998 19.366C39.3434 19.17 39.6234 18.876 39.838 18.484C40.0527 18.092 40.16 17.6067 40.16 17.028C40.16 16.4493 40.0527 15.964 39.838 15.572C39.6327 15.18 39.3574 14.886 39.012 14.69C38.6667 14.494 38.298 14.396 37.906 14.396C37.5047 14.396 37.1314 14.494 36.786 14.69C36.4407 14.886 36.1607 15.18 35.946 15.572C35.7314 15.964 35.624 16.4493 35.624 17.028C35.624 17.6067 35.7314 18.092 35.946 18.484C36.1607 18.876 36.436 19.17 36.772 19.366C37.1174 19.562 37.486 19.66 37.878 19.66ZM42.9992 20.5V13.556H44.0632L44.1332 14.802C44.3572 14.3633 44.6792 14.018 45.0992 13.766C45.5192 13.514 45.9952 13.388 46.5272 13.388C47.3485 13.388 48.0019 13.64 48.4872 14.144C48.9819 14.6387 49.2292 15.404 49.2292 16.44V20.5H48.0532V16.566C48.0532 15.1193 47.4559 14.396 46.2612 14.396C45.6639 14.396 45.1645 14.6153 44.7632 15.054C44.3712 15.4833 44.1752 16.0993 44.1752 16.902V20.5H42.9992ZM53.3209 20.668C52.7423 20.668 52.2616 20.57 51.8789 20.374C51.4963 20.178 51.2116 19.9167 51.0249 19.59C50.8383 19.2633 50.7449 18.9087 50.7449 18.526C50.7449 17.8167 51.0156 17.2707 51.5569 16.888C52.0983 16.5053 52.8356 16.314 53.7689 16.314H55.6449V16.23C55.6449 15.6233 55.4863 15.166 55.1689 14.858C54.8516 14.5407 54.4269 14.382 53.8949 14.382C53.4376 14.382 53.0409 14.4987 52.7049 14.732C52.3783 14.956 52.1729 15.2873 52.0889 15.726H50.8849C50.9316 15.222 51.0996 14.7973 51.3889 14.452C51.6876 14.1067 52.0563 13.8453 52.4949 13.668C52.9336 13.4813 53.4003 13.388 53.8949 13.388C54.8656 13.388 55.5936 13.6493 56.0789 14.172C56.5736 14.6853 56.8209 15.3713 56.8209 16.23V20.5H55.7709L55.7009 19.254C55.5049 19.646 55.2156 19.982 54.8329 20.262C54.4596 20.5327 53.9556 20.668 53.3209 20.668ZM53.5029 19.674C53.9509 19.674 54.3336 19.5573 54.6509 19.324C54.9776 19.0907 55.2249 18.7873 55.3929 18.414C55.5609 18.0407 55.6449 17.6487 55.6449 17.238V17.224H53.8669C53.1763 17.224 52.6863 17.3453 52.3969 17.588C52.1169 17.8213 51.9769 18.1153 51.9769 18.47C51.9769 18.834 52.1076 19.128 52.3689 19.352C52.6396 19.5667 53.0176 19.674 53.5029 19.674ZM61.2451 20.668C60.4145 20.668 59.7238 20.458 59.1731 20.038C58.6225 19.618 58.3005 19.0487 58.2071 18.33H59.4111C59.4858 18.694 59.6771 19.0113 59.9851 19.282C60.3025 19.5433 60.7271 19.674 61.2591 19.674C61.7538 19.674 62.1178 19.5713 62.3511 19.366C62.5845 19.1513 62.7011 18.8993 62.7011 18.61C62.7011 18.19 62.5471 17.91 62.2391 17.77C61.9405 17.63 61.5158 17.504 60.9651 17.392C60.5918 17.3173 60.2185 17.21 59.8451 17.07C59.4718 16.93 59.1591 16.734 58.9071 16.482C58.6551 16.2207 58.5291 15.88 58.5291 15.46C58.5291 14.8533 58.7531 14.3587 59.2011 13.976C59.6585 13.584 60.2745 13.388 61.0491 13.388C61.7865 13.388 62.3885 13.5747 62.8551 13.948C63.3311 14.312 63.6065 14.8347 63.6811 15.516H62.5191C62.4725 15.1613 62.3185 14.886 62.0571 14.69C61.8051 14.4847 61.4645 14.382 61.0351 14.382C60.6151 14.382 60.2885 14.4707 60.0551 14.648C59.8311 14.8253 59.7191 15.0587 59.7191 15.348C59.7191 15.628 59.8638 15.8473 60.1531 16.006C60.4518 16.1647 60.8531 16.3 61.3571 16.412C61.7865 16.5053 62.1925 16.622 62.5751 16.762C62.9671 16.8927 63.2845 17.0933 63.5271 17.364C63.7791 17.6253 63.9051 18.008 63.9051 18.512C63.9145 19.1373 63.6765 19.6553 63.1911 20.066C62.7151 20.4673 62.0665 20.668 61.2451 20.668ZM66.2991 12.016C66.0658 12.016 65.8698 11.9413 65.7111 11.792C65.5618 11.6333 65.4871 11.4373 65.4871 11.204C65.4871 10.98 65.5618 10.7933 65.7111 10.644C65.8698 10.4947 66.0658 10.42 66.2991 10.42C66.5231 10.42 66.7145 10.4947 66.8731 10.644C67.0318 10.7933 67.1111 10.98 67.1111 11.204C67.1111 11.4373 67.0318 11.6333 66.8731 11.792C66.7145 11.9413 66.5231 12.016 66.2991 12.016ZM65.7111 20.5V13.556H66.8871V20.5H65.7111Z" fill="#838790"/>
</svg>
