<svg width="116" height="31" viewBox="0 0 116 31" fill="none" xmlns="http://www.w3.org/2000/svg">
<rect width="116" height="31" rx="15.5" fill="#EFF0F2"/>
<path d="M25.036 20.5V10.7H31V11.666H26.212V15.11H30.286V16.062H26.212V20.5H25.036ZM32.4445 20.5V13.556H33.5085L33.6065 14.886C33.8212 14.4287 34.1478 14.0647 34.5865 13.794C35.0252 13.5233 35.5665 13.388 36.2105 13.388V14.62H35.8885C35.4778 14.62 35.0998 14.6947 34.7545 14.844C34.4092 14.984 34.1338 15.2267 33.9285 15.572C33.7232 15.9173 33.6205 16.3933 33.6205 17V20.5H32.4445ZM40.3927 20.668C39.73 20.668 39.142 20.5187 38.6287 20.22C38.1154 19.912 37.7094 19.4873 37.4107 18.946C37.1214 18.4047 36.9767 17.7653 36.9767 17.028C36.9767 16.3 37.1214 15.6653 37.4107 15.124C37.7 14.5733 38.1014 14.1487 38.6147 13.85C39.1374 13.542 39.7394 13.388 40.4207 13.388C41.0927 13.388 41.6714 13.542 42.1567 13.85C42.6514 14.1487 43.0294 14.5453 43.2907 15.04C43.552 15.5347 43.6827 16.0667 43.6827 16.636C43.6827 16.7387 43.678 16.8413 43.6687 16.944C43.6687 17.0467 43.6687 17.1633 43.6687 17.294H38.1387C38.1667 17.826 38.288 18.2693 38.5027 18.624C38.7267 18.9693 39.002 19.2307 39.3287 19.408C39.6647 19.5853 40.0194 19.674 40.3927 19.674C40.878 19.674 41.284 19.562 41.6107 19.338C41.9374 19.114 42.1754 18.8107 42.3247 18.428H43.4867C43.3 19.072 42.9407 19.6087 42.4087 20.038C41.886 20.458 41.214 20.668 40.3927 20.668ZM40.3927 14.382C39.8327 14.382 39.3334 14.5547 38.8947 14.9C38.4654 15.236 38.218 15.7307 38.1527 16.384H42.5207C42.4927 15.7587 42.278 15.2687 41.8767 14.914C41.4754 14.5593 40.9807 14.382 40.3927 14.382ZM48.3634 20.668C47.7007 20.668 47.1127 20.5187 46.5994 20.22C46.0861 19.912 45.6801 19.4873 45.3814 18.946C45.0921 18.4047 44.9474 17.7653 44.9474 17.028C44.9474 16.3 45.0921 15.6653 45.3814 15.124C45.6707 14.5733 46.0721 14.1487 46.5854 13.85C47.1081 13.542 47.7101 13.388 48.3914 13.388C49.0634 13.388 49.6421 13.542 50.1274 13.85C50.6221 14.1487 51.0001 14.5453 51.2614 15.04C51.5227 15.5347 51.6534 16.0667 51.6534 16.636C51.6534 16.7387 51.6487 16.8413 51.6394 16.944C51.6394 17.0467 51.6394 17.1633 51.6394 17.294H46.1094C46.1374 17.826 46.2587 18.2693 46.4734 18.624C46.6974 18.9693 46.9727 19.2307 47.2994 19.408C47.6354 19.5853 47.9901 19.674 48.3634 19.674C48.8487 19.674 49.2547 19.562 49.5814 19.338C49.9081 19.114 50.1461 18.8107 50.2954 18.428H51.4574C51.2707 19.072 50.9114 19.6087 50.3794 20.038C49.8567 20.458 49.1847 20.668 48.3634 20.668ZM48.3634 14.382C47.8034 14.382 47.3041 14.5547 46.8654 14.9C46.4361 15.236 46.1887 15.7307 46.1234 16.384H50.4914C50.4634 15.7587 50.2487 15.2687 49.8474 14.914C49.4461 14.5593 48.9514 14.382 48.3634 14.382ZM53.2121 20.5V10.42H54.3881V20.5H53.2121ZM58.6256 20.668C58.0469 20.668 57.5663 20.57 57.1836 20.374C56.8009 20.178 56.5163 19.9167 56.3296 19.59C56.1429 19.2633 56.0496 18.9087 56.0496 18.526C56.0496 17.8167 56.3203 17.2707 56.8616 16.888C57.4029 16.5053 58.1403 16.314 59.0736 16.314H60.9496V16.23C60.9496 15.6233 60.7909 15.166 60.4736 14.858C60.1563 14.5407 59.7316 14.382 59.1996 14.382C58.7423 14.382 58.3456 14.4987 58.0096 14.732C57.6829 14.956 57.4776 15.2873 57.3936 15.726H56.1896C56.2363 15.222 56.4043 14.7973 56.6936 14.452C56.9923 14.1067 57.3609 13.8453 57.7996 13.668C58.2383 13.4813 58.7049 13.388 59.1996 13.388C60.1703 13.388 60.8983 13.6493 61.3836 14.172C61.8783 14.6853 62.1256 15.3713 62.1256 16.23V20.5H61.0756L61.0056 19.254C60.8096 19.646 60.5203 19.982 60.1376 20.262C59.7643 20.5327 59.2603 20.668 58.6256 20.668ZM58.8076 19.674C59.2556 19.674 59.6383 19.5573 59.9556 19.324C60.2823 19.0907 60.5296 18.7873 60.6976 18.414C60.8656 18.0407 60.9496 17.6487 60.9496 17.238V17.224H59.1716C58.4809 17.224 57.9909 17.3453 57.7016 17.588C57.4216 17.8213 57.2816 18.1153 57.2816 18.47C57.2816 18.834 57.4123 19.128 57.6736 19.352C57.9443 19.5667 58.3223 19.674 58.8076 19.674ZM63.8898 20.5V13.556H64.9538L65.0238 14.802C65.2478 14.3633 65.5698 14.018 65.9898 13.766C66.4098 13.514 66.8858 13.388 67.4178 13.388C68.2392 13.388 68.8925 13.64 69.3778 14.144C69.8725 14.6387 70.1198 15.404 70.1198 16.44V20.5H68.9438V16.566C68.9438 15.1193 68.3465 14.396 67.1518 14.396C66.5545 14.396 66.0552 14.6153 65.6538 15.054C65.2618 15.4833 65.0658 16.0993 65.0658 16.902V20.5H63.8898ZM75.0935 20.668C74.4309 20.668 73.8335 20.5187 73.3015 20.22C72.7789 19.912 72.3635 19.4873 72.0555 18.946C71.7569 18.3953 71.6075 17.756 71.6075 17.028C71.6075 16.3 71.7569 15.6653 72.0555 15.124C72.3635 14.5733 72.7789 14.1487 73.3015 13.85C73.8335 13.542 74.4309 13.388 75.0935 13.388C75.9149 13.388 76.6055 13.6027 77.1655 14.032C77.7349 14.4613 78.0942 15.0353 78.2435 15.754H77.0395C76.9462 15.3247 76.7175 14.9933 76.3535 14.76C75.9895 14.5173 75.5649 14.396 75.0795 14.396C74.6875 14.396 74.3189 14.494 73.9735 14.69C73.6282 14.886 73.3482 15.18 73.1335 15.572C72.9189 15.964 72.8115 16.4493 72.8115 17.028C72.8115 17.6067 72.9189 18.092 73.1335 18.484C73.3482 18.876 73.6282 19.1747 73.9735 19.38C74.3189 19.576 74.6875 19.674 75.0795 19.674C75.5649 19.674 75.9895 19.5573 76.3535 19.324C76.7175 19.0813 76.9462 18.7407 77.0395 18.302H78.2435C78.1035 19.002 77.7489 19.5713 77.1795 20.01C76.6102 20.4487 75.9149 20.668 75.0935 20.668ZM83.0079 20.668C82.3453 20.668 81.7573 20.5187 81.2439 20.22C80.7306 19.912 80.3246 19.4873 80.0259 18.946C79.7366 18.4047 79.5919 17.7653 79.5919 17.028C79.5919 16.3 79.7366 15.6653 80.0259 15.124C80.3153 14.5733 80.7166 14.1487 81.2299 13.85C81.7526 13.542 82.3546 13.388 83.0359 13.388C83.7079 13.388 84.2866 13.542 84.7719 13.85C85.2666 14.1487 85.6446 14.5453 85.9059 15.04C86.1673 15.5347 86.2979 16.0667 86.2979 16.636C86.2979 16.7387 86.2933 16.8413 86.2839 16.944C86.2839 17.0467 86.2839 17.1633 86.2839 17.294H80.7539C80.7819 17.826 80.9033 18.2693 81.1179 18.624C81.3419 18.9693 81.6173 19.2307 81.9439 19.408C82.2799 19.5853 82.6346 19.674 83.0079 19.674C83.4933 19.674 83.8993 19.562 84.2259 19.338C84.5526 19.114 84.7906 18.8107 84.9399 18.428H86.1019C85.9153 19.072 85.5559 19.6087 85.0239 20.038C84.5013 20.458 83.8293 20.668 83.0079 20.668ZM83.0079 14.382C82.4479 14.382 81.9486 14.5547 81.5099 14.9C81.0806 15.236 80.8333 15.7307 80.7679 16.384H85.1359C85.1079 15.7587 84.8933 15.2687 84.4919 14.914C84.0906 14.5593 83.5959 14.382 83.0079 14.382ZM87.8566 20.5V13.556H88.9206L89.0186 14.886C89.2333 14.4287 89.56 14.0647 89.9986 13.794C90.4373 13.5233 90.9786 13.388 91.6226 13.388V14.62H91.3006C90.89 14.62 90.512 14.6947 90.1666 14.844C89.8213 14.984 89.546 15.2267 89.3406 15.572C89.1353 15.9173 89.0326 16.3933 89.0326 17V20.5H87.8566Z" fill="#838790"/>
</svg>
