<svg width="20" height="23" viewBox="0 0 20 23" fill="none" xmlns="http://www.w3.org/2000/svg">
<path d="M19.7442 8.89157L10.2706 0.20735C9.96188 -0.0750392 9.48716 -0.068156 9.18714 0.222893L0.239758 8.90707C0.0865954 9.05574 0 9.26024 0 9.47362V21.9473C0 22.3833 0.353398 22.7368 0.789482 22.7368H7.36841C7.80446 22.7368 8.1579 22.3833 8.1579 21.9473V16.1578H11.8421V21.9473C11.8421 22.3833 12.1955 22.7368 12.6316 22.7368H19.2105C19.6466 22.7368 20 22.3836 20 21.9473V9.47367C20 9.25234 19.9074 9.04131 19.7442 8.89157ZM18.421 21.1579H13.4211V15.3684C13.4211 14.9324 13.0676 14.5789 12.6316 14.5789H7.36846C6.93242 14.5789 6.57898 14.9324 6.57898 15.3684V21.1579H1.57897V9.80761L9.7524 1.87473L18.4211 9.82102V21.1579H18.421Z" fill="black"/>
</svg>
