<svg width="38" height="38" viewBox="0 0 38 38" fill="none" xmlns="http://www.w3.org/2000/svg">
<circle cx="19" cy="19" r="18.75" fill="white" stroke="black" stroke-width="0.5"/>
<g clip-path="url(#clip0)">
<path d="M28.9804 14.8801C28.9336 13.8174 28.7617 13.0868 28.5156 12.4537C28.2616 11.7818 27.8709 11.1801 27.359 10.68C26.8589 10.1721 26.2533 9.77743 25.5891 9.52745C24.9524 9.28127 24.2256 9.10943 23.1629 9.06257C22.0923 9.01175 21.7525 9 19.0371 9C16.3217 9 15.9818 9.01175 14.9152 9.05861C13.8525 9.10546 13.1219 9.27746 12.489 9.52348C11.8169 9.77743 11.2153 10.1681 10.7151 10.68C10.2072 11.1801 9.81271 11.7857 9.56257 12.4499C9.3164 13.0868 9.14455 13.8134 9.0977 14.8761C9.04688 15.9467 9.03513 16.2866 9.03513 19.002C9.03513 21.7173 9.04688 22.0572 9.09373 23.1239C9.14058 24.1865 9.31258 24.9171 9.55876 25.5502C9.81271 26.2221 10.2072 26.8238 10.7151 27.3239C11.2153 27.8318 11.8209 28.2265 12.485 28.4765C13.1219 28.7226 13.8485 28.8945 14.9114 28.9413C15.9779 28.9883 16.3179 28.9999 19.0333 28.9999C21.7486 28.9999 22.0885 28.9883 23.1552 28.9413C24.2178 28.8945 24.9484 28.7226 25.5813 28.4765C26.9254 27.9568 27.9881 26.8941 28.5078 25.5502C28.7538 24.9133 28.9258 24.1865 28.9726 23.1239C29.0195 22.0572 29.0312 21.7173 29.0312 19.002C29.0312 16.2866 29.0273 15.9467 28.9804 14.8801ZM27.1794 23.0457C27.1363 24.0225 26.9723 24.5499 26.8355 24.9015C26.4995 25.7728 25.808 26.4643 24.9367 26.8004C24.585 26.9372 24.0538 27.1012 23.0808 27.1441C22.0259 27.1911 21.7096 27.2027 19.041 27.2027C16.3725 27.2027 16.0522 27.1911 15.0011 27.1441C14.0244 27.1012 13.4969 26.9372 13.1453 26.8004C12.7117 26.6402 12.317 26.3862 11.9967 26.0541C11.6646 25.7298 11.4106 25.3391 11.2504 24.9055C11.1136 24.5539 10.9496 24.0225 10.9067 23.0497C10.8597 21.9948 10.8481 21.6783 10.8481 19.0097C10.8481 16.3412 10.8597 16.0209 10.9067 14.9699C10.9496 13.9932 11.1136 13.4657 11.2504 13.1141C11.4106 12.6804 11.6646 12.2859 12.0006 11.9654C12.3248 11.6333 12.7155 11.3793 13.1492 11.2192C13.5009 11.0825 14.0323 10.9184 15.0051 10.8754C16.06 10.8285 16.3765 10.8168 19.0449 10.8168C21.7174 10.8168 22.0337 10.8285 23.0848 10.8754C24.0616 10.9184 24.589 11.0825 24.9406 11.2192C25.3742 11.3793 25.7689 11.6333 26.0892 11.9654C26.4213 12.2897 26.6753 12.6804 26.8355 13.1141C26.9723 13.4657 27.1363 13.997 27.1794 14.9699C27.2262 16.0248 27.238 16.3412 27.238 19.0097C27.238 21.6783 27.2262 21.9908 27.1794 23.0457Z" fill="black"/>
<path d="M19.0371 13.8643C16.2007 13.8643 13.8994 16.1654 13.8994 19.002C13.8994 21.8385 16.2007 24.1397 19.0371 24.1397C21.8737 24.1397 24.1749 21.8385 24.1749 19.002C24.1749 16.1654 21.8737 13.8643 19.0371 13.8643ZM19.0371 22.3347C17.197 22.3347 15.7044 20.8422 15.7044 19.002C15.7044 17.1617 17.197 15.6693 19.0371 15.6693C20.8774 15.6693 22.3698 17.1617 22.3698 19.002C22.3698 20.8422 20.8774 22.3347 19.0371 22.3347Z" fill="black"/>
<path d="M25.5775 13.6611C25.5775 14.3235 25.0405 14.8605 24.378 14.8605C23.7156 14.8605 23.1785 14.3235 23.1785 13.6611C23.1785 12.9986 23.7156 12.4617 24.378 12.4617C25.0405 12.4617 25.5775 12.9986 25.5775 13.6611Z" fill="black"/>
</g>
<defs>
<clipPath id="clip0">
<rect width="20" height="20" fill="white" transform="translate(9 9)"/>
</clipPath>
</defs>
</svg>
