<svg width="10" height="12" viewBox="0 0 10 12" fill="none" xmlns="http://www.w3.org/2000/svg">
<path fill-rule="evenodd" clip-rule="evenodd" d="M2.477 0.460345C2.78262 0.165645 3.19712 8.39233e-05 3.62932 8.39233e-05H6.40562C6.83142 0.000135039 7.24034 0.160886 7.54479 0.447941L9.50918 2.30046C9.5092 2.30049 9.50915 2.30043 9.50918 2.30046C9.66439 2.44678 9.78781 2.6216 9.87203 2.81451C9.95626 3.00745 9.99967 3.21469 9.99969 3.42403L9.99969 8.42866C9.99969 8.84542 9.828 9.24512 9.52239 9.53982C9.21677 9.83452 8.80227 10.0001 8.37006 10.0001H3.62932C3.19712 10.0001 2.78262 9.83452 2.477 9.53982C2.17139 9.24512 1.99969 8.84542 1.99969 8.42866V1.57151C1.99969 1.15474 2.17139 0.755045 2.477 0.460345ZM3.62932 0.857227C3.43287 0.857227 3.24446 0.932482 3.10554 1.06644C2.96663 1.20039 2.88858 1.38207 2.88858 1.57151V8.42866C2.88858 8.6181 2.96663 8.79978 3.10554 8.93373C3.24446 9.06769 3.43287 9.14294 3.62932 9.14294H8.37006C8.56652 9.14294 8.75493 9.06769 8.89385 8.93373C9.03276 8.79978 9.11081 8.6181 9.11081 8.42866V3.42414C9.11081 3.42412 9.11081 3.42415 9.11081 3.42414C9.11079 3.329 9.09106 3.23477 9.05278 3.14708C9.01449 3.05938 8.95841 2.97994 8.88784 2.91342L6.92334 1.0608C6.78497 0.930331 6.59915 0.857264 6.40562 0.857227C6.4056 0.857227 6.40564 0.857227 6.40562 0.857227H3.62932Z" fill="white"/>
<path fill-rule="evenodd" clip-rule="evenodd" d="M1.62932 3.81827C1.43287 3.81827 1.24446 3.8901 1.10554 4.01797C0.966626 4.14583 0.888584 4.31925 0.888584 4.50008V10.5001C0.888584 10.6809 0.966626 10.8543 1.10554 10.9822C1.24446 11.1101 1.43287 11.1819 1.62932 11.1819H6.37007C6.56652 11.1819 6.75493 11.1101 6.89385 10.9822C7.03276 10.8543 7.11081 10.6809 7.11081 10.5001V10.4092C7.11081 10.1832 7.30979 10.0001 7.55525 10.0001C7.80071 10.0001 7.99969 10.1832 7.99969 10.4092V10.5001C7.99969 10.8979 7.828 11.2794 7.52239 11.5607C7.21677 11.842 6.80227 12.0001 6.37007 12.0001H1.62932C1.19712 12.0001 0.782617 11.842 0.477002 11.5607C0.171387 11.2794 -0.000305176 10.8979 -0.000305176 10.5001V4.50008C-0.000305176 4.10226 0.171387 3.72073 0.477002 3.43942C0.782617 3.15812 1.19712 3.00008 1.62932 3.00008H1.81451C2.05997 3.00008 2.25895 3.18324 2.25895 3.40917C2.25895 3.63511 2.05997 3.81827 1.81451 3.81827H1.62932Z" fill="white"/>
</svg>
