<svg width="38" height="38" viewBox="0 0 38 38" fill="none" xmlns="http://www.w3.org/2000/svg">
<circle cx="19" cy="19" r="19" transform="rotate(180 19 19)" fill="white"/>
<g clip-path="url(#clip0)">
<path d="M15.2113 24.5119C15.2649 24.4733 15.315 24.4301 15.3611 24.3828L23.3105 16.4334L23.2178 16.6873C23.1286 16.937 23.0836 17.2002 23.0848 17.4653L23.0848 21.9238C23.0714 22.4976 23.473 22.9978 24.0361 23.1089C24.6584 23.2051 25.2409 22.7786 25.3371 22.1563C25.3449 22.106 25.3493 22.0553 25.3503 22.0044L25.3503 13.9421C25.3506 13.3124 24.8404 12.8017 24.2107 12.8013C24.2103 12.8013 24.2099 12.8013 24.2094 12.8013L16.1472 12.8013C15.5175 12.8022 15.0077 13.3134 15.0086 13.9431C15.0087 13.9926 15.012 14.0422 15.0185 14.0913C15.1296 14.6544 15.6298 15.056 16.2036 15.0426L20.6621 15.0507C20.8988 15.0508 21.1341 15.0141 21.3594 14.9419L21.7101 14.8088L13.793 22.726C13.3659 23.1225 13.2922 23.7716 13.6197 24.2538C13.9879 24.7646 14.7005 24.8801 15.2113 24.5119Z" fill="black"/>
</g>
<defs>
<clipPath id="clip0">
<rect width="15.9355" height="15.9355" fill="white" transform="translate(30.6453 18.7642) rotate(135)"/>
</clipPath>
</defs>
</svg>
