<svg width="112" height="31" viewBox="0 0 112 31" fill="none" xmlns="http://www.w3.org/2000/svg">
<rect width="112" height="31" rx="15.5" fill="#EFF0F2"/>
<path d="M25.036 20.5V10.7H26.212V15.138L30.3 10.7H31.784L28.144 14.606L31.84 20.5H30.412L27.304 15.516L26.212 16.678V20.5H25.036ZM35.8136 20.668C35.1603 20.668 34.5723 20.5187 34.0496 20.22C33.5269 19.9213 33.1116 19.5013 32.8036 18.96C32.5049 18.4093 32.3556 17.7653 32.3556 17.028C32.3556 16.2907 32.5096 15.6513 32.8176 15.11C33.1256 14.5593 33.5409 14.1347 34.0636 13.836C34.5956 13.5373 35.1883 13.388 35.8416 13.388C36.4949 13.388 37.0829 13.5373 37.6056 13.836C38.1283 14.1347 38.5389 14.5593 38.8376 15.11C39.1456 15.6513 39.2996 16.2907 39.2996 17.028C39.2996 17.7653 39.1456 18.4093 38.8376 18.96C38.5296 19.5013 38.1096 19.9213 37.5776 20.22C37.0549 20.5187 36.4669 20.668 35.8136 20.668ZM35.8136 19.66C36.2149 19.66 36.5883 19.562 36.9336 19.366C37.2789 19.17 37.5589 18.876 37.7736 18.484C37.9883 18.092 38.0956 17.6067 38.0956 17.028C38.0956 16.4493 37.9883 15.964 37.7736 15.572C37.5683 15.18 37.2929 14.886 36.9476 14.69C36.6023 14.494 36.2336 14.396 35.8416 14.396C35.4403 14.396 35.0669 14.494 34.7216 14.69C34.3763 14.886 34.0963 15.18 33.8816 15.572C33.6669 15.964 33.5596 16.4493 33.5596 17.028C33.5596 17.6067 33.6669 18.092 33.8816 18.484C34.0963 18.876 34.3716 19.17 34.7076 19.366C35.0529 19.562 35.4216 19.66 35.8136 19.66ZM40.9348 20.5V13.556H41.9988L42.0688 14.802C42.2928 14.3633 42.6148 14.018 43.0348 13.766C43.4548 13.514 43.9308 13.388 44.4628 13.388C45.2841 13.388 45.9374 13.64 46.4228 14.144C46.9174 14.6387 47.1647 15.404 47.1647 16.44V20.5H45.9888V16.566C45.9888 15.1193 45.3914 14.396 44.1968 14.396C43.5994 14.396 43.1001 14.6153 42.6988 15.054C42.3068 15.4833 42.1108 16.0993 42.1108 16.902V20.5H40.9348ZM51.6065 20.668C50.7758 20.668 50.0851 20.458 49.5345 20.038C48.9838 19.618 48.6618 19.0487 48.5685 18.33H49.7725C49.8471 18.694 50.0385 19.0113 50.3465 19.282C50.6638 19.5433 51.0885 19.674 51.6205 19.674C52.1151 19.674 52.4791 19.5713 52.7125 19.366C52.9458 19.1513 53.0625 18.8993 53.0625 18.61C53.0625 18.19 52.9085 17.91 52.6005 17.77C52.3018 17.63 51.8771 17.504 51.3265 17.392C50.9531 17.3173 50.5798 17.21 50.2065 17.07C49.8331 16.93 49.5205 16.734 49.2685 16.482C49.0165 16.2207 48.8905 15.88 48.8905 15.46C48.8905 14.8533 49.1145 14.3587 49.5625 13.976C50.0198 13.584 50.6358 13.388 51.4105 13.388C52.1478 13.388 52.7498 13.5747 53.2165 13.948C53.6925 14.312 53.9678 14.8347 54.0425 15.516H52.8805C52.8338 15.1613 52.6798 14.886 52.4185 14.69C52.1665 14.4847 51.8258 14.382 51.3965 14.382C50.9765 14.382 50.6498 14.4707 50.4165 14.648C50.1925 14.8253 50.0805 15.0587 50.0805 15.348C50.0805 15.628 50.2251 15.8473 50.5145 16.006C50.8131 16.1647 51.2145 16.3 51.7185 16.412C52.1478 16.5053 52.5538 16.622 52.9365 16.762C53.3285 16.8927 53.6458 17.0933 53.8885 17.364C54.1405 17.6253 54.2665 18.008 54.2665 18.512C54.2758 19.1373 54.0378 19.6553 53.5525 20.066C53.0765 20.4673 52.4278 20.668 51.6065 20.668ZM58.4805 20.668C57.6591 20.668 57.0058 20.4207 56.5205 19.926C56.0351 19.422 55.7925 18.652 55.7925 17.616V13.556H56.9685V17.49C56.9685 18.9367 57.5611 19.66 58.7465 19.66C59.3531 19.66 59.8525 19.4453 60.2445 19.016C60.6458 18.5773 60.8465 17.9567 60.8465 17.154V13.556H62.0225V20.5H60.9585L60.8745 19.254C60.6598 19.6927 60.3378 20.038 59.9085 20.29C59.4885 20.542 59.0125 20.668 58.4805 20.668ZM63.9582 20.5V10.42H65.1342V20.5H63.9582ZM69.8057 20.5C69.171 20.5 68.6717 20.346 68.3077 20.038C67.9437 19.73 67.7617 19.1747 67.7617 18.372V14.55H66.5577V13.556H67.7617L67.9157 11.89H68.9377V13.556H70.9817V14.55H68.9377V18.372C68.9377 18.8107 69.0264 19.1093 69.2037 19.268C69.381 19.4173 69.6937 19.492 70.1417 19.492H70.8697V20.5H69.8057ZM74.7858 20.668C74.2071 20.668 73.7264 20.57 73.3438 20.374C72.9611 20.178 72.6764 19.9167 72.4898 19.59C72.3031 19.2633 72.2098 18.9087 72.2098 18.526C72.2098 17.8167 72.4804 17.2707 73.0218 16.888C73.5631 16.5053 74.3004 16.314 75.2338 16.314H77.1098V16.23C77.1098 15.6233 76.9511 15.166 76.6338 14.858C76.3164 14.5407 75.8918 14.382 75.3598 14.382C74.9024 14.382 74.5058 14.4987 74.1698 14.732C73.8431 14.956 73.6378 15.2873 73.5538 15.726H72.3498C72.3964 15.222 72.5644 14.7973 72.8538 14.452C73.1524 14.1067 73.5211 13.8453 73.9598 13.668C74.3984 13.4813 74.8651 13.388 75.3598 13.388C76.3304 13.388 77.0584 13.6493 77.5438 14.172C78.0384 14.6853 78.2858 15.3713 78.2858 16.23V20.5H77.2358L77.1658 19.254C76.9698 19.646 76.6804 19.982 76.2978 20.262C75.9244 20.5327 75.4204 20.668 74.7858 20.668ZM74.9678 19.674C75.4158 19.674 75.7984 19.5573 76.1158 19.324C76.4424 19.0907 76.6898 18.7873 76.8578 18.414C77.0258 18.0407 77.1098 17.6487 77.1098 17.238V17.224H75.3318C74.6411 17.224 74.1511 17.3453 73.8618 17.588C73.5818 17.8213 73.4418 18.1153 73.4418 18.47C73.4418 18.834 73.5724 19.128 73.8338 19.352C74.1044 19.5667 74.4824 19.674 74.9678 19.674ZM80.05 20.5V13.556H81.114L81.184 14.802C81.408 14.3633 81.73 14.018 82.15 13.766C82.57 13.514 83.046 13.388 83.578 13.388C84.3993 13.388 85.0527 13.64 85.538 14.144C86.0327 14.6387 86.28 15.404 86.28 16.44V20.5H85.104V16.566C85.104 15.1193 84.5067 14.396 83.312 14.396C82.7147 14.396 82.2153 14.6153 81.814 15.054C81.422 15.4833 81.226 16.0993 81.226 16.902V20.5H80.05Z" fill="#838790"/>
</svg>
