<svg width="144" height="31" viewBox="0 0 144 31" fill="none" xmlns="http://www.w3.org/2000/svg">
<rect width="144" height="31" rx="15.5" fill="#EFF0F2"/>
<path d="M25.036 20.5V10.7H26.212V15.138L30.3 10.7H31.784L28.144 14.606L31.84 20.5H30.412L27.304 15.516L26.212 16.678V20.5H25.036ZM35.8136 20.668C35.1603 20.668 34.5723 20.5187 34.0496 20.22C33.5269 19.9213 33.1116 19.5013 32.8036 18.96C32.5049 18.4093 32.3556 17.7653 32.3556 17.028C32.3556 16.2907 32.5096 15.6513 32.8176 15.11C33.1256 14.5593 33.5409 14.1347 34.0636 13.836C34.5956 13.5373 35.1883 13.388 35.8416 13.388C36.4949 13.388 37.0829 13.5373 37.6056 13.836C38.1283 14.1347 38.5389 14.5593 38.8376 15.11C39.1456 15.6513 39.2996 16.2907 39.2996 17.028C39.2996 17.7653 39.1456 18.4093 38.8376 18.96C38.5296 19.5013 38.1096 19.9213 37.5776 20.22C37.0549 20.5187 36.4669 20.668 35.8136 20.668ZM35.8136 19.66C36.2149 19.66 36.5883 19.562 36.9336 19.366C37.2789 19.17 37.5589 18.876 37.7736 18.484C37.9883 18.092 38.0956 17.6067 38.0956 17.028C38.0956 16.4493 37.9883 15.964 37.7736 15.572C37.5683 15.18 37.2929 14.886 36.9476 14.69C36.6023 14.494 36.2336 14.396 35.8416 14.396C35.4403 14.396 35.0669 14.494 34.7216 14.69C34.3763 14.886 34.0963 15.18 33.8816 15.572C33.6669 15.964 33.5596 16.4493 33.5596 17.028C33.5596 17.6067 33.6669 18.092 33.8816 18.484C34.0963 18.876 34.3716 19.17 34.7076 19.366C35.0529 19.562 35.4216 19.66 35.8136 19.66ZM40.9348 20.5V13.556H41.9988L42.0688 14.802C42.2928 14.3633 42.6148 14.018 43.0348 13.766C43.4548 13.514 43.9308 13.388 44.4628 13.388C45.2841 13.388 45.9374 13.64 46.4228 14.144C46.9174 14.6387 47.1647 15.404 47.1647 16.44V20.5H45.9888V16.566C45.9888 15.1193 45.3914 14.396 44.1968 14.396C43.5994 14.396 43.1001 14.6153 42.6988 15.054C42.3068 15.4833 42.1108 16.0993 42.1108 16.902V20.5H40.9348ZM51.6905 20.5C51.0558 20.5 50.5565 20.346 50.1925 20.038C49.8285 19.73 49.6465 19.1747 49.6465 18.372V14.55H48.4425V13.556H49.6465L49.8005 11.89H50.8225V13.556H52.8665V14.55H50.8225V18.372C50.8225 18.8107 50.9111 19.1093 51.0885 19.268C51.2658 19.4173 51.5785 19.492 52.0265 19.492H52.7545V20.5H51.6905ZM57.2911 20.668C56.6285 20.668 56.0405 20.5187 55.5271 20.22C55.0138 19.912 54.6078 19.4873 54.3091 18.946C54.0198 18.4047 53.8751 17.7653 53.8751 17.028C53.8751 16.3 54.0198 15.6653 54.3091 15.124C54.5985 14.5733 54.9998 14.1487 55.5131 13.85C56.0358 13.542 56.6378 13.388 57.3191 13.388C57.9911 13.388 58.5698 13.542 59.0551 13.85C59.5498 14.1487 59.9278 14.5453 60.1891 15.04C60.4505 15.5347 60.5811 16.0667 60.5811 16.636C60.5811 16.7387 60.5765 16.8413 60.5671 16.944C60.5671 17.0467 60.5671 17.1633 60.5671 17.294H55.0371C55.0651 17.826 55.1865 18.2693 55.4011 18.624C55.6251 18.9693 55.9005 19.2307 56.2271 19.408C56.5631 19.5853 56.9178 19.674 57.2911 19.674C57.7765 19.674 58.1825 19.562 58.5091 19.338C58.8358 19.114 59.0738 18.8107 59.2231 18.428H60.3851C60.1985 19.072 59.8391 19.6087 59.3071 20.038C58.7845 20.458 58.1125 20.668 57.2911 20.668ZM57.2911 14.382C56.7311 14.382 56.2318 14.5547 55.7931 14.9C55.3638 15.236 55.1165 15.7307 55.0511 16.384H59.4191C59.3911 15.7587 59.1765 15.2687 58.7751 14.914C58.3738 14.5593 57.8791 14.382 57.2911 14.382ZM62.1398 20.5V13.556H63.2038L63.2738 14.802C63.4978 14.3633 63.8198 14.018 64.2398 13.766C64.6598 13.514 65.1358 13.388 65.6678 13.388C66.4892 13.388 67.1425 13.64 67.6278 14.144C68.1225 14.6387 68.3698 15.404 68.3698 16.44V20.5H67.1938V16.566C67.1938 15.1193 66.5965 14.396 65.4018 14.396C64.8045 14.396 64.3052 14.6153 63.9038 15.054C63.5118 15.4833 63.3158 16.0993 63.3158 16.902V20.5H62.1398ZM73.9266 20.5V10.7H75.1026V15.138L79.1906 10.7H80.6746L77.0346 14.606L80.7306 20.5H79.3026L76.1946 15.516L75.1026 16.678V20.5H73.9266ZM82.0051 20.5V13.556H83.0691L83.1671 14.886C83.3817 14.4287 83.7084 14.0647 84.1471 13.794C84.5857 13.5233 85.1271 13.388 85.7711 13.388V14.62H85.4491C85.0384 14.62 84.6604 14.6947 84.3151 14.844C83.9697 14.984 83.6944 15.2267 83.4891 15.572C83.2837 15.9173 83.1811 16.3933 83.1811 17V20.5H82.0051ZM89.9532 20.668C89.2906 20.668 88.7026 20.5187 88.1892 20.22C87.6759 19.912 87.2699 19.4873 86.9712 18.946C86.6819 18.4047 86.5372 17.7653 86.5372 17.028C86.5372 16.3 86.6819 15.6653 86.9712 15.124C87.2606 14.5733 87.6619 14.1487 88.1752 13.85C88.6979 13.542 89.2999 13.388 89.9812 13.388C90.6532 13.388 91.2319 13.542 91.7172 13.85C92.2119 14.1487 92.5899 14.5453 92.8512 15.04C93.1126 15.5347 93.2432 16.0667 93.2432 16.636C93.2432 16.7387 93.2386 16.8413 93.2292 16.944C93.2292 17.0467 93.2292 17.1633 93.2292 17.294H87.6992C87.7272 17.826 87.8486 18.2693 88.0632 18.624C88.2872 18.9693 88.5626 19.2307 88.8892 19.408C89.2252 19.5853 89.5799 19.674 89.9532 19.674C90.4386 19.674 90.8446 19.562 91.1712 19.338C91.4979 19.114 91.7359 18.8107 91.8852 18.428H93.0472C92.8606 19.072 92.5012 19.6087 91.9692 20.038C91.4466 20.458 90.7746 20.668 89.9532 20.668ZM89.9532 14.382C89.3932 14.382 88.8939 14.5547 88.4552 14.9C88.0259 15.236 87.7786 15.7307 87.7132 16.384H92.0812C92.0532 15.7587 91.8386 15.2687 91.4372 14.914C91.0359 14.5593 90.5412 14.382 89.9532 14.382ZM97.1119 20.668C96.5333 20.668 96.0526 20.57 95.6699 20.374C95.2873 20.178 95.0026 19.9167 94.8159 19.59C94.6293 19.2633 94.5359 18.9087 94.5359 18.526C94.5359 17.8167 94.8066 17.2707 95.3479 16.888C95.8893 16.5053 96.6266 16.314 97.5599 16.314H99.4359V16.23C99.4359 15.6233 99.2773 15.166 98.9599 14.858C98.6426 14.5407 98.2179 14.382 97.6859 14.382C97.2286 14.382 96.8319 14.4987 96.4959 14.732C96.1693 14.956 95.9639 15.2873 95.8799 15.726H94.6759C94.7226 15.222 94.8906 14.7973 95.1799 14.452C95.4786 14.1067 95.8473 13.8453 96.2859 13.668C96.7246 13.4813 97.1913 13.388 97.6859 13.388C98.6566 13.388 99.3846 13.6493 99.8699 14.172C100.365 14.6853 100.612 15.3713 100.612 16.23V20.5H99.5619L99.4919 19.254C99.2959 19.646 99.0066 19.982 98.6239 20.262C98.2506 20.5327 97.7466 20.668 97.1119 20.668ZM97.2939 19.674C97.7419 19.674 98.1246 19.5573 98.4419 19.324C98.7686 19.0907 99.0159 18.7873 99.1839 18.414C99.3519 18.0407 99.4359 17.6487 99.4359 17.238V17.224H97.6579C96.9673 17.224 96.4773 17.3453 96.1879 17.588C95.9079 17.8213 95.7679 18.1153 95.7679 18.47C95.7679 18.834 95.8986 19.128 96.1599 19.352C96.4306 19.5667 96.8086 19.674 97.2939 19.674ZM104.929 20.5C104.294 20.5 103.795 20.346 103.431 20.038C103.067 19.73 102.885 19.1747 102.885 18.372V14.55H101.681V13.556H102.885L103.039 11.89H104.061V13.556H106.105V14.55H104.061V18.372C104.061 18.8107 104.149 19.1093 104.327 19.268C104.504 19.4173 104.817 19.492 105.265 19.492H105.993V20.5H104.929ZM110.571 20.668C109.918 20.668 109.33 20.5187 108.807 20.22C108.285 19.9213 107.869 19.5013 107.561 18.96C107.263 18.4093 107.113 17.7653 107.113 17.028C107.113 16.2907 107.267 15.6513 107.575 15.11C107.883 14.5593 108.299 14.1347 108.821 13.836C109.353 13.5373 109.946 13.388 110.599 13.388C111.253 13.388 111.841 13.5373 112.363 13.836C112.886 14.1347 113.297 14.5593 113.595 15.11C113.903 15.6513 114.057 16.2907 114.057 17.028C114.057 17.7653 113.903 18.4093 113.595 18.96C113.287 19.5013 112.867 19.9213 112.335 20.22C111.813 20.5187 111.225 20.668 110.571 20.668ZM110.571 19.66C110.973 19.66 111.346 19.562 111.691 19.366C112.037 19.17 112.317 18.876 112.531 18.484C112.746 18.092 112.853 17.6067 112.853 17.028C112.853 16.4493 112.746 15.964 112.531 15.572C112.326 15.18 112.051 14.886 111.705 14.69C111.36 14.494 110.991 14.396 110.599 14.396C110.198 14.396 109.825 14.494 109.479 14.69C109.134 14.886 108.854 15.18 108.639 15.572C108.425 15.964 108.317 16.4493 108.317 17.028C108.317 17.6067 108.425 18.092 108.639 18.484C108.854 18.876 109.129 19.17 109.465 19.366C109.811 19.562 110.179 19.66 110.571 19.66ZM115.693 20.5V13.556H116.757L116.855 14.886C117.069 14.4287 117.396 14.0647 117.835 13.794C118.273 13.5233 118.815 13.388 119.459 13.388V14.62H119.137C118.726 14.62 118.348 14.6947 118.003 14.844C117.657 14.984 117.382 15.2267 117.177 15.572C116.971 15.9173 116.869 16.3933 116.869 17V20.5H115.693Z" fill="#838790"/>
</svg>
