<svg width="95" height="31" viewBox="0 0 95 31" fill="none" xmlns="http://www.w3.org/2000/svg">
<rect width="95" height="31" rx="15.5" fill="#EFF0F2"/>
<path d="M25.036 20.5V10.7H26.212V15.138L30.3 10.7H31.784L28.144 14.606L31.84 20.5H30.412L27.304 15.516L26.212 16.678V20.5H25.036ZM33.1144 20.5V13.556H34.1784L34.2764 14.886C34.4911 14.4287 34.8178 14.0647 35.2564 13.794C35.6951 13.5233 36.2364 13.388 36.8804 13.388V14.62H36.5584C36.1478 14.62 35.7698 14.6947 35.4244 14.844C35.0791 14.984 34.8038 15.2267 34.5984 15.572C34.3931 15.9173 34.2904 16.3933 34.2904 17V20.5H33.1144ZM41.0626 20.668C40.3999 20.668 39.8119 20.5187 39.2986 20.22C38.7853 19.912 38.3793 19.4873 38.0806 18.946C37.7913 18.4047 37.6466 17.7653 37.6466 17.028C37.6466 16.3 37.7913 15.6653 38.0806 15.124C38.3699 14.5733 38.7713 14.1487 39.2846 13.85C39.8073 13.542 40.4093 13.388 41.0906 13.388C41.7626 13.388 42.3413 13.542 42.8266 13.85C43.3213 14.1487 43.6993 14.5453 43.9606 15.04C44.2219 15.5347 44.3526 16.0667 44.3526 16.636C44.3526 16.7387 44.3479 16.8413 44.3386 16.944C44.3386 17.0467 44.3386 17.1633 44.3386 17.294H38.8086C38.8366 17.826 38.9579 18.2693 39.1726 18.624C39.3966 18.9693 39.6719 19.2307 39.9986 19.408C40.3346 19.5853 40.6893 19.674 41.0626 19.674C41.5479 19.674 41.9539 19.562 42.2806 19.338C42.6073 19.114 42.8453 18.8107 42.9946 18.428H44.1566C43.9699 19.072 43.6106 19.6087 43.0786 20.038C42.5559 20.458 41.8839 20.668 41.0626 20.668ZM41.0626 14.382C40.5026 14.382 40.0033 14.5547 39.5646 14.9C39.1353 15.236 38.8879 15.7307 38.8226 16.384H43.1906C43.1626 15.7587 42.9479 15.2687 42.5466 14.914C42.1453 14.5593 41.6506 14.382 41.0626 14.382ZM48.2213 20.668C47.6426 20.668 47.162 20.57 46.7793 20.374C46.3966 20.178 46.112 19.9167 45.9253 19.59C45.7386 19.2633 45.6453 18.9087 45.6453 18.526C45.6453 17.8167 45.916 17.2707 46.4573 16.888C46.9986 16.5053 47.736 16.314 48.6693 16.314H50.5453V16.23C50.5453 15.6233 50.3866 15.166 50.0693 14.858C49.752 14.5407 49.3273 14.382 48.7953 14.382C48.338 14.382 47.9413 14.4987 47.6053 14.732C47.2786 14.956 47.0733 15.2873 46.9893 15.726H45.7853C45.832 15.222 46 14.7973 46.2893 14.452C46.588 14.1067 46.9566 13.8453 47.3953 13.668C47.834 13.4813 48.3006 13.388 48.7953 13.388C49.766 13.388 50.494 13.6493 50.9793 14.172C51.474 14.6853 51.7213 15.3713 51.7213 16.23V20.5H50.6713L50.6013 19.254C50.4053 19.646 50.116 19.982 49.7333 20.262C49.36 20.5327 48.856 20.668 48.2213 20.668ZM48.4033 19.674C48.8513 19.674 49.234 19.5573 49.5513 19.324C49.878 19.0907 50.1253 18.7873 50.2933 18.414C50.4613 18.0407 50.5453 17.6487 50.5453 17.238V17.224H48.7673C48.0766 17.224 47.5866 17.3453 47.2973 17.588C47.0173 17.8213 46.8773 18.1153 46.8773 18.47C46.8773 18.834 47.008 19.128 47.2693 19.352C47.54 19.5667 47.918 19.674 48.4033 19.674ZM56.0381 20.5C55.4035 20.5 54.9041 20.346 54.5401 20.038C54.1761 19.73 53.9941 19.1747 53.9941 18.372V14.55H52.7901V13.556H53.9941L54.1481 11.89H55.1701V13.556H57.2141V14.55H55.1701V18.372C55.1701 18.8107 55.2588 19.1093 55.4361 19.268C55.6135 19.4173 55.9261 19.492 56.3741 19.492H57.1021V20.5H56.0381ZM61.6808 20.668C61.0274 20.668 60.4394 20.5187 59.9168 20.22C59.3941 19.9213 58.9788 19.5013 58.6708 18.96C58.3721 18.4093 58.2228 17.7653 58.2228 17.028C58.2228 16.2907 58.3768 15.6513 58.6848 15.11C58.9928 14.5593 59.4081 14.1347 59.9308 13.836C60.4628 13.5373 61.0554 13.388 61.7088 13.388C62.3621 13.388 62.9501 13.5373 63.4728 13.836C63.9954 14.1347 64.4061 14.5593 64.7048 15.11C65.0128 15.6513 65.1668 16.2907 65.1668 17.028C65.1668 17.7653 65.0128 18.4093 64.7048 18.96C64.3968 19.5013 63.9768 19.9213 63.4448 20.22C62.9221 20.5187 62.3341 20.668 61.6808 20.668ZM61.6808 19.66C62.0821 19.66 62.4554 19.562 62.8008 19.366C63.1461 19.17 63.4261 18.876 63.6408 18.484C63.8554 18.092 63.9628 17.6067 63.9628 17.028C63.9628 16.4493 63.8554 15.964 63.6408 15.572C63.4354 15.18 63.1601 14.886 62.8148 14.69C62.4694 14.494 62.1008 14.396 61.7088 14.396C61.3074 14.396 60.9341 14.494 60.5888 14.69C60.2434 14.886 59.9634 15.18 59.7488 15.572C59.5341 15.964 59.4268 16.4493 59.4268 17.028C59.4268 17.6067 59.5341 18.092 59.7488 18.484C59.9634 18.876 60.2388 19.17 60.5748 19.366C60.9201 19.562 61.2888 19.66 61.6808 19.66ZM66.8019 20.5V13.556H67.8659L67.9639 14.886C68.1786 14.4287 68.5053 14.0647 68.9439 13.794C69.3826 13.5233 69.9239 13.388 70.5679 13.388V14.62H70.2459C69.8353 14.62 69.4573 14.6947 69.1119 14.844C68.7666 14.984 68.4913 15.2267 68.2859 15.572C68.0806 15.9173 67.9779 16.3933 67.9779 17V20.5H66.8019Z" fill="#838790"/>
</svg>
