<svg width="171" height="171" viewBox="0 0 171 171" fill="none" xmlns="http://www.w3.org/2000/svg">
<path fill-rule="evenodd" clip-rule="evenodd" d="M110.658 65.6856C111.156 66.182 111.551 66.7717 111.82 67.4209C112.089 68.0702 112.228 68.7661 112.228 69.469C112.228 70.1719 112.089 70.8679 111.82 71.5171C111.551 72.1663 111.156 72.756 110.658 73.2524L78.5955 105.315C78.0992 105.813 77.5095 106.207 76.8603 106.477C76.211 106.746 75.5151 106.885 74.8122 106.885C74.1093 106.885 73.4133 106.746 72.7641 106.477C72.1149 106.207 71.5252 105.813 71.0288 105.315L54.9975 89.2836C54.5007 88.7868 54.1066 88.197 53.8377 87.5478C53.5688 86.8987 53.4304 86.2029 53.4304 85.5003C53.4304 84.7976 53.5688 84.1019 53.8377 83.4527C54.1066 82.8036 54.5007 82.2137 54.9975 81.7169C55.4944 81.2201 56.0842 80.8259 56.7334 80.5571C57.3825 80.2882 58.0783 80.1498 58.7809 80.1498C59.4836 80.1498 60.1793 80.2882 60.8285 80.5571C61.4776 80.8259 62.0675 81.2201 62.5643 81.7169L74.8122 93.9755L103.091 65.6856C103.588 65.188 104.177 64.7932 104.827 64.5238C105.476 64.2544 106.172 64.1157 106.875 64.1157C107.578 64.1157 108.274 64.2544 108.923 64.5238C109.572 64.7932 110.162 65.188 110.658 65.6856Z" fill="black"/>
<path d="M109.792 26.8574L99.9484 16.7684L107.59 9.30851L114.238 16.1165L123.749 15.9989C127.867 15.9502 131.952 16.7252 135.766 18.2784C139.579 19.8316 143.044 22.1317 145.955 25.0433C148.867 27.9549 151.167 31.4193 152.72 35.2328C154.273 39.0462 155.048 43.1318 155 47.2491L154.893 56.761L161.69 63.4086C164.634 66.2854 166.973 69.7216 168.57 73.5153C170.168 77.3089 170.99 81.3836 170.99 85.4997C170.99 89.6159 170.168 93.6905 168.57 97.4842C166.973 101.278 164.634 104.714 161.69 107.591L154.882 114.238L155 123.75C155.048 127.868 154.273 131.953 152.72 135.767C151.167 139.58 148.867 143.045 145.955 145.956C143.044 148.868 139.579 151.168 135.766 152.721C131.952 154.274 127.867 155.049 123.749 155.001L114.238 154.894L107.59 161.691C104.713 164.635 101.277 166.974 97.4833 168.571C93.6896 170.168 89.615 170.991 85.4988 170.991C81.3827 170.991 77.3081 170.168 73.5144 168.571C69.7207 166.974 66.2845 164.635 63.4078 161.691L56.7602 154.883L47.2483 155.001C43.1309 155.049 39.0454 154.274 35.2319 152.721C31.4185 151.168 27.954 148.868 25.0424 145.956C22.1308 143.045 19.8308 139.58 18.2776 135.767C16.7243 131.953 15.9493 127.868 15.998 123.75L16.1049 114.238L9.30766 107.591C6.36368 104.714 4.02441 101.278 2.42729 97.4842C0.830177 93.6905 0.00744629 89.6159 0.00744629 85.4997C0.00744629 81.3836 0.830177 77.3089 2.42729 73.5153C4.02441 69.7216 6.36368 66.2854 9.30766 63.4086L16.1156 56.761L15.998 47.2491C15.9493 43.1318 16.7243 39.0462 18.2776 35.2328C19.8308 31.4193 22.1308 27.9549 25.0424 25.0433C27.954 22.1317 31.4185 19.8316 35.2319 18.2784C39.0454 16.7252 43.1309 15.9502 47.2483 15.9989L56.7602 16.1058L63.4078 9.30851C66.2845 6.36454 69.7207 4.02526 73.5144 2.42815C77.3081 0.831032 81.3827 0.00830078 85.4988 0.00830078C89.615 0.00830078 93.6896 0.831032 97.4833 2.42815C101.277 4.02526 104.713 6.36454 107.59 9.30851L99.9484 16.7684C98.0669 14.8424 95.8195 13.3119 93.338 12.267C90.8566 11.2221 88.1913 10.6838 85.4988 10.6838C82.8064 10.6838 80.1411 11.2221 77.6597 12.267C75.1783 13.3119 72.9308 14.8424 71.0493 16.7684L61.2169 26.8574L47.1093 26.6864C44.418 26.6563 41.7478 27.1644 39.2556 28.1808C36.7633 29.1972 34.4994 30.7014 32.5967 32.6051C30.694 34.5088 29.1909 36.7736 28.1758 39.2663C27.1607 41.7591 26.654 44.4296 26.6855 47.1209L26.8565 61.207L16.7675 71.0502C14.8415 72.9316 13.311 75.1791 12.2661 77.6605C11.2212 80.142 10.6829 82.8073 10.6829 85.4997C10.6829 88.1922 11.2212 90.8575 12.2661 93.3389C13.311 95.8203 14.8415 98.0678 16.7675 99.9492L26.8565 109.782L26.6855 123.889C26.6554 126.581 27.1635 129.251 28.1799 131.743C29.1963 134.235 30.7006 136.499 32.6043 138.402C34.508 140.305 36.7727 141.808 39.2655 142.823C41.7582 143.838 44.4287 144.345 47.12 144.313L61.2062 144.142L71.0493 154.231C72.9308 156.157 75.1783 157.688 77.6597 158.732C80.1411 159.777 82.8064 160.316 85.4988 160.316C88.1913 160.316 90.8566 159.777 93.338 158.732C95.8195 157.688 98.0669 156.157 99.9484 154.231L109.781 144.142L123.888 144.313C126.58 144.343 129.25 143.835 131.742 142.819C134.234 141.802 136.498 140.298 138.401 138.394C140.304 136.491 141.807 134.226 142.822 131.733C143.837 129.24 144.344 126.57 144.312 123.879L144.141 109.792L154.23 99.9492C156.156 98.0678 157.687 95.8203 158.732 93.3389C159.776 90.8575 160.315 88.1922 160.315 85.4997C160.315 82.8073 159.776 80.142 158.732 77.6605C157.687 75.1791 156.156 72.9316 154.23 71.0502L144.141 61.2177L144.312 47.1102C144.342 44.4189 143.834 41.7486 142.818 39.2564C141.801 36.7642 140.297 34.5002 138.393 32.5975C136.49 30.6948 134.225 29.1918 131.732 28.1767C129.239 27.1616 126.569 26.6549 123.878 26.6864L109.792 26.8574Z" fill="black"/>
</svg>
