<svg width="114" height="36" viewBox="0 0 114 36" fill="none" xmlns="http://www.w3.org/2000/svg">
<path d="M37.3215 14.0451C37.0194 13.2604 36.59 12.5698 36.0334 11.9891C35.4928 11.4085 34.8408 10.9376 34.0934 10.608C33.346 10.2628 32.5192 10.1058 31.6287 10.1058C30.8495 10.1058 30.1498 10.2 29.5455 10.3726C28.9412 10.561 28.4006 10.8592 27.9076 11.2829L27.7963 11.0946L24.441 19.4125V27.6519H27.9076V21.6724C28.2893 22.0648 28.8299 22.3944 29.5137 22.6455C30.1975 22.8966 30.8972 23.0221 31.6287 23.0221C32.5192 23.0221 33.346 22.8495 34.0934 22.5199C34.8408 22.1746 35.4928 21.7195 36.0334 21.1388C36.5741 20.5581 37.0035 19.8676 37.3215 19.0829C37.6236 18.2982 37.7826 17.4507 37.7826 16.5718C37.7826 15.6616 37.6236 14.8298 37.3215 14.0451ZM34.1729 17.9058C33.998 18.3139 33.7595 18.6748 33.4733 18.9887C33.1711 19.3026 32.8372 19.538 32.4396 19.7264C32.0421 19.9147 31.6287 19.9932 31.1675 19.9932C30.7222 19.9932 30.2929 19.9147 29.8954 19.7891C29.4978 19.6479 29.1639 19.4282 28.8617 19.1457C28.5755 18.8475 28.337 18.5022 28.178 18.0785C28.003 17.6547 27.9235 17.1525 27.9235 16.5718C27.9235 15.9598 28.003 15.4418 28.178 15.0024C28.337 14.563 28.5755 14.202 28.8617 13.9352C29.148 13.6684 29.4978 13.4644 29.8954 13.3388C30.2929 13.2133 30.7063 13.1505 31.1675 13.1505C31.6128 13.1505 32.0421 13.2447 32.4396 13.4173C32.8372 13.6056 33.1711 13.841 33.4733 14.1549C33.7595 14.4688 33.998 14.8298 34.1729 15.2535C34.3479 15.6773 34.4433 16.1167 34.4433 16.5875C34.4433 17.0427 34.3479 17.4821 34.1729 17.9058Z" fill="#21242B"/>
<path d="M49.3114 10.4354L48.9616 11.6439C48.5322 11.0946 47.9757 10.7022 47.3078 10.4511C46.6399 10.2 45.8925 10.0745 45.0974 10.0745C44.2069 10.0745 43.396 10.2471 42.6486 10.5767C41.9012 10.9219 41.2492 11.3771 40.7085 11.9578C40.152 12.5384 39.7226 13.229 39.4205 14.0137C39.1025 14.7984 38.9594 15.6459 38.9594 16.5248C38.9594 17.4193 39.1184 18.2511 39.4205 19.0358C39.7385 19.8205 40.1679 20.5111 40.7085 21.0918C41.2651 21.6724 41.9171 22.1433 42.6486 22.4729C43.396 22.8181 44.2069 22.9751 45.0974 22.9751C45.8289 22.9751 46.5445 22.8652 47.2283 22.6455C47.9121 22.4258 48.4845 22.002 48.9775 21.3586L49.3273 22.6769H52.3169V10.4354H49.3114ZM47.8803 19.1457C47.2442 19.695 46.4809 19.9775 45.5745 19.9775C45.1293 19.9775 44.6999 19.8833 44.3024 19.7107C43.9048 19.5223 43.555 19.2869 43.2528 18.9731C42.9507 18.6592 42.7122 18.3139 42.5532 17.8902C42.3782 17.4821 42.2987 17.027 42.2987 16.5562C42.2987 16.101 42.3782 15.6459 42.5532 15.2221C42.7281 14.7984 42.9507 14.4374 43.2528 14.1236C43.555 13.8097 43.9048 13.5743 44.3024 13.3859C44.6999 13.1976 45.1133 13.1191 45.5745 13.1191C46.0198 13.1191 46.4491 13.1819 46.8466 13.3075C47.2442 13.433 47.5781 13.637 47.8803 13.9038C48.1665 14.1706 48.405 14.5316 48.5799 14.971C48.7549 15.4105 48.8503 15.9441 48.8503 16.6032C48.8185 17.7489 48.5004 18.5964 47.8803 19.1457Z" fill="#21242B"/>
<path d="M63.7662 10.4354L60.8243 16.8543L57.5804 10.4354H53.7162L58.9956 20.872L55.9107 27.6362H59.6953L67.5667 10.4197H63.7662V10.4354Z" fill="#21242B"/>
<path d="M78.7775 10.4354L78.2686 11.377C77.8234 10.9376 77.2668 10.608 76.6307 10.404C75.9947 10.1999 75.2791 10.0901 74.4999 10.0901C73.6571 10.0901 72.8938 10.247 72.1782 10.5766C71.4627 10.8905 70.8425 11.3456 70.3336 11.8949C69.8089 12.4442 69.4113 13.1034 69.1092 13.841C68.823 14.5786 68.6639 15.379 68.6639 16.2265C68.6639 17.074 68.8071 17.8744 69.1092 18.612C69.4113 19.3653 69.8089 20.0245 70.3336 20.5738C70.8584 21.1231 71.4627 21.5625 72.1782 21.8921C72.8938 22.206 73.6571 22.3786 74.4999 22.3786C75.2632 22.3786 75.947 22.2531 76.583 21.9863C77.2191 21.7352 77.7757 21.3899 78.2686 20.9504V21.2016C78.2686 21.8764 78.1573 22.4571 77.9506 22.9279C77.7439 23.3987 77.4576 23.7911 77.0919 24.105C76.7261 24.4189 76.3127 24.6543 75.8197 24.7798C75.3268 24.9211 74.8179 24.9838 74.2614 24.9838C73.8479 24.9838 73.4345 24.9525 73.021 24.874C72.6076 24.7955 72.2259 24.7013 71.8602 24.5601C71.4945 24.4189 71.1764 24.2619 70.9061 24.0893C70.6358 23.9009 70.4131 23.6969 70.27 23.4615V26.6631C70.8743 27.0084 71.5581 27.2909 72.3054 27.4792C73.0687 27.6832 73.8638 27.7774 74.7225 27.7774C75.7243 27.7774 76.6784 27.6519 77.6007 27.385C78.5071 27.1182 79.334 26.6317 80.0814 25.9255C80.479 25.5331 80.797 25.0937 81.0196 24.6386C81.2422 24.1834 81.4172 23.6498 81.5126 23.0692C81.608 22.4885 81.6716 21.8136 81.7034 21.0917C81.7352 20.3541 81.7352 19.5223 81.7352 18.5806V10.4354H78.7775ZM78.0937 17.3094C77.9824 17.6704 77.7916 17.9999 77.5371 18.2981C77.2827 18.5963 76.9647 18.8317 76.583 19.0358C76.2014 19.2241 75.7402 19.3183 75.1996 19.3183C74.7702 19.3183 74.3568 19.2398 73.991 19.0828C73.6253 18.9259 73.3073 18.7062 73.021 18.4237C72.7507 18.1412 72.5281 17.8116 72.3691 17.4506C72.21 17.0897 72.1305 16.6816 72.1305 16.2422C72.1305 15.8185 72.21 15.4104 72.3691 15.0337C72.5281 14.6571 72.7507 14.3275 73.021 14.0607C73.2914 13.7782 73.6253 13.5585 73.991 13.3859C74.3568 13.2289 74.7702 13.1348 75.1996 13.1348C75.7243 13.1348 76.1696 13.2289 76.5512 13.4016C76.9329 13.5899 77.2509 13.8253 77.5053 14.1078C77.7598 14.3903 77.9506 14.7199 78.0778 15.0965C78.205 15.4732 78.2686 15.8498 78.2686 16.2265C78.2686 16.5875 78.205 16.9327 78.0937 17.3094Z" fill="#21242B"/>
<path d="M91.7852 10.4354V17.639C91.7852 18 91.7057 18.3139 91.5626 18.5807C91.4036 18.8475 91.2127 19.0672 90.9901 19.2242C90.7675 19.3811 90.5131 19.5067 90.2586 19.5851C90.0042 19.6636 89.7657 19.695 89.543 19.695C89.2568 19.695 88.9865 19.6636 88.7161 19.5851C88.4458 19.5067 88.2073 19.3968 88.0006 19.2399C87.7938 19.0829 87.6189 18.8789 87.4917 18.6121C87.3645 18.3453 87.3009 18.0314 87.3009 17.639V10.4354H83.8343V17.7803C83.8343 18.8004 84.0092 19.6479 84.3431 20.2914C84.693 20.9348 85.1064 21.437 85.6153 21.798C86.1242 22.159 86.6648 22.4101 87.2373 22.5356C87.8097 22.6612 88.3345 22.7397 88.7798 22.7397C89.3681 22.7397 89.9088 22.6612 90.4176 22.4729C90.9265 22.3002 91.3877 22.0805 91.7852 21.798L92.2941 22.7397H95.2677V10.4354H91.7852Z" fill="#21242B"/>
<path d="M107.592 10.4354L107.242 11.6439C106.812 11.0946 106.256 10.7022 105.588 10.4511C104.92 10.2 104.189 10.0745 103.378 10.0745C102.487 10.0745 101.676 10.2471 100.929 10.5767C100.181 10.9219 99.5293 11.3771 98.9886 11.9578C98.448 12.5384 98.0027 13.229 97.7006 14.0137C97.3826 14.7984 97.2394 15.6459 97.2394 16.5248C97.2394 17.4193 97.3985 18.2511 97.7006 19.0358C98.0186 19.8205 98.448 20.5111 98.9886 21.0918C99.5293 21.6724 100.197 22.1433 100.929 22.4729C101.676 22.8181 102.487 22.9751 103.378 22.9751C104.109 22.9751 104.825 22.8652 105.508 22.6455C106.192 22.4258 106.765 22.002 107.258 21.3586L107.607 22.6769H110.597V10.4354H107.592ZM106.16 19.1457C105.524 19.695 104.761 19.9775 103.855 19.9775C103.409 19.9775 102.98 19.8833 102.582 19.7107C102.185 19.5223 101.835 19.2869 101.533 18.9731C101.231 18.6592 100.992 18.3139 100.833 17.8902C100.658 17.4821 100.579 17.027 100.579 16.5562C100.579 16.101 100.658 15.6459 100.833 15.2221C101.008 14.7984 101.231 14.4374 101.533 14.1236C101.835 13.8097 102.185 13.5743 102.582 13.3859C102.98 13.1976 103.393 13.1191 103.855 13.1191C104.316 13.1191 104.729 13.1819 105.127 13.3075C105.524 13.433 105.858 13.637 106.16 13.9038C106.447 14.1706 106.685 14.5316 106.86 14.971C107.035 15.4105 107.13 15.9441 107.13 16.6032C107.099 17.7489 106.781 18.5964 106.16 19.1457Z" fill="#21242B"/>
<path d="M21.372 11.4085L16.6332 23.1163L14.7409 19.2713C14.4547 18.7063 13.9935 18.2354 13.4211 17.9686L9.50924 16.0853L21.372 11.4085ZM25.3156 6.85718C25.2361 6.85718 25.1566 6.87287 25.0771 6.90426L3.8164 15.3006C3.57787 15.3948 3.40295 15.6302 3.40295 15.8813C3.38705 16.1324 3.54607 16.3835 3.76869 16.4934L12.1489 20.5111L16.2198 28.7819C16.3311 29.0016 16.5696 29.1429 16.8082 29.1429H16.8241C17.0785 29.1272 17.317 28.9703 17.4124 28.7348L25.9358 7.75175C26.0312 7.51633 25.9835 7.23384 25.7927 7.04551C25.6655 6.91995 25.4905 6.85718 25.3156 6.85718Z" fill="#21242B"/>
</svg>
