<svg width="20" height="22" viewBox="0 0 20 22" fill="none" xmlns="http://www.w3.org/2000/svg">
<path d="M19 16H18V7.99998C18 3.589 14.411 0 10 0C5.58901 0 2.00002 3.589 2.00002 7.99998V16H1.00001C0.447002 16 0 16.447 0 17C0 17.553 0.447002 18 1.00001 18H2.00002H6.00001C6.00001 20.2059 7.79399 21.9999 10 21.9999C12.206 21.9999 14 20.2059 14 17.9999H18H19C19.553 17.9999 20 17.5529 20 16.9999C20 16.4469 19.553 16 19 16ZM10 20C8.897 20 8.00003 19.1029 8.00003 18H12C12 19.1029 11.103 20 10 20ZM16 16H14H6.00001H4.00003V7.99998C4.00003 4.69101 6.69103 2.00002 10 2.00002C13.309 2.00002 16 4.69101 16 7.99998V16Z" fill="#838790"/>
</svg>
