<svg width="90" height="28" viewBox="0 0 90 28" fill="none" xmlns="http://www.w3.org/2000/svg">
<path d="M29.4643 10.9242C29.2258 10.3139 28.8868 9.77678 28.4474 9.32514C28.0206 8.8735 27.5059 8.5073 26.9158 8.25096C26.3258 7.98242 25.673 7.86035 24.97 7.86035C24.3548 7.86035 23.8024 7.93359 23.3254 8.06786C22.8483 8.21434 22.4215 8.44627 22.0323 8.77584L21.9444 8.62937L19.2955 15.0988V21.5073H22.0323V16.8566C22.3336 17.1618 22.7604 17.4181 23.3003 17.6134C23.8401 17.8087 24.3925 17.9064 24.97 17.9064C25.673 17.9064 26.3258 17.7721 26.9158 17.5157C27.5059 17.2472 28.0206 16.8932 28.4474 16.4416C28.8743 15.9899 29.2132 15.4528 29.4643 14.8425C29.7028 14.2322 29.8284 13.573 29.8284 12.8895C29.8284 12.1815 29.7028 11.5345 29.4643 10.9242ZM26.9786 13.927C26.8405 14.2444 26.6522 14.5251 26.4262 14.7693C26.1877 15.0134 25.9241 15.1965 25.6102 15.343C25.2964 15.4895 24.97 15.5505 24.6059 15.5505C24.2544 15.5505 23.9154 15.4895 23.6016 15.3918C23.2877 15.2819 23.0241 15.1111 22.7856 14.8913C22.5596 14.6594 22.3713 14.3909 22.2457 14.0613C22.1076 13.7317 22.0449 13.3411 22.0449 12.8895C22.0449 12.4134 22.1076 12.0106 22.2457 11.6688C22.3713 11.327 22.5596 11.0463 22.7856 10.8388C23.0115 10.6312 23.2877 10.4726 23.6016 10.3749C23.9154 10.2773 24.2418 10.2284 24.6059 10.2284C24.9574 10.2284 25.2964 10.3017 25.6102 10.4359C25.9241 10.5824 26.1877 10.7655 26.4262 11.0096C26.6522 11.2538 26.8405 11.5345 26.9786 11.8641C27.1167 12.1937 27.192 12.5355 27.192 12.9017C27.192 13.2557 27.1167 13.5974 26.9786 13.927Z" fill="white"/>
<path d="M38.9301 8.11669L38.6539 9.05659C38.315 8.62936 37.8756 8.3242 37.3483 8.1289C36.8211 7.93359 36.231 7.83594 35.6033 7.83594C34.9003 7.83594 34.26 7.97021 33.67 8.22655C33.0799 8.49509 32.5652 8.84908 32.1384 9.30073C31.699 9.75237 31.36 10.2895 31.1215 10.8998C30.8704 11.5101 30.7574 12.1693 30.7574 12.8528C30.7574 13.5486 30.883 14.1956 31.1215 14.8059C31.3726 15.4162 31.7116 15.9533 32.1384 16.405C32.5778 16.8566 33.0925 17.2228 33.67 17.4791C34.26 17.7477 34.9003 17.8697 35.6033 17.8697C36.1808 17.8697 36.7457 17.7843 37.2856 17.6134C37.8254 17.4425 38.2773 17.1129 38.6665 16.6125L38.9427 17.6378H41.3029V8.11669H38.9301ZM37.8003 14.8913C37.2981 15.3186 36.6955 15.5383 35.9799 15.5383C35.6284 15.5383 35.2895 15.465 34.9756 15.3308C34.6618 15.1843 34.3856 15.0012 34.147 14.7571C33.9085 14.5129 33.7202 14.2444 33.5947 13.9148C33.4566 13.5974 33.3938 13.2434 33.3938 12.8773C33.3938 12.5233 33.4566 12.1693 33.5947 11.8397C33.7328 11.5101 33.9085 11.2294 34.147 10.9852C34.3856 10.7411 34.6618 10.558 34.9756 10.4115C35.2895 10.265 35.6159 10.204 35.9799 10.204C36.3314 10.204 36.6704 10.2528 36.9843 10.3505C37.2981 10.4481 37.5617 10.6068 37.8003 10.8143C38.0262 11.0219 38.2146 11.3026 38.3526 11.6444C38.4907 11.9862 38.5661 12.4012 38.5661 12.9139C38.541 13.805 38.2899 14.4641 37.8003 14.8913Z" fill="white"/>
<path d="M50.3418 8.1167L48.0193 13.1092L45.4582 8.1167H42.4076L46.5755 16.2341L44.1401 21.4951H47.1279L53.3422 8.10449H50.3418V8.1167Z" fill="white"/>
<path d="M62.1927 8.11669L61.791 8.84908C61.4395 8.5073 61.0001 8.25096 60.4979 8.09228C59.9958 7.93359 59.4309 7.84814 58.8157 7.84814C58.1503 7.84814 57.5477 7.97021 56.9828 8.22655C56.4179 8.47068 55.9283 8.82467 55.5265 9.2519C55.1123 9.67913 54.7984 10.1918 54.5599 10.7655C54.3339 11.3392 54.2084 11.9618 54.2084 12.6209C54.2084 13.2801 54.3214 13.9026 54.5599 14.4763C54.7984 15.0622 55.1123 15.5749 55.5265 16.0021C55.9408 16.4294 56.4179 16.7711 56.9828 17.0275C57.5477 17.2716 58.1503 17.4059 58.8157 17.4059C59.4183 17.4059 59.9581 17.3082 60.4603 17.1007C60.9624 16.9054 61.4018 16.6369 61.791 16.2951V16.4904C61.791 17.0153 61.7031 17.4669 61.5399 17.8331C61.3767 18.1993 61.1508 18.5045 60.862 18.7486C60.5733 18.9927 60.2469 19.1758 59.8577 19.2735C59.4685 19.3834 59.0668 19.4322 58.6274 19.4322C58.301 19.4322 57.9746 19.4078 57.6482 19.3467C57.3218 19.2857 57.0205 19.2125 56.7317 19.1026C56.443 18.9927 56.1919 18.8707 55.9785 18.7364C55.7651 18.5899 55.5893 18.4312 55.4763 18.2481V20.7383C55.9534 21.0068 56.4932 21.2265 57.0832 21.373C57.6858 21.5317 58.3135 21.6049 58.9915 21.6049C59.7824 21.6049 60.5356 21.5073 61.2637 21.2998C61.9793 21.0923 62.6321 20.7139 63.2222 20.1646C63.536 19.8594 63.7871 19.5176 63.9629 19.1636C64.1386 18.8096 64.2767 18.3946 64.352 17.943C64.4274 17.4913 64.4776 16.9664 64.5027 16.4049C64.5278 15.8312 64.5278 15.1843 64.5278 14.4519V8.11669H62.1927ZM61.6529 13.4632C61.565 13.7439 61.4144 14.0003 61.2135 14.2322C61.0127 14.4641 60.7616 14.6472 60.4603 14.8059C60.159 14.9524 59.7949 15.0256 59.3681 15.0256C59.0291 15.0256 58.7027 14.9646 58.414 14.8425C58.1252 14.7204 57.8742 14.5495 57.6482 14.3298C57.4348 14.1101 57.259 13.8538 57.1335 13.573C57.0079 13.2923 56.9452 12.9749 56.9452 12.6331C56.9452 12.3035 57.0079 11.9862 57.1335 11.6932C57.259 11.4003 57.4348 11.1439 57.6482 10.9364C57.8616 10.7167 58.1252 10.5458 58.414 10.4115C58.7027 10.2895 59.0291 10.2162 59.3681 10.2162C59.7824 10.2162 60.1339 10.2895 60.4352 10.4237C60.7365 10.5702 60.9876 10.7533 61.1884 10.973C61.3893 11.1927 61.5399 11.4491 61.6404 11.742C61.7408 12.035 61.791 12.328 61.791 12.6209C61.791 12.9017 61.7408 13.1702 61.6529 13.4632Z" fill="white"/>
<path d="M72.462 8.1167V13.7195C72.462 14.0003 72.3992 14.2444 72.2862 14.4519C72.1607 14.6594 72.01 14.8303 71.8343 14.9524C71.6585 15.0744 71.4576 15.1721 71.2568 15.2331C71.0559 15.2942 70.8676 15.3186 70.6918 15.3186C70.4659 15.3186 70.2525 15.2942 70.039 15.2331C69.8256 15.1721 69.6373 15.0867 69.4741 14.9646C69.3109 14.8425 69.1728 14.6838 69.0724 14.4763C68.9719 14.2688 68.9217 14.0247 68.9217 13.7195V8.1167H66.1849V13.8294C66.1849 14.6228 66.323 15.282 66.5867 15.7824C66.8629 16.2829 67.1893 16.6735 67.591 16.9543C67.9927 17.235 68.4196 17.4303 68.8715 17.528C69.3235 17.6256 69.7377 17.6867 70.0893 17.6867C70.5538 17.6867 70.9806 17.6256 71.3823 17.4791C71.7841 17.3449 72.1481 17.174 72.462 16.9543L72.8637 17.6867H75.2113V8.1167H72.462Z" fill="white"/>
<path d="M84.9406 8.11669L84.6645 9.05659C84.3255 8.62936 83.8861 8.3242 83.3588 8.1289C82.8316 7.93359 82.2541 7.83594 81.6138 7.83594C80.9108 7.83594 80.2705 7.97021 79.6805 8.22655C79.0904 8.49509 78.5757 8.84908 78.1489 9.30073C77.7221 9.75237 77.3705 10.2895 77.132 10.8998C76.8809 11.5101 76.7679 12.1693 76.7679 12.8528C76.7679 13.5486 76.8935 14.1956 77.132 14.8059C77.3831 15.4162 77.7221 15.9533 78.1489 16.405C78.5757 16.8566 79.103 17.2228 79.6805 17.4791C80.2705 17.7477 80.9108 17.8697 81.6138 17.8697C82.1913 17.8697 82.7562 17.7843 83.2961 17.6134C83.8359 17.4425 84.2878 17.1129 84.677 16.6125L84.9532 17.6378H87.3134V8.11669H84.9406ZM83.8108 14.8913C83.3086 15.3186 82.706 15.5383 81.9904 15.5383C81.6389 15.5383 81.3 15.465 80.9861 15.3308C80.6723 15.1843 80.3961 15.0012 80.1575 14.7571C79.919 14.5129 79.7307 14.2444 79.6052 13.9148C79.4671 13.5974 79.4043 13.2434 79.4043 12.8773C79.4043 12.5233 79.4671 12.1693 79.6052 11.8397C79.7433 11.5101 79.919 11.2294 80.1575 10.9852C80.3961 10.7411 80.6723 10.558 80.9861 10.4115C81.3 10.265 81.6264 10.204 81.9904 10.204C82.3545 10.204 82.6809 10.2528 82.9948 10.3505C83.3086 10.4481 83.5722 10.6068 83.8108 10.8143C84.0367 11.0219 84.2251 11.3026 84.3632 11.6444C84.5012 11.9862 84.5766 12.4012 84.5766 12.9139C84.5515 13.805 84.3004 14.4641 83.8108 14.8913Z" fill="white"/>
<path d="M16.8726 8.8734L13.1315 17.9795L11.6376 14.9889C11.4116 14.5495 11.0475 14.1833 10.5956 13.9757L7.50729 12.511L16.8726 8.8734ZM19.986 5.3335C19.9232 5.3335 19.8605 5.3457 19.7977 5.37012L3.01294 11.9006C2.82463 11.9739 2.68653 12.157 2.68653 12.3523C2.67398 12.5476 2.79952 12.7429 2.97528 12.8283L9.59126 15.9532L12.8051 22.3861C12.893 22.557 13.0813 22.6668 13.2696 22.6668H13.2822C13.483 22.6546 13.6713 22.5326 13.7467 22.3495L20.4756 6.02927C20.5509 5.84617 20.5133 5.62645 20.3626 5.47997C20.2622 5.38232 20.1241 5.3335 19.986 5.3335Z" fill="white"/>
</svg>
