<svg width="21" height="21" viewBox="0 0 21 21" fill="none" xmlns="http://www.w3.org/2000/svg">
<path d="M20.125 16.625H17.7949C17.416 15.3641 16.2575 14.4375 14.875 14.4375C13.4925 14.4375 12.3349 15.3641 11.9552 16.625H0.874986C0.391986 16.625 0 17.017 0 17.5C0 17.983 0.391986 18.375 0.874986 18.375H11.9551C12.334 19.6359 13.4925 20.5625 14.875 20.5625C16.2574 20.5625 17.4151 19.6359 17.7948 18.375H20.125C20.6088 18.375 21 17.983 21 17.5C21 17.017 20.6089 16.625 20.125 16.625ZM14.875 18.8125C14.1514 18.8125 13.5625 18.2237 13.5625 17.5C13.5625 16.7764 14.1514 16.1875 14.875 16.1875C15.5987 16.1875 16.1875 16.7764 16.1875 17.5C16.1875 18.2237 15.5986 18.8125 14.875 18.8125Z" fill="#939DA8"/>
<path d="M20.125 2.62499H17.7949C17.4151 1.36413 16.2575 0.4375 14.875 0.4375C13.4925 0.4375 12.3349 1.36413 11.9551 2.62499H0.874986C0.391986 2.62499 0 3.01697 0 3.49997C0 3.98297 0.391986 4.37496 0.874986 4.37496H11.9551C12.3349 5.63586 13.4925 6.56249 14.875 6.56249C16.2575 6.56249 17.4152 5.63586 17.7949 4.375H20.125C20.6089 4.375 21 3.98301 21 3.50001C21 3.01701 20.6089 2.62499 20.125 2.62499ZM14.875 4.81247C14.1514 4.81247 13.5625 4.22361 13.5625 3.49997C13.5625 2.77633 14.1514 2.18747 14.875 2.18747C15.5987 2.18747 16.1875 2.77633 16.1875 3.49997C16.1875 4.22361 15.5986 4.81247 14.875 4.81247Z" fill="#939DA8"/>
<path d="M20.125 9.62502H9.04489C8.66512 8.36416 7.5075 7.43753 6.12503 7.43753C4.74255 7.43753 3.58489 8.36416 3.20517 9.62502H0.874986C0.391986 9.62502 0 10.017 0 10.5C0 10.983 0.391986 11.375 0.874986 11.375H3.20512C3.58489 12.6358 4.74251 13.5625 6.12499 13.5625C7.50746 13.5625 8.66512 12.6358 9.04485 11.375H20.125C20.6088 11.375 21 10.983 21 10.5C21 10.017 20.6089 9.62502 20.125 9.62502ZM6.12499 11.8125C5.40135 11.8125 4.81249 11.2236 4.81249 10.5C4.81249 9.77636 5.40135 9.1875 6.12499 9.1875C6.84862 9.1875 7.43749 9.77636 7.43749 10.5C7.43749 11.2236 6.84862 11.8125 6.12499 11.8125Z" fill="#939DA8"/>
</svg>
