<svg width="139" height="31" viewBox="0 0 139 31" fill="none" xmlns="http://www.w3.org/2000/svg">
<rect width="139" height="31" rx="15.5" fill="#EFF0F2"/>
<path d="M25.036 20.5V10.7H28.256C29.0213 10.7 29.6513 10.826 30.146 11.078C30.6407 11.33 31.0047 11.6707 31.238 12.1C31.4807 12.5293 31.602 13.0147 31.602 13.556C31.602 14.088 31.4853 14.5687 31.252 14.998C31.0187 15.4273 30.6547 15.7727 30.16 16.034C29.6653 16.286 29.0307 16.412 28.256 16.412H26.212V20.5H25.036ZM26.212 15.418H28.228C29.012 15.418 29.5673 15.2547 29.894 14.928C30.23 14.592 30.398 14.1347 30.398 13.556C30.398 12.968 30.23 12.5107 29.894 12.184C29.5673 11.848 29.012 11.68 28.228 11.68H26.212V15.418ZM35.7853 20.668C35.1226 20.668 34.5346 20.5187 34.0213 20.22C33.5079 19.912 33.1019 19.4873 32.8033 18.946C32.5139 18.4047 32.3693 17.7653 32.3693 17.028C32.3693 16.3 32.5139 15.6653 32.8033 15.124C33.0926 14.5733 33.4939 14.1487 34.0073 13.85C34.5299 13.542 35.1319 13.388 35.8133 13.388C36.4853 13.388 37.0639 13.542 37.5493 13.85C38.0439 14.1487 38.4219 14.5453 38.6833 15.04C38.9446 15.5347 39.0753 16.0667 39.0753 16.636C39.0753 16.7387 39.0706 16.8413 39.0613 16.944C39.0613 17.0467 39.0613 17.1633 39.0613 17.294H33.5313C33.5593 17.826 33.6806 18.2693 33.8953 18.624C34.1193 18.9693 34.3946 19.2307 34.7213 19.408C35.0573 19.5853 35.4119 19.674 35.7853 19.674C36.2706 19.674 36.6766 19.562 37.0033 19.338C37.3299 19.114 37.5679 18.8107 37.7173 18.428H38.8793C38.6926 19.072 38.3333 19.6087 37.8013 20.038C37.2786 20.458 36.6066 20.668 35.7853 20.668ZM35.7853 14.382C35.2253 14.382 34.7259 14.5547 34.2873 14.9C33.8579 15.236 33.6106 15.7307 33.5453 16.384H37.9133C37.8853 15.7587 37.6706 15.2687 37.2693 14.914C36.8679 14.5593 36.3733 14.382 35.7853 14.382ZM40.634 20.5V13.556H41.698L41.768 14.802C41.992 14.3633 42.314 14.018 42.734 13.766C43.154 13.514 43.63 13.388 44.162 13.388C44.9833 13.388 45.6366 13.64 46.122 14.144C46.6166 14.6387 46.864 15.404 46.864 16.44V20.5H45.688V16.566C45.688 15.1193 45.0906 14.396 43.896 14.396C43.2986 14.396 42.7993 14.6153 42.398 15.054C42.006 15.4833 41.81 16.0993 41.81 16.902V20.5H40.634ZM49.4157 12.016C49.1917 12.016 49.0004 11.9413 48.8417 11.792C48.683 11.6333 48.6037 11.4373 48.6037 11.204C48.6037 10.98 48.683 10.7933 48.8417 10.644C49.0004 10.4947 49.1917 10.42 49.4157 10.42C49.6397 10.42 49.8264 10.4947 49.9757 10.644C50.1344 10.7933 50.2137 10.98 50.2137 11.204C50.2137 11.4373 50.1344 11.6333 49.9757 11.792C49.8264 11.9413 49.6397 12.016 49.4157 12.016ZM47.2877 23.58V22.572H47.8337C48.179 22.572 48.4264 22.4973 48.5757 22.348C48.7344 22.208 48.8137 21.9653 48.8137 21.62V13.556H49.9897V21.648C49.9897 22.32 49.8217 22.81 49.4857 23.118C49.1497 23.426 48.6597 23.58 48.0157 23.58H47.2877ZM54.5703 20.668C53.749 20.668 53.0956 20.4207 52.6103 19.926C52.125 19.422 51.8823 18.652 51.8823 17.616V13.556H53.0583V17.49C53.0583 18.9367 53.651 19.66 54.8363 19.66C55.443 19.66 55.9423 19.4453 56.3343 19.016C56.7356 18.5773 56.9363 17.9567 56.9363 17.154V13.556H58.1123V20.5H57.0483L56.9643 19.254C56.7496 19.6927 56.4276 20.038 55.9983 20.29C55.5783 20.542 55.1023 20.668 54.5703 20.668ZM62.358 20.668C61.7794 20.668 61.2987 20.57 60.916 20.374C60.5334 20.178 60.2487 19.9167 60.062 19.59C59.8754 19.2633 59.782 18.9087 59.782 18.526C59.782 17.8167 60.0527 17.2707 60.594 16.888C61.1354 16.5053 61.8727 16.314 62.806 16.314H64.682V16.23C64.682 15.6233 64.5234 15.166 64.206 14.858C63.8887 14.5407 63.464 14.382 62.932 14.382C62.4747 14.382 62.078 14.4987 61.742 14.732C61.4154 14.956 61.21 15.2873 61.126 15.726H59.922C59.9687 15.222 60.1367 14.7973 60.426 14.452C60.7247 14.1067 61.0934 13.8453 61.532 13.668C61.9707 13.4813 62.4374 13.388 62.932 13.388C63.9027 13.388 64.6307 13.6493 65.116 14.172C65.6107 14.6853 65.858 15.3713 65.858 16.23V20.5H64.808L64.738 19.254C64.542 19.646 64.2527 19.982 63.87 20.262C63.4967 20.5327 62.9927 20.668 62.358 20.668ZM62.54 19.674C62.988 19.674 63.3707 19.5573 63.688 19.324C64.0147 19.0907 64.262 18.7873 64.43 18.414C64.598 18.0407 64.682 17.6487 64.682 17.238V17.224H62.904C62.2134 17.224 61.7234 17.3453 61.434 17.588C61.154 17.8213 61.014 18.1153 61.014 18.47C61.014 18.834 61.1447 19.128 61.406 19.352C61.6767 19.5667 62.0547 19.674 62.54 19.674ZM67.6223 20.5V10.42H68.7983V20.5H67.6223ZM78.9528 20.668C77.9915 20.668 77.1468 20.458 76.4188 20.038C75.7002 19.6087 75.1355 19.0113 74.7248 18.246C74.3235 17.4807 74.1228 16.5987 74.1228 15.6C74.1228 14.6013 74.3235 13.724 74.7248 12.968C75.1355 12.2027 75.7002 11.6053 76.4188 11.176C77.1468 10.7467 77.9915 10.532 78.9528 10.532C79.9235 10.532 80.7682 10.7467 81.4868 11.176C82.2148 11.6053 82.7795 12.2027 83.1808 12.968C83.5822 13.724 83.7828 14.6013 83.7828 15.6C83.7828 16.5987 83.5822 17.4807 83.1808 18.246C82.7795 19.0113 82.2148 19.6087 81.4868 20.038C80.7682 20.458 79.9235 20.668 78.9528 20.668ZM78.9528 19.632C79.6715 19.632 80.3015 19.4733 80.8428 19.156C81.3935 18.8293 81.8182 18.3673 82.1168 17.77C82.4248 17.1633 82.5788 16.44 82.5788 15.6C82.5788 14.76 82.4248 14.0413 82.1168 13.444C81.8182 12.8467 81.3935 12.3893 80.8428 12.072C80.3015 11.7453 79.6715 11.582 78.9528 11.582C78.2342 11.582 77.5995 11.7453 77.0488 12.072C76.5075 12.3893 76.0828 12.8467 75.7748 13.444C75.4762 14.0413 75.3268 14.76 75.3268 15.6C75.3268 16.44 75.4762 17.1633 75.7748 17.77C76.0828 18.3673 76.5075 18.8293 77.0488 19.156C77.5995 19.4733 78.2342 19.632 78.9528 19.632ZM85.4094 20.5V13.556H86.4734L86.5434 14.802C86.7674 14.3633 87.0894 14.018 87.5094 13.766C87.9294 13.514 88.4054 13.388 88.9374 13.388C89.7587 13.388 90.412 13.64 90.8974 14.144C91.392 14.6387 91.6394 15.404 91.6394 16.44V20.5H90.4634V16.566C90.4634 15.1193 89.866 14.396 88.6714 14.396C88.074 14.396 87.5747 14.6153 87.1734 15.054C86.7814 15.4833 86.5854 16.0993 86.5854 16.902V20.5H85.4094ZM93.4211 20.5V10.42H94.5971V20.5H93.4211ZM97.2386 12.016C97.0053 12.016 96.8093 11.9413 96.6506 11.792C96.5013 11.6333 96.4266 11.4373 96.4266 11.204C96.4266 10.98 96.5013 10.7933 96.6506 10.644C96.8093 10.4947 97.0053 10.42 97.2386 10.42C97.4626 10.42 97.6539 10.4947 97.8126 10.644C97.9713 10.7933 98.0506 10.98 98.0506 11.204C98.0506 11.4373 97.9713 11.6333 97.8126 11.792C97.6539 11.9413 97.4626 12.016 97.2386 12.016ZM96.6506 20.5V13.556H97.8266V20.5H96.6506ZM99.8742 20.5V13.556H100.938L101.008 14.802C101.232 14.3633 101.554 14.018 101.974 13.766C102.394 13.514 102.87 13.388 103.402 13.388C104.224 13.388 104.877 13.64 105.362 14.144C105.857 14.6387 106.104 15.404 106.104 16.44V20.5H104.928V16.566C104.928 15.1193 104.331 14.396 103.136 14.396C102.539 14.396 102.04 14.6153 101.638 15.054C101.246 15.4833 101.05 16.0993 101.05 16.902V20.5H99.8742ZM111.008 20.668C110.345 20.668 109.757 20.5187 109.244 20.22C108.731 19.912 108.325 19.4873 108.026 18.946C107.737 18.4047 107.592 17.7653 107.592 17.028C107.592 16.3 107.737 15.6653 108.026 15.124C108.315 14.5733 108.717 14.1487 109.23 13.85C109.753 13.542 110.355 13.388 111.036 13.388C111.708 13.388 112.287 13.542 112.772 13.85C113.267 14.1487 113.645 14.5453 113.906 15.04C114.167 15.5347 114.298 16.0667 114.298 16.636C114.298 16.7387 114.293 16.8413 114.284 16.944C114.284 17.0467 114.284 17.1633 114.284 17.294H108.754C108.782 17.826 108.903 18.2693 109.118 18.624C109.342 18.9693 109.617 19.2307 109.944 19.408C110.28 19.5853 110.635 19.674 111.008 19.674C111.493 19.674 111.899 19.562 112.226 19.338C112.553 19.114 112.791 18.8107 112.94 18.428H114.102C113.915 19.072 113.556 19.6087 113.024 20.038C112.501 20.458 111.829 20.668 111.008 20.668ZM111.008 14.382C110.448 14.382 109.949 14.5547 109.51 14.9C109.081 15.236 108.833 15.7307 108.768 16.384H113.136C113.108 15.7587 112.893 15.2687 112.492 14.914C112.091 14.5593 111.596 14.382 111.008 14.382Z" fill="#838790"/>
</svg>
