<svg width="104" height="104" viewBox="0 0 104 104" fill="none" xmlns="http://www.w3.org/2000/svg">
<path d="M34.697 10.335C28.5064 12.0411 22.3577 13.8963 16.2565 15.899C15.6994 16.0795 15.2042 16.4128 14.8272 16.861C14.4503 17.3091 14.2068 17.8542 14.1245 18.434C10.5235 45.4545 18.8435 65.169 28.769 78.156C32.9714 83.7095 37.9822 88.602 43.6345 92.6705C45.8835 94.2565 47.8725 95.4005 49.439 96.135C50.219 96.5055 50.856 96.7525 51.3435 96.902C51.5567 96.9768 51.7766 97.0312 52 97.0645C52.2209 97.0286 52.4383 96.9743 52.65 96.902C53.144 96.7525 53.781 96.5055 54.561 96.135C56.121 95.4005 58.1165 94.25 60.3655 92.6705C66.0178 88.602 71.0286 83.7095 75.231 78.156C85.1565 65.1755 93.4765 45.4545 89.8755 18.434C89.794 17.8539 89.5508 17.3085 89.1737 16.8602C88.7967 16.4119 88.301 16.0788 87.7435 15.899C83.512 14.5145 76.3685 12.259 69.303 10.3415C62.088 8.385 55.4515 6.9355 52 6.9355C48.555 6.9355 41.912 8.385 34.697 10.3415V10.335ZM32.968 3.64C40.0205 1.7225 47.515 0 52 0C56.485 0 63.9795 1.7225 71.032 3.64C78.247 5.59 85.5205 7.8975 89.7975 9.295C91.5857 9.88553 93.1711 10.9685 94.3715 12.4196C95.5719 13.8706 96.3386 15.6308 96.5835 17.498C100.458 46.5985 91.468 68.1655 80.561 82.433C75.9359 88.5364 70.421 93.9111 64.2005 98.3775C62.0496 99.9231 59.7707 101.282 57.3885 102.44C55.5685 103.298 53.612 104 52 104C50.388 104 48.438 103.298 46.6115 102.44C44.2294 101.282 41.9504 99.9231 39.7995 98.3775C33.5792 93.9109 28.0643 88.5362 23.439 82.433C12.532 68.1655 3.54254 46.5985 7.41654 17.498C7.6615 15.6308 8.42822 13.8706 9.62859 12.4196C10.829 10.9685 12.4143 9.88553 14.2025 9.295C20.4113 7.25926 26.6683 5.37371 32.968 3.64Z" fill="black"/>
<path d="M70.5545 33.4486C70.8572 33.7505 71.0973 34.1091 71.2611 34.504C71.425 34.8988 71.5093 35.3221 71.5093 35.7496C71.5093 36.1771 71.425 36.6004 71.2611 36.9952C71.0973 37.39 70.8572 37.7487 70.5545 38.0506L51.0545 57.5506C50.7526 57.8532 50.394 58.0934 49.9991 58.2572C49.6043 58.4211 49.181 58.5054 48.7535 58.5054C48.326 58.5054 47.9027 58.4211 47.5079 58.2572C47.113 58.0934 46.7544 57.8532 46.4525 57.5506L36.7025 47.8006C36.4003 47.4984 36.1606 47.1397 35.9971 46.7449C35.8336 46.3501 35.7494 45.9269 35.7494 45.4996C35.7494 45.0722 35.8336 44.6491 35.9971 44.2543C36.1606 43.8595 36.4003 43.5008 36.7025 43.1986C37.0047 42.8964 37.3634 42.6567 37.7582 42.4932C38.153 42.3296 38.5762 42.2455 39.0035 42.2455C39.4308 42.2455 39.854 42.3296 40.2488 42.4932C40.6436 42.6567 41.0023 42.8964 41.3045 43.1986L48.7535 50.6541L65.9525 33.4486C66.2544 33.1459 66.613 32.9058 67.0079 32.7419C67.4027 32.5781 67.826 32.4938 68.2535 32.4938C68.681 32.4938 69.1043 32.5781 69.4991 32.7419C69.894 32.9058 70.2526 33.1459 70.5545 33.4486Z" fill="black"/>
</svg>
