<svg width="138" height="31" viewBox="0 0 138 31" fill="none" xmlns="http://www.w3.org/2000/svg">
<rect width="138" height="31" rx="15.5" fill="#EFF0F2"/>
<path d="M25.036 20.5V10.7H28.256C29.0213 10.7 29.6513 10.826 30.146 11.078C30.6407 11.33 31.0047 11.6707 31.238 12.1C31.4807 12.5293 31.602 13.0147 31.602 13.556C31.602 14.088 31.4853 14.5687 31.252 14.998C31.0187 15.4273 30.6547 15.7727 30.16 16.034C29.6653 16.286 29.0307 16.412 28.256 16.412H26.212V20.5H25.036ZM26.212 15.418H28.228C29.012 15.418 29.5673 15.2547 29.894 14.928C30.23 14.592 30.398 14.1347 30.398 13.556C30.398 12.968 30.23 12.5107 29.894 12.184C29.5673 11.848 29.012 11.68 28.228 11.68H26.212V15.418ZM33.0734 20.5V13.556H34.1374L34.2354 14.886C34.4501 14.4287 34.7768 14.0647 35.2154 13.794C35.6541 13.5233 36.1954 13.388 36.8394 13.388V14.62H36.5174C36.1068 14.62 35.7288 14.6947 35.3834 14.844C35.0381 14.984 34.7628 15.2267 34.5574 15.572C34.3521 15.9173 34.2494 16.3933 34.2494 17V20.5H33.0734ZM41.0636 20.668C40.4103 20.668 39.8223 20.5187 39.2996 20.22C38.7769 19.9213 38.3616 19.5013 38.0536 18.96C37.7549 18.4093 37.6056 17.7653 37.6056 17.028C37.6056 16.2907 37.7596 15.6513 38.0676 15.11C38.3756 14.5593 38.7909 14.1347 39.3136 13.836C39.8456 13.5373 40.4383 13.388 41.0916 13.388C41.7449 13.388 42.3329 13.5373 42.8556 13.836C43.3783 14.1347 43.7889 14.5593 44.0876 15.11C44.3956 15.6513 44.5496 16.2907 44.5496 17.028C44.5496 17.7653 44.3956 18.4093 44.0876 18.96C43.7796 19.5013 43.3596 19.9213 42.8276 20.22C42.3049 20.5187 41.7169 20.668 41.0636 20.668ZM41.0636 19.66C41.4649 19.66 41.8383 19.562 42.1836 19.366C42.5289 19.17 42.8089 18.876 43.0236 18.484C43.2383 18.092 43.3456 17.6067 43.3456 17.028C43.3456 16.4493 43.2383 15.964 43.0236 15.572C42.8183 15.18 42.5429 14.886 42.1976 14.69C41.8523 14.494 41.4836 14.396 41.0916 14.396C40.6903 14.396 40.3169 14.494 39.9716 14.69C39.6263 14.886 39.3463 15.18 39.1316 15.572C38.9169 15.964 38.8096 16.4493 38.8096 17.028C38.8096 17.6067 38.9169 18.092 39.1316 18.484C39.3463 18.876 39.6216 19.17 39.9576 19.366C40.3029 19.562 40.6716 19.66 41.0636 19.66ZM49.3347 20.668C48.6441 20.668 48.0374 20.5093 47.5148 20.192C47.0014 19.8747 46.6001 19.4407 46.3108 18.89C46.0308 18.3393 45.8908 17.714 45.8908 17.014C45.8908 16.314 46.0354 15.6933 46.3248 15.152C46.6141 14.6013 47.0154 14.172 47.5288 13.864C48.0421 13.5467 48.6488 13.388 49.3488 13.388C49.9181 13.388 50.4221 13.5047 50.8608 13.738C51.2994 13.9713 51.6401 14.298 51.8828 14.718V10.42H53.0588V20.5H51.9948L51.8828 19.352C51.6588 19.688 51.3368 19.9913 50.9168 20.262C50.4968 20.5327 49.9694 20.668 49.3347 20.668ZM49.4608 19.646C49.9274 19.646 50.3381 19.5387 50.6928 19.324C51.0568 19.1 51.3368 18.792 51.5328 18.4C51.7381 18.008 51.8408 17.5507 51.8408 17.028C51.8408 16.5053 51.7381 16.048 51.5328 15.656C51.3368 15.264 51.0568 14.9607 50.6928 14.746C50.3381 14.522 49.9274 14.41 49.4608 14.41C49.0034 14.41 48.5928 14.522 48.2288 14.746C47.8741 14.9607 47.5941 15.264 47.3888 15.656C47.1928 16.048 47.0948 16.5053 47.0948 17.028C47.0948 17.5507 47.1928 18.008 47.3888 18.4C47.5941 18.792 47.8741 19.1 48.2288 19.324C48.5928 19.5387 49.0034 19.646 49.4608 19.646ZM57.5098 20.668C56.6884 20.668 56.0351 20.4207 55.5498 19.926C55.0644 19.422 54.8218 18.652 54.8218 17.616V13.556H55.9978V17.49C55.9978 18.9367 56.5904 19.66 57.7758 19.66C58.3824 19.66 58.8818 19.4453 59.2738 19.016C59.6751 18.5773 59.8758 17.9567 59.8758 17.154V13.556H61.0518V20.5H59.9878L59.9038 19.254C59.6891 19.6927 59.3671 20.038 58.9378 20.29C58.5178 20.542 58.0418 20.668 57.5098 20.668ZM62.9875 20.5V10.42H64.1635V16.482L67.0055 13.556H68.4475L65.3675 16.692L68.8395 20.5H67.3415L64.1635 16.902V20.5H62.9875ZM73.8173 20.5V10.7H76.8273C78.5539 10.7 79.8233 11.1387 80.6353 12.016C81.4566 12.8933 81.8673 14.0973 81.8673 15.628C81.8673 17.1307 81.4566 18.3207 80.6353 19.198C79.8233 20.066 78.5539 20.5 76.8273 20.5H73.8173ZM74.9933 19.52H76.7993C77.7513 19.52 78.5073 19.366 79.0673 19.058C79.6366 18.7407 80.0426 18.2927 80.2853 17.714C80.5279 17.126 80.6493 16.4307 80.6493 15.628C80.6493 14.8067 80.5279 14.102 80.2853 13.514C80.0426 12.926 79.6366 12.4733 79.0673 12.156C78.5073 11.8387 77.7513 11.68 76.7993 11.68H74.9933V19.52ZM84.2093 12.016C83.976 12.016 83.78 11.9413 83.6213 11.792C83.472 11.6333 83.3973 11.4373 83.3973 11.204C83.3973 10.98 83.472 10.7933 83.6213 10.644C83.78 10.4947 83.976 10.42 84.2093 10.42C84.4333 10.42 84.6246 10.4947 84.7833 10.644C84.942 10.7933 85.0213 10.98 85.0213 11.204C85.0213 11.4373 84.942 11.6333 84.7833 11.792C84.6246 11.9413 84.4333 12.016 84.2093 12.016ZM83.6213 20.5V13.556H84.7973V20.5H83.6213ZM89.5889 18.316C89.1969 18.316 88.8376 18.2647 88.5109 18.162L87.8109 18.82C87.9136 18.8947 88.0396 18.96 88.1889 19.016C88.3476 19.0627 88.5716 19.1093 88.8609 19.156C89.1502 19.1933 89.5562 19.2353 90.0789 19.282C91.0122 19.3473 91.6796 19.562 92.0809 19.926C92.4822 20.29 92.6829 20.766 92.6829 21.354C92.6829 21.7553 92.5709 22.138 92.3469 22.502C92.1322 22.866 91.7962 23.1647 91.3389 23.398C90.8909 23.6313 90.3122 23.748 89.6029 23.748C88.9776 23.748 88.4222 23.664 87.9369 23.496C87.4516 23.3373 87.0736 23.09 86.8029 22.754C86.5322 22.4273 86.3969 22.012 86.3969 21.508C86.3969 21.2467 86.4669 20.962 86.6069 20.654C86.7469 20.3553 87.0082 20.0707 87.3909 19.8C87.1856 19.716 87.0082 19.6273 86.8589 19.534C86.7189 19.4313 86.5882 19.3193 86.4669 19.198V18.876L87.6569 17.7C87.1062 17.2333 86.8309 16.6173 86.8309 15.852C86.8309 15.3947 86.9382 14.9793 87.1529 14.606C87.3676 14.2327 87.6802 13.9387 88.0909 13.724C88.5016 13.5 89.0009 13.388 89.5889 13.388C89.9902 13.388 90.3542 13.444 90.6809 13.556H93.2429V14.438L91.9409 14.494C92.2116 14.886 92.3469 15.3387 92.3469 15.852C92.3469 16.3093 92.2349 16.7247 92.0109 17.098C91.7962 17.4713 91.4836 17.77 91.0729 17.994C90.6716 18.2087 90.1769 18.316 89.5889 18.316ZM89.5889 17.35C90.0836 17.35 90.4756 17.224 90.7649 16.972C91.0636 16.7107 91.2129 16.3373 91.2129 15.852C91.2129 15.376 91.0636 15.012 90.7649 14.76C90.4756 14.4987 90.0836 14.368 89.5889 14.368C89.0849 14.368 88.6836 14.4987 88.3849 14.76C88.0956 15.012 87.9509 15.376 87.9509 15.852C87.9509 16.3373 88.0956 16.7107 88.3849 16.972C88.6836 17.224 89.0849 17.35 89.5889 17.35ZM87.5449 21.396C87.5449 21.8627 87.7409 22.208 88.1329 22.432C88.5249 22.6653 89.0149 22.782 89.6029 22.782C90.1816 22.782 90.6436 22.656 90.9889 22.404C91.3436 22.152 91.5209 21.816 91.5209 21.396C91.5209 21.0973 91.3996 20.836 91.1569 20.612C90.9142 20.3973 90.4662 20.2713 89.8129 20.234C89.2996 20.1967 88.8562 20.15 88.4829 20.094C88.1002 20.2993 87.8482 20.5187 87.7269 20.752C87.6056 20.9947 87.5449 21.2093 87.5449 21.396ZM95.2835 12.016C95.0502 12.016 94.8542 11.9413 94.6955 11.792C94.5462 11.6333 94.4715 11.4373 94.4715 11.204C94.4715 10.98 94.5462 10.7933 94.6955 10.644C94.8542 10.4947 95.0502 10.42 95.2835 10.42C95.5075 10.42 95.6988 10.4947 95.8575 10.644C96.0162 10.7933 96.0955 10.98 96.0955 11.204C96.0955 11.4373 96.0162 11.6333 95.8575 11.792C95.6988 11.9413 95.5075 12.016 95.2835 12.016ZM94.6955 20.5V13.556H95.8715V20.5H94.6955ZM100.663 20.5C100.028 20.5 99.5291 20.346 99.1651 20.038C98.8011 19.73 98.6191 19.1747 98.6191 18.372V14.55H97.4151V13.556H98.6191L98.7731 11.89H99.7951V13.556H101.839V14.55H99.7951V18.372C99.7951 18.8107 99.8838 19.1093 100.061 19.268C100.238 19.4173 100.551 19.492 100.999 19.492H101.727V20.5H100.663ZM105.643 20.668C105.065 20.668 104.584 20.57 104.201 20.374C103.819 20.178 103.534 19.9167 103.347 19.59C103.161 19.2633 103.067 18.9087 103.067 18.526C103.067 17.8167 103.338 17.2707 103.879 16.888C104.421 16.5053 105.158 16.314 106.091 16.314H107.967V16.23C107.967 15.6233 107.809 15.166 107.491 14.858C107.174 14.5407 106.749 14.382 106.217 14.382C105.76 14.382 105.363 14.4987 105.027 14.732C104.701 14.956 104.495 15.2873 104.411 15.726H103.207C103.254 15.222 103.422 14.7973 103.711 14.452C104.01 14.1067 104.379 13.8453 104.817 13.668C105.256 13.4813 105.723 13.388 106.217 13.388C107.188 13.388 107.916 13.6493 108.401 14.172C108.896 14.6853 109.143 15.3713 109.143 16.23V20.5H108.093L108.023 19.254C107.827 19.646 107.538 19.982 107.155 20.262C106.782 20.5327 106.278 20.668 105.643 20.668ZM105.825 19.674C106.273 19.674 106.656 19.5573 106.973 19.324C107.3 19.0907 107.547 18.7873 107.715 18.414C107.883 18.0407 107.967 17.6487 107.967 17.238V17.224H106.189C105.499 17.224 105.009 17.3453 104.719 17.588C104.439 17.8213 104.299 18.1153 104.299 18.47C104.299 18.834 104.43 19.128 104.691 19.352C104.962 19.5667 105.34 19.674 105.825 19.674ZM110.907 20.5V10.42H112.083V20.5H110.907Z" fill="#838790"/>
</svg>
