<svg width="24" height="24" viewBox="0 0 24 24" fill="none" xmlns="http://www.w3.org/2000/svg">
<path d="M20.7192 7.98L16.0368 3.3C15.8467 3.11 15.5866 3 15.3264 3H8.68296C8.42282 3 8.16269 3.11 7.98259 3.29L3.29015 7.98C3.11006 8.16 3 8.42 3 8.68V15.31C3 15.58 3.11006 15.83 3.29015 16.02L7.97259 20.7C8.16269 20.89 8.42282 21 8.68296 21H15.3164C15.5866 21 15.8367 20.89 16.0268 20.71L20.7092 16.03C20.8024 15.9369 20.8761 15.8261 20.9259 15.7042C20.9757 15.5823 21.0007 15.4517 20.9994 15.32V8.68C21.0094 8.42 20.8993 8.16 20.7192 7.98ZM19.0083 14.9L14.9062 19H9.10318L5.00104 14.9V9.1L9.10318 5H14.9062L19.0083 9.1V14.9Z" fill="#8A8AA0"/>
<path d="M12 17C12.5523 17 13 16.5523 13 16C13 15.4477 12.5523 15 12 15C11.4477 15 11 15.4477 11 16C11 16.5523 11.4477 17 12 17Z" fill="#8A8AA0"/>
<path d="M12 7C11.45 7 11 7.45 11 8V13C11 13.55 11.45 14 12 14C12.55 14 13 13.55 13 13V8C13 7.45 12.55 7 12 7Z" fill="#8A8AA0"/>
</svg>
