<svg width="84" height="31" viewBox="0 0 84 31" fill="none" xmlns="http://www.w3.org/2000/svg">
<rect width="84" height="31" rx="15.5" fill="#EFF0F2"/>
<path d="M25.036 20.5V10.7H28.2C28.9653 10.7 29.5907 10.826 30.076 11.078C30.5613 11.33 30.9207 11.6753 31.154 12.114C31.3873 12.5527 31.504 13.038 31.504 13.57C31.504 14.186 31.336 14.7413 31 15.236C30.6733 15.7307 30.16 16.0807 29.46 16.286L31.602 20.5H30.216L28.228 16.454H28.144H26.212V20.5H25.036ZM26.212 15.53H28.116C28.872 15.53 29.4227 15.348 29.768 14.984C30.1133 14.62 30.286 14.1533 30.286 13.584C30.286 13.0053 30.1133 12.548 29.768 12.212C29.432 11.8667 28.8767 11.694 28.102 11.694H26.212V15.53ZM35.963 20.668C35.3003 20.668 34.7123 20.5187 34.199 20.22C33.6857 19.912 33.2797 19.4873 32.981 18.946C32.6917 18.4047 32.547 17.7653 32.547 17.028C32.547 16.3 32.6917 15.6653 32.981 15.124C33.2703 14.5733 33.6717 14.1487 34.185 13.85C34.7077 13.542 35.3097 13.388 35.991 13.388C36.663 13.388 37.2417 13.542 37.727 13.85C38.2217 14.1487 38.5997 14.5453 38.861 15.04C39.1223 15.5347 39.253 16.0667 39.253 16.636C39.253 16.7387 39.2483 16.8413 39.239 16.944C39.239 17.0467 39.239 17.1633 39.239 17.294H33.709C33.737 17.826 33.8583 18.2693 34.073 18.624C34.297 18.9693 34.5723 19.2307 34.899 19.408C35.235 19.5853 35.5897 19.674 35.963 19.674C36.4483 19.674 36.8543 19.562 37.181 19.338C37.5077 19.114 37.7457 18.8107 37.895 18.428H39.057C38.8703 19.072 38.511 19.6087 37.979 20.038C37.4563 20.458 36.7843 20.668 35.963 20.668ZM35.963 14.382C35.403 14.382 34.9037 14.5547 34.465 14.9C34.0357 15.236 33.7883 15.7307 33.723 16.384H38.091C38.063 15.7587 37.8483 15.2687 37.447 14.914C37.0457 14.5593 36.551 14.382 35.963 14.382ZM43.3233 20.5C42.6886 20.5 42.1893 20.346 41.8253 20.038C41.4613 19.73 41.2793 19.1747 41.2793 18.372V14.55H40.0753V13.556H41.2793L41.4333 11.89H42.4553V13.556H44.4993V14.55H42.4553V18.372C42.4553 18.8107 42.5439 19.1093 42.7213 19.268C42.8986 19.4173 43.2113 19.492 43.6593 19.492H44.3873V20.5H43.3233ZM48.3033 20.668C47.7247 20.668 47.244 20.57 46.8613 20.374C46.4787 20.178 46.194 19.9167 46.0073 19.59C45.8207 19.2633 45.7273 18.9087 45.7273 18.526C45.7273 17.8167 45.998 17.2707 46.5393 16.888C47.0807 16.5053 47.818 16.314 48.7513 16.314H50.6273V16.23C50.6273 15.6233 50.4687 15.166 50.1513 14.858C49.834 14.5407 49.4093 14.382 48.8773 14.382C48.42 14.382 48.0233 14.4987 47.6873 14.732C47.3607 14.956 47.1553 15.2873 47.0713 15.726H45.8673C45.914 15.222 46.082 14.7973 46.3713 14.452C46.67 14.1067 47.0387 13.8453 47.4773 13.668C47.916 13.4813 48.3827 13.388 48.8773 13.388C49.848 13.388 50.576 13.6493 51.0613 14.172C51.556 14.6853 51.8033 15.3713 51.8033 16.23V20.5H50.7533L50.6833 19.254C50.4873 19.646 50.198 19.982 49.8153 20.262C49.442 20.5327 48.938 20.668 48.3033 20.668ZM48.4853 19.674C48.9333 19.674 49.316 19.5573 49.6333 19.324C49.96 19.0907 50.2073 18.7873 50.3753 18.414C50.5433 18.0407 50.6273 17.6487 50.6273 17.238V17.224H48.8493C48.1587 17.224 47.6687 17.3453 47.3793 17.588C47.0993 17.8213 46.9593 18.1153 46.9593 18.47C46.9593 18.834 47.09 19.128 47.3513 19.352C47.622 19.5667 48 19.674 48.4853 19.674ZM54.2816 12.016C54.0482 12.016 53.8522 11.9413 53.6936 11.792C53.5442 11.6333 53.4696 11.4373 53.4696 11.204C53.4696 10.98 53.5442 10.7933 53.6936 10.644C53.8522 10.4947 54.0482 10.42 54.2816 10.42C54.5056 10.42 54.6969 10.4947 54.8556 10.644C55.0142 10.7933 55.0936 10.98 55.0936 11.204C55.0936 11.4373 55.0142 11.6333 54.8556 11.792C54.6969 11.9413 54.5056 12.016 54.2816 12.016ZM53.6936 20.5V13.556H54.8696V20.5H53.6936ZM56.9172 20.5V10.42H58.0932V20.5H56.9172Z" fill="#838790"/>
</svg>
