<svg width="20" height="20" viewBox="0 0 20 20" fill="none" xmlns="http://www.w3.org/2000/svg">
<path d="M18.6857 2.79908C18.6498 2.54122 18.4643 2.32911 18.2135 2.25939L10.1751 0.0239216C10.0605 -0.00797385 9.93947 -0.00797385 9.82478 0.0239216L1.78644 2.25939C1.53563 2.32911 1.3501 2.54113 1.3142 2.79908C1.26757 3.13434 0.203957 11.0556 2.93206 14.9961C5.65694 18.932 9.67672 19.9406 9.84648 19.9817C9.89694 19.9939 9.94836 19.9999 9.99995 19.9999C10.0515 19.9999 10.103 19.9938 10.1534 19.9817C10.3233 19.9406 14.343 18.932 17.0678 14.9961C19.7959 11.0556 18.7323 3.13442 18.6857 2.79908ZM15.1837 7.42357L9.70069 12.9065C9.57311 13.0341 9.40579 13.098 9.23855 13.098C9.07132 13.098 8.904 13.0342 8.77642 12.9065L5.38635 9.51647C5.26374 9.39394 5.19489 9.22767 5.19489 9.05433C5.19489 8.881 5.26383 8.71473 5.38635 8.5922L6.05947 7.91908C6.31472 7.66392 6.72857 7.66383 6.98374 7.91908L9.23855 10.1739L13.5863 5.8261C13.7088 5.70349 13.8751 5.63464 14.0484 5.63464C14.2217 5.63464 14.388 5.70349 14.5105 5.8261L15.1837 6.49922C15.4389 6.75447 15.4389 7.16832 15.1837 7.42357Z" fill="#1238F7"/>
</svg>
