<svg width="48" height="48" viewBox="0 0 48 48" fill="none" xmlns="http://www.w3.org/2000/svg">
<rect width="48" height="48" rx="24" fill="#838790"/>
<path fill-rule="evenodd" clip-rule="evenodd" d="M15.9897 14.4H15.7895C14.7844 14.4 13.8206 14.8046 13.1099 15.5247C12.3992 16.2448 12 17.2216 12 18.24V18.4145V29.5855V29.76C12 30.7784 12.3992 31.7551 13.1099 32.4753C13.8206 33.1954 14.7844 33.6 15.7895 33.6H15.9897H32.0103H32.2105C33.2156 33.6 34.1794 33.1954 34.8901 32.4753C35.6008 31.7551 36 30.7784 36 29.76V29.5894C36 29.5881 36 29.5868 36 29.5855V18.4145C36 18.4132 36 18.4119 36 18.4106V18.24C36 17.2216 35.6008 16.2448 34.8901 15.5247C34.1794 14.8046 33.2156 14.4 32.2105 14.4H32.0103H15.9897ZM15.3123 15.7256C14.8826 15.8089 14.4912 16.0025 14.1688 16.2765L14.2058 16.3008C14.2101 16.2967 14.2145 16.2927 14.2191 16.2888C14.5316 16.0249 14.9039 15.8295 15.3123 15.7256ZM33.7942 16.3008L33.8312 16.2765C33.5002 15.9951 33.1056 15.8066 32.6864 15.7254C33.0863 15.827 33.461 16.0185 33.781 16.2889C33.7855 16.2927 33.7899 16.2967 33.7942 16.3008ZM13.4624 17.3381L13.4324 17.3184C13.3726 17.4754 13.3283 17.6376 13.3001 17.8028C13.3295 17.6718 13.3685 17.543 13.4167 17.4173C13.4278 17.3883 13.4433 17.3617 13.4624 17.3381ZM13.3003 30.1972C13.3887 30.7139 13.6323 31.1944 14.0031 31.5702C14.3633 31.9352 14.8212 32.1786 15.3145 32.2743C14.8353 32.1526 14.3934 31.9024 14.0386 31.5451C13.6679 31.1717 13.4141 30.7033 13.3003 30.1972ZM32.6856 32.2743C33.1788 32.1786 33.6367 31.9352 33.9969 31.5702C34.3677 31.1944 34.6113 30.7139 34.6997 30.1973C34.5859 30.7033 34.3321 31.1717 33.9614 31.5451C33.6066 31.9024 33.1647 32.1526 32.6856 32.2743ZM34.6999 17.8007C34.6714 17.6337 34.6268 17.4723 34.5676 17.3184L34.5376 17.3381C34.5565 17.3614 34.5719 17.3878 34.583 17.4163C34.631 17.5405 34.6702 17.6688 34.6999 17.8007ZM32.0107 16.223C32.3842 16.2225 32.7494 16.3197 33.0717 16.5022L24 22.4354L14.9283 16.5021C15.2422 16.3242 15.6044 16.223 15.9897 16.223L32.0107 16.223ZM24.1389 24.5192C24.1538 24.5112 24.1679 24.502 24.181 24.4918L34.1398 17.9803C34.1677 18.1202 34.1823 18.2655 34.1823 18.4145V29.5855C34.1823 30.1679 33.9525 30.7257 33.5448 31.1365C33.1371 31.547 32.5851 31.777 32.0103 31.777H15.9897C15.4149 31.777 14.8629 31.547 14.4552 31.1365C14.0475 30.7257 13.8177 30.1679 13.8177 29.5855V18.4144C13.8176 18.2683 13.832 18.123 13.8606 17.9805L23.8391 24.5062C23.929 24.565 24.0442 24.57 24.1389 24.5192Z" fill="white"/>
</svg>
