<svg width="48" height="48" viewBox="0 0 48 48" fill="none" xmlns="http://www.w3.org/2000/svg">
<path d="M24 0C10.7451 0 0 10.7451 0 24C0 37.2549 10.7451 48 24 48C37.2549 48 48 37.2549 48 24C48 10.7451 37.2549 0 24 0Z" fill="#40B3E0"/>
<path d="M35.6778 13.8056L31.391 35.4186C31.391 35.4186 30.7916 36.9175 29.1429 36.198L19.2508 28.614L15.6538 26.8755L9.59866 24.837C9.59866 24.837 8.66941 24.5074 8.57941 23.788C8.48941 23.0685 9.62866 22.6789 9.62866 22.6789L33.6992 13.2364C33.6992 13.2364 35.6777 12.3671 35.6777 13.806" fill="white"/>
<path d="M18.4908 35.1758C18.4908 35.1758 18.2021 35.1488 17.8421 34.0096C17.4826 32.8705 15.6539 26.8754 15.6539 26.8754L30.1923 17.6429C30.1923 17.6429 31.0317 17.1333 31.0017 17.6429C31.0017 17.6429 31.1516 17.7329 30.7017 18.1525C30.2523 18.5723 19.2811 28.4343 19.2811 28.4343" fill="#D2E5F1"/>
<path d="M23.0443 31.5217L19.1317 35.0891C19.1317 35.0891 18.8257 35.3212 18.4912 35.1757L19.2405 28.5494" fill="#B5CFE4"/>
</svg>
