<svg width="24" height="24" viewBox="0 0 24 24" fill="none" xmlns="http://www.w3.org/2000/svg">
<path d="M17.1062 15.4107C16.7352 15.4121 16.3683 15.4896 16.0276 15.6385C15.6869 15.7874 15.3793 16.0045 15.1233 16.277L8.40918 12.8676C8.57434 12.3593 8.57434 11.8108 8.40918 11.3025L15.1343 7.83159C15.616 8.34672 16.2693 8.66169 16.9671 8.71529C17.6649 8.76889 18.3574 8.55729 18.91 8.12161C19.4627 7.68594 19.8359 7.05731 19.9573 6.35793C20.0786 5.65854 19.9394 4.93835 19.5666 4.33734C19.1938 3.73633 18.6142 3.29744 17.9403 3.10598C17.2664 2.91451 16.5464 2.98415 15.9203 3.30135C15.2942 3.61855 14.8067 4.16066 14.5525 4.82231C14.2983 5.48396 14.2956 6.21787 14.545 6.88141L7.88593 10.3188C7.52629 9.8725 7.03942 9.54996 6.49205 9.39544C5.94469 9.24091 5.36362 9.26197 4.82851 9.45571C4.2934 9.64946 3.83043 10.0064 3.50308 10.4776C3.17572 10.9489 3 11.5113 3 12.0878C3 12.6644 3.17572 13.2268 3.50308 13.6981C3.83043 14.1693 4.2934 14.5262 4.82851 14.72C5.36362 14.9137 5.94469 14.9348 6.49205 14.7803C7.03942 14.6257 7.52629 14.3032 7.88593 13.8569L14.5285 17.2496C14.4162 17.5554 14.3584 17.879 14.3577 18.2053C14.3577 18.7581 14.5192 19.2984 14.8218 19.758C15.1245 20.2175 15.5546 20.5757 16.0578 20.7873C16.561 20.9988 17.1147 21.0541 17.6489 20.9463C18.1832 20.8385 18.6739 20.5723 19.059 20.1815C19.4442 19.7906 19.7064 19.2927 19.8127 18.7506C19.919 18.2084 19.8644 17.6465 19.656 17.1359C19.4476 16.6252 19.0946 16.1888 18.6417 15.8817C18.1888 15.5746 17.6564 15.4107 17.1117 15.4107H17.1062Z" fill="#838790"/>
</svg>
