<svg width="48" height="48" viewBox="0 0 48 48" fill="none" xmlns="http://www.w3.org/2000/svg">
<path d="M24 48C10.8132 48 0 37.2747 0 24C0 10.7253 10.8132 0 24 0C37.1868 0 48 10.7253 48 24C48 37.2747 37.2747 48 24 48Z" fill="#42EA60"/>
<path fill-rule="evenodd" clip-rule="evenodd" d="M24.6155 8.79117C16.6155 8.79117 10.11 15.2967 10.11 23.2967C10.11 26.1098 10.9012 28.8351 12.3957 31.1208L10.1979 35.956C10.0221 36.4835 10.11 37.0109 10.4616 37.3626C10.7254 37.6263 11.077 37.8022 11.4287 37.8022C11.5166 37.8022 11.6924 37.8022 11.7803 37.7142L17.8463 36.0439C19.9561 37.1868 22.3298 37.7142 24.7034 37.7142C32.7034 37.7142 39.2089 31.2087 39.2089 23.2087C39.121 15.2967 32.6155 8.79117 24.6155 8.79117ZM24.6155 35.2527C22.5056 35.2527 20.3957 34.7252 18.6375 33.5824C18.4616 33.4945 18.1979 33.4065 18.0221 33.4065C17.9342 33.4065 17.7583 33.4065 17.6704 33.4945L13.7144 34.5494L15.121 31.4725C15.2968 31.0329 15.2968 30.5934 15.0331 30.2417C13.5386 28.2197 12.7473 25.7582 12.7473 23.2967C12.7473 16.7033 18.11 11.3406 24.7034 11.3406C31.2968 11.3406 36.6594 16.7033 36.6594 23.2967C36.5715 29.8901 31.2089 35.2527 24.6155 35.2527Z" fill="white"/>
<path fill-rule="evenodd" clip-rule="evenodd" d="M30.2415 25.4943C29.6262 25.1426 28.8349 24.7031 28.1316 25.0547C27.6042 25.3185 27.2525 26.1097 26.9009 26.5492C26.725 26.813 26.4613 26.813 26.1976 26.7251C24.1756 25.9339 22.5932 24.5273 21.4503 22.6811C21.2745 22.4174 21.2745 22.1536 21.5382 21.8899C21.8899 21.4503 22.3294 21.0108 22.4174 20.4833C22.5053 19.9558 22.2415 19.3404 22.0657 18.813C21.802 18.1976 21.4503 17.3185 20.8349 16.9668C20.3075 16.6152 19.5163 16.791 18.9888 17.2306C18.1097 17.9339 17.6701 19.0767 17.6701 20.1317C17.6701 20.4833 17.6701 20.747 17.758 21.0987C17.9338 21.802 18.2855 22.5053 18.6371 23.1207C18.9009 23.6481 19.2525 24.0877 19.6042 24.5273C20.747 26.0218 22.0657 27.3404 23.6481 28.3075C24.4393 28.835 25.3185 29.1866 26.1976 29.5382C27.1646 29.8899 28.0437 30.2415 29.0987 29.9778C30.2415 29.802 31.2965 29.0987 31.736 27.9558C31.8239 27.6042 31.9119 27.2525 31.824 26.9009C31.736 26.1976 30.769 25.8459 30.2415 25.4943Z" fill="white"/>
</svg>
