<svg width="48" height="48" viewBox="0 0 48 48" fill="none" xmlns="http://www.w3.org/2000/svg">
<rect width="48" height="48" rx="24" fill="#EFF0F2"/>
<path fill-rule="evenodd" clip-rule="evenodd" d="M19.4584 14.0285C20.0085 13.4981 20.7546 13.2001 21.5326 13.2001H26.5299C27.2963 13.2002 28.0324 13.4895 28.5804 14.0062L32.1163 17.3408C32.1164 17.3408 32.1163 17.3407 32.1163 17.3408C32.3957 17.6041 32.6179 17.9188 32.7694 18.266C32.9211 18.6133 32.9992 18.9864 32.9992 19.3632L32.9992 28.3715C32.9992 29.1217 32.6902 29.8411 32.1401 30.3716C31.59 30.9021 30.8439 31.2001 30.0659 31.2001H21.5326C20.7546 31.2001 20.0085 30.9021 19.4584 30.3716C18.9083 29.8411 18.5992 29.1217 18.5992 28.3715V16.0286C18.5992 15.2785 18.9083 14.559 19.4584 14.0285ZM21.5326 14.7429C21.179 14.7429 20.8398 14.8784 20.5898 15.1195C20.3397 15.3606 20.1992 15.6877 20.1992 16.0286V28.3715C20.1992 28.7125 20.3397 29.0395 20.5898 29.2806C20.8398 29.5218 21.179 29.6572 21.5326 29.6572H30.0659C30.4195 29.6572 30.7587 29.5218 31.0087 29.2806C31.2588 29.0395 31.3992 28.7125 31.3992 28.3715V19.3634C31.3992 19.3633 31.3992 19.3634 31.3992 19.3634C31.3992 19.1921 31.3637 19.0225 31.2948 18.8647C31.2259 18.7068 31.1249 18.5638 30.9979 18.4441L27.4618 15.1094C27.2127 14.8745 26.8783 14.743 26.5299 14.7429C26.5299 14.7429 26.5299 14.7429 26.5299 14.7429H21.5326Z" fill="#838790"/>
<path fill-rule="evenodd" clip-rule="evenodd" d="M17.9326 20.0728C17.579 20.0728 17.2398 20.2021 16.9898 20.4323C16.7397 20.6624 16.5993 20.9746 16.5993 21.3001V32.1001C16.5993 32.4256 16.7397 32.7377 16.9898 32.9679C17.2398 33.198 17.579 33.3273 17.9326 33.3273H26.4659C26.8196 33.3273 27.1587 33.198 27.4087 32.9679C27.6588 32.7377 27.7993 32.4256 27.7993 32.1001V31.9364C27.7993 31.5297 28.1574 31.2001 28.5993 31.2001C29.0411 31.2001 29.3993 31.5297 29.3993 31.9364V32.1001C29.3993 32.8162 29.0902 33.5029 28.5401 34.0093C27.99 34.5156 27.2439 34.8001 26.4659 34.8001H17.9326C17.1546 34.8001 16.4085 34.5156 15.8584 34.0093C15.3083 33.5029 14.9993 32.8162 14.9993 32.1001V21.3001C14.9993 20.584 15.3083 19.8972 15.8584 19.3909C16.4085 18.8845 17.1546 18.6001 17.9326 18.6001H18.2659C18.7078 18.6001 19.0659 18.9297 19.0659 19.3364C19.0659 19.7431 18.7078 20.0728 18.2659 20.0728H17.9326Z" fill="#838790"/>
</svg>
