<svg width="38" height="38" viewBox="0 0 38 38" fill="none" xmlns="http://www.w3.org/2000/svg">
<circle cx="19" cy="19" r="19" fill="white"/>
<g clip-path="url(#clip0)">
<path d="M22.7887 13.4881C22.7351 13.5267 22.685 13.5699 22.6389 13.6172L14.6895 21.5666L14.7822 21.3127C14.8714 21.063 14.9164 20.7998 14.9152 20.5347L14.9152 16.0762C14.9286 15.5024 14.527 15.0022 13.9639 14.8911C13.3416 14.7949 12.7591 15.2214 12.6629 15.8437C12.6551 15.894 12.6507 15.9447 12.6497 15.9956L12.6497 24.0579C12.6494 24.6876 13.1596 25.1983 13.7893 25.1987C13.7897 25.1987 13.7901 25.1987 13.7906 25.1987L21.8528 25.1987C22.4825 25.1978 22.9923 24.6866 22.9914 24.0569C22.9913 24.0074 22.988 23.9578 22.9815 23.9087C22.8704 23.3456 22.3702 22.944 21.7964 22.9574L17.3379 22.9493C17.1012 22.9492 16.8659 22.9859 16.6406 23.0581L16.2899 23.1912L24.207 15.274C24.6341 14.8775 24.7078 14.2284 24.3803 13.7462C24.0121 13.2354 23.2995 13.1199 22.7887 13.4881Z" fill="black"/>
</g>
<defs>
<clipPath id="clip0">
<rect width="15.9355" height="15.9355" fill="white" transform="translate(7.35474 19.2358) rotate(-45)"/>
</clipPath>
</defs>
</svg>
