<svg width="16" height="16" viewBox="0 0 16 16" fill="none" xmlns="http://www.w3.org/2000/svg">
<path d="M7.99998 2.66671C10.94 2.66671 13.3333 5.06004 13.3333 8.00004C13.3333 10.94 10.94 13.3334 7.99998 13.3334C5.05998 13.3334 2.66665 10.94 2.66665 8.00004C2.66665 5.06004 5.05998 2.66671 7.99998 2.66671ZM7.99998 1.33337C4.31798 1.33337 1.33331 4.31804 1.33331 8.00004C1.33331 11.682 4.31798 14.6667 7.99998 14.6667C11.682 14.6667 14.6666 11.682 14.6666 8.00004C14.6666 4.31804 11.682 1.33337 7.99998 1.33337ZM10.5333 10.2667L8.66665 7.77804V4.66671H7.33331V8.22204L9.46665 11.066L10.5333 10.266V10.2667Z" fill="#838790"/>
</svg>
