<svg width="93" height="31" viewBox="0 0 93 31" fill="none" xmlns="http://www.w3.org/2000/svg">
<rect width="93" height="31" rx="15.5" fill="#EFF0F2"/>
<path d="M27.332 20.5V11.666H24.406V10.7H31.434V11.666H28.508V20.5H27.332ZM32.007 20.5V13.556H33.071L33.169 14.886C33.3837 14.4287 33.7103 14.0647 34.149 13.794C34.5877 13.5233 35.129 13.388 35.773 13.388V14.62H35.451C35.0403 14.62 34.6623 14.6947 34.317 14.844C33.9717 14.984 33.6963 15.2267 33.491 15.572C33.2857 15.9173 33.183 16.3933 33.183 17V20.5H32.007ZM39.403 20.668C38.8243 20.668 38.3436 20.57 37.961 20.374C37.5783 20.178 37.2936 19.9167 37.107 19.59C36.9203 19.2633 36.827 18.9087 36.827 18.526C36.827 17.8167 37.0976 17.2707 37.639 16.888C38.1803 16.5053 38.9176 16.314 39.851 16.314H41.727V16.23C41.727 15.6233 41.5683 15.166 41.251 14.858C40.9336 14.5407 40.509 14.382 39.977 14.382C39.5196 14.382 39.123 14.4987 38.787 14.732C38.4603 14.956 38.255 15.2873 38.171 15.726H36.967C37.0136 15.222 37.1816 14.7973 37.471 14.452C37.7696 14.1067 38.1383 13.8453 38.577 13.668C39.0156 13.4813 39.4823 13.388 39.977 13.388C40.9476 13.388 41.6756 13.6493 42.161 14.172C42.6556 14.6853 42.903 15.3713 42.903 16.23V20.5H41.853L41.783 19.254C41.587 19.646 41.2976 19.982 40.915 20.262C40.5416 20.5327 40.0376 20.668 39.403 20.668ZM39.585 19.674C40.033 19.674 40.4156 19.5573 40.733 19.324C41.0596 19.0907 41.307 18.7873 41.475 18.414C41.643 18.0407 41.727 17.6487 41.727 17.238V17.224H39.949C39.2583 17.224 38.7683 17.3453 38.479 17.588C38.199 17.8213 38.059 18.1153 38.059 18.47C38.059 18.834 38.1896 19.128 38.451 19.352C38.7216 19.5667 39.0996 19.674 39.585 19.674ZM45.3812 12.016C45.1478 12.016 44.9518 11.9413 44.7932 11.792C44.6438 11.6333 44.5692 11.4373 44.5692 11.204C44.5692 10.98 44.6438 10.7933 44.7932 10.644C44.9518 10.4947 45.1478 10.42 45.3812 10.42C45.6052 10.42 45.7965 10.4947 45.9552 10.644C46.1138 10.7933 46.1932 10.98 46.1932 11.204C46.1932 11.4373 46.1138 11.6333 45.9552 11.792C45.7965 11.9413 45.6052 12.016 45.3812 12.016ZM44.7932 20.5V13.556H45.9692V20.5H44.7932ZM48.0168 20.5V13.556H49.0808L49.1508 14.802C49.3748 14.3633 49.6968 14.018 50.1168 13.766C50.5368 13.514 51.0128 13.388 51.5448 13.388C52.3661 13.388 53.0194 13.64 53.5048 14.144C53.9994 14.6387 54.2468 15.404 54.2468 16.44V20.5H53.0708V16.566C53.0708 15.1193 52.4734 14.396 51.2788 14.396C50.6814 14.396 50.1821 14.6153 49.7808 15.054C49.3888 15.4833 49.1928 16.0993 49.1928 16.902V20.5H48.0168ZM59.1505 20.668C58.4878 20.668 57.8998 20.5187 57.3865 20.22C56.8732 19.912 56.4672 19.4873 56.1685 18.946C55.8792 18.4047 55.7345 17.7653 55.7345 17.028C55.7345 16.3 55.8792 15.6653 56.1685 15.124C56.4578 14.5733 56.8592 14.1487 57.3725 13.85C57.8952 13.542 58.4972 13.388 59.1785 13.388C59.8505 13.388 60.4292 13.542 60.9145 13.85C61.4092 14.1487 61.7872 14.5453 62.0485 15.04C62.3098 15.5347 62.4405 16.0667 62.4405 16.636C62.4405 16.7387 62.4358 16.8413 62.4265 16.944C62.4265 17.0467 62.4265 17.1633 62.4265 17.294H56.8965C56.9245 17.826 57.0458 18.2693 57.2605 18.624C57.4845 18.9693 57.7598 19.2307 58.0865 19.408C58.4225 19.5853 58.7772 19.674 59.1505 19.674C59.6358 19.674 60.0418 19.562 60.3685 19.338C60.6952 19.114 60.9332 18.8107 61.0825 18.428H62.2445C62.0578 19.072 61.6985 19.6087 61.1665 20.038C60.6438 20.458 59.9718 20.668 59.1505 20.668ZM59.1505 14.382C58.5905 14.382 58.0912 14.5547 57.6525 14.9C57.2232 15.236 56.9758 15.7307 56.9105 16.384H61.2785C61.2505 15.7587 61.0358 15.2687 60.6345 14.914C60.2332 14.5593 59.7385 14.382 59.1505 14.382ZM63.9992 20.5V13.556H65.0632L65.1612 14.886C65.3759 14.4287 65.7025 14.0647 66.1412 13.794C66.5799 13.5233 67.1212 13.388 67.7652 13.388V14.62H67.4432C67.0325 14.62 66.6545 14.6947 66.3092 14.844C65.9639 14.984 65.6885 15.2267 65.4832 15.572C65.2779 15.9173 65.1752 16.3933 65.1752 17V20.5H63.9992Z" fill="#838790"/>
</svg>
