<svg width="98" height="46" viewBox="0 0 98 46" fill="none" xmlns="http://www.w3.org/2000/svg">
<path d="M45.8333 16.44H45.6667C45.7583 16.44 45.8333 16.368 45.8333 16.28V16.44H52.1667V16.28C52.1667 16.368 52.2417 16.44 52.3333 16.44H52.1667V17.88H53.6667V16.28C53.6667 15.574 53.0688 15 52.3333 15H45.6667C44.9313 15 44.3333 15.574 44.3333 16.28V17.88H45.8333V16.44ZM56.3333 17.88H41.6667C41.2979 17.88 41 18.166 41 18.52V19.16C41 19.248 41.075 19.32 41.1667 19.32H42.425L42.9396 29.78C42.9729 30.462 43.5604 31 44.2708 31H53.7292C54.4417 31 55.0271 30.464 55.0604 29.78L55.575 19.32H56.8333C56.925 19.32 57 19.248 57 19.16V18.52C57 18.166 56.7021 17.88 56.3333 17.88ZM53.5688 29.56H44.4313L43.9271 19.32H54.0729L53.5688 29.56Z" fill="#E81A55"/>
<rect x="0.5" y="0.5" width="97" height="45" rx="22.5" stroke="#E81A55"/>
</svg>
