<svg width="38" height="38" viewBox="0 0 38 38" fill="none" xmlns="http://www.w3.org/2000/svg">
<circle cx="19" cy="19" r="18.75" fill="#DCDCDC" stroke="black" stroke-width="0.5"/>
<path fill-rule="evenodd" clip-rule="evenodd" d="M26.464 11.5071C24.6222 9.66306 22.1727 8.64708 19.5631 8.646C14.1858 8.646 9.80946 13.0222 9.80729 18.4009C9.80657 20.1204 10.2557 21.7988 11.1095 23.2782L9.72546 28.3335L14.8972 26.9769C16.3222 27.7542 17.9265 28.1638 19.5591 28.1643H19.5632C24.9399 28.1643 29.3167 23.7877 29.3188 18.4088C29.3198 15.8019 28.306 13.351 26.464 11.5071ZM19.5631 26.5168H19.5597C18.1048 26.5162 16.6779 26.1251 15.4327 25.3865L15.1368 25.2107L12.0678 26.0158L12.887 23.0236L12.6941 22.7168C11.8824 21.4258 11.4538 19.9336 11.4545 18.4015C11.4562 13.9309 15.0937 10.2937 19.5663 10.2937C21.7321 10.2944 23.7681 11.1389 25.2989 12.6716C26.8298 14.2043 27.6724 16.2415 27.6717 18.4082C27.6698 22.8792 24.0324 26.5168 19.5631 26.5168ZM24.0108 20.4438C23.7671 20.3218 22.5686 19.7322 22.3451 19.6508C22.1218 19.5694 21.9591 19.5289 21.7968 19.7728C21.6342 20.0168 21.1671 20.5659 21.0249 20.7285C20.8826 20.8912 20.7406 20.9116 20.4968 20.7895C20.2529 20.6676 19.4676 20.4101 18.5364 19.5796C17.8118 18.9333 17.3226 18.135 17.1804 17.8911C17.0383 17.6469 17.1792 17.5277 17.2873 17.3936C17.5512 17.0659 17.8154 16.7224 17.8967 16.5598C17.978 16.3971 17.9373 16.2547 17.8762 16.1327C17.8154 16.0108 17.3279 14.811 17.1249 14.3227C16.9268 13.8476 16.726 13.9118 16.5763 13.9043C16.4343 13.8972 16.2717 13.8958 16.1091 13.8958C15.9467 13.8958 15.6825 13.9567 15.459 14.2009C15.2357 14.4449 14.606 15.0346 14.606 16.2344C14.606 17.4342 15.4795 18.5933 15.6013 18.756C15.7232 18.9187 17.3202 21.3809 19.7654 22.4366C20.347 22.688 20.801 22.8378 21.1551 22.9502C21.7391 23.1357 22.2704 23.1095 22.6904 23.0468C23.1588 22.9768 24.1325 22.457 24.3358 21.8877C24.5389 21.3183 24.5389 20.8303 24.4779 20.7285C24.4171 20.6268 24.2545 20.5659 24.0108 20.4438Z" fill="black"/>
</svg>
