<svg width="38" height="38" viewBox="0 0 38 38" fill="none" xmlns="http://www.w3.org/2000/svg">
<circle cx="19" cy="19" r="18.75" fill="white" stroke="black" stroke-width="0.5"/>
<path d="M19 8C12.9345 8 8 12.9345 8 19C8 25.0655 12.9345 30 19 30C25.0655 30 30 25.0655 30 19C30 12.9345 25.0655 8 19 8ZM19 28.1667C13.9456 28.1667 9.83333 24.0544 9.83333 19C9.83333 13.9456 13.9456 9.83333 19 9.83333C24.0544 9.83333 28.1667 13.9456 28.1667 19C28.1667 24.0544 24.0544 28.1667 19 28.1667Z" fill="black"/>
<path d="M13.884 24.116L21.558 21.558L24.1159 13.884L16.442 16.442L13.884 24.116ZM17.8913 17.8913L21.2173 16.7826L20.1087 20.1087L16.7826 21.2174L17.8913 17.8913Z" fill="black"/>
</svg>
