<svg width="24" height="24" viewBox="0 0 24 24" fill="none" xmlns="http://www.w3.org/2000/svg">
<path d="M20.995 6.90023C20.9784 6.73217 20.9194 6.57108 20.8235 6.43204C20.7277 6.293 20.5981 6.18055 20.447 6.10523L12.447 2.10523C12.3081 2.03571 12.1549 1.99951 11.9995 1.99951C11.8442 1.99951 11.6909 2.03571 11.552 2.10523L3.552 6.10523C3.40128 6.18098 3.27212 6.29357 3.17649 6.43254C3.08087 6.57152 3.02189 6.73238 3.005 6.90023C2.994 7.00723 2.044 17.6672 11.594 21.9142C11.7216 21.9718 11.86 22.0016 12 22.0016C12.14 22.0016 12.2784 21.9718 12.406 21.9142C21.956 17.6672 21.006 7.00823 20.995 6.90023ZM12 19.8972C5.231 16.6252 4.911 9.64223 4.966 7.63523L12 4.11823L19.029 7.63323C19.066 9.62223 18.701 16.6512 12 19.8972Z" fill="#838790"/>
<path d="M11 12.586L8.707 10.293L7.293 11.707L11 15.414L16.707 9.70697L15.293 8.29297L11 12.586Z" fill="#838790"/>
</svg>
