<svg width="24" height="24" viewBox="0 0 24 24" fill="none" xmlns="http://www.w3.org/2000/svg">
<path d="M13 2.02979V4.04979C17.39 4.58979 20.5 8.57979 19.96 12.9698C19.5 16.6098 16.64 19.4998 13 19.9298V21.9298C18.5 21.3798 22.5 16.4998 21.95 10.9998C21.5 6.24979 17.73 2.49979 13 2.02979ZM11 2.05979C9.04999 2.24979 7.18999 2.99979 5.66999 4.25979L7.09999 5.73978C8.21999 4.83979 9.56999 4.25979 11 4.05979V2.05979ZM4.25999 5.66979C3.00964 7.18713 2.24019 9.04287 2.04999 10.9998H4.04999C4.23999 9.57979 4.79999 8.22978 5.68999 7.09978L4.25999 5.66979ZM2.05999 12.9998C2.25999 14.9598 3.02999 16.8098 4.26999 18.3298L5.68999 16.8998C4.80692 15.7694 4.24394 14.4224 4.05999 12.9998H2.05999ZM7.09999 18.3698L5.66999 19.7398C7.18477 21.0025 9.03926 21.7888 11 21.9998V19.9998C9.57739 19.8158 8.23039 19.2529 7.09999 18.3698Z" fill="#838790"/>
<path d="M12.5 12.25V7H11V13L16.25 16.15L17 14.92L12.5 12.25Z" fill="#838790"/>
</svg>
